<?xml version="1.0" encoding="UTF-8"?>
<!DOCTYPE svg PUBLIC "-//W3C//DTD SVG 1.1//EN" "http://www.w3.org/Graphics/SVG/1.1/DTD/svg11.dtd">
<svg xmlns="http://www.w3.org/2000/svg" version="1.1" width="404px" height="324px" style="shape-rendering:geometricPrecision; text-rendering:geometricPrecision; image-rendering:optimizeQuality; fill-rule:evenodd; clip-rule:evenodd" xmlns:xlink="http://www.w3.org/1999/xlink">
<g><path style="opacity:1" fill="#388452" d="M 255.5,46.5 C 254.761,46.631 254.094,46.4643 253.5,46C 254.406,44.3005 254.739,42.4672 254.5,40.5C 243.039,40.8494 231.705,42.1828 220.5,44.5C 212.795,53.7777 204.295,62.4444 195,70.5C 194.879,76.5905 193.713,82.2572 191.5,87.5C 191.909,84.1445 191.242,81.1445 189.5,78.5C 191.973,78.3957 192.639,77.3957 191.5,75.5C 192.473,72.2211 193.973,69.2211 196,66.5C 204.888,58.9458 213.054,50.7792 220.5,42C 230.296,40.5939 240.129,39.4272 250,38.5C 257.133,37.7878 258.967,40.4545 255.5,46.5 Z"/></g>
<g><path style="opacity:1" fill="#208842" d="M 255.5,46.5 C 261.921,48.2684 267.921,50.9351 273.5,54.5C 274.919,53.9953 275.585,52.9953 275.5,51.5C 279.344,49.7354 282.677,50.402 285.5,53.5C 291.623,54.9671 297.623,54.6338 303.5,52.5C 306.144,53.741 306.977,55.741 306,58.5C 305.492,56.0958 304.325,55.4291 302.5,56.5C 304.353,59.9408 306.02,63.2742 307.5,66.5C 299.246,68.2129 290.913,70.2129 282.5,72.5C 282.098,71.1695 280.765,70.1695 278.5,69.5C 278.167,69.5 277.833,69.5 277.5,69.5C 276.551,68.8476 275.385,68.5143 274,68.5C 271.667,69.1667 269.333,69.8333 267,70.5C 262.004,69.0311 256.837,68.0311 251.5,67.5C 244.019,67.4711 241.852,70.8044 245,77.5C 247.459,76.3511 249.959,76.3511 252.5,77.5C 255.516,80.5064 259.182,82.1731 263.5,82.5C 268.861,83.5342 271.861,86.8675 272.5,92.5C 275.784,93.657 279.118,93.8236 282.5,93C 283.056,92.6174 283.389,92.1174 283.5,91.5C 283.5,89.8333 283.5,88.1667 283.5,86.5C 285.698,86.8799 287.365,86.2132 288.5,84.5C 288.833,84.5 289.167,84.5 289.5,84.5C 295.712,82.8192 301.712,80.6526 307.5,78C 308.867,75.6985 309.534,73.1985 309.5,70.5C 310.833,71.1667 312.167,71.8333 313.5,72.5C 314.458,72.9528 315.292,73.6195 316,74.5C 319.008,83.5107 324.342,90.844 332,96.5C 332.483,97.448 332.649,98.448 332.5,99.5C 325.687,100.491 318.687,100.825 311.5,100.5C 300.346,99.5052 289.012,99.1719 277.5,99.5C 266.341,98.3407 255.008,98.1741 243.5,99C 243,99.5 242.5,100 242,100.5C 242.114,105.606 241.28,110.273 239.5,114.5C 239.5,114.167 239.5,113.833 239.5,113.5C 237.696,112.838 235.696,112.505 233.5,112.5C 225.022,114.247 216.355,114.914 207.5,114.5C 207.5,113.5 207.5,112.5 207.5,111.5C 205.473,111.662 203.473,111.495 201.5,111C 200.588,108.795 199.255,106.962 197.5,105.5C 189.429,101.492 187.429,95.4916 191.5,87.5C 193.713,82.2572 194.879,76.5905 195,70.5C 204.295,62.4444 212.795,53.7777 220.5,44.5C 231.705,42.1828 243.039,40.8494 254.5,40.5C 254.739,42.4672 254.406,44.3005 253.5,46C 254.094,46.4643 254.761,46.631 255.5,46.5 Z"/></g>
<g><path style="opacity:0.969" fill="#4e8f60" d="M 313.5,72.5 C 312.167,71.8333 310.833,71.1667 309.5,70.5C 309.011,69.0048 308.345,67.6715 307.5,66.5C 306.02,63.2742 304.353,59.9408 302.5,56.5C 304.325,55.4291 305.492,56.0958 306,58.5C 306.977,55.741 306.144,53.741 303.5,52.5C 297.623,54.6338 291.623,54.9671 285.5,53.5C 282.677,50.402 279.344,49.7354 275.5,51.5C 276.014,49.5613 277.347,48.5613 279.5,48.5C 283.793,49.9895 288.127,51.3229 292.5,52.5C 295.251,52.1457 297.917,51.479 300.5,50.5C 302.747,51.3742 305.08,51.7076 307.5,51.5C 307.682,53.6746 308.349,55.6746 309.5,57.5C 309.41,59.4251 308.41,60.5917 306.5,61C 310.486,63.8021 312.82,67.6355 313.5,72.5 Z"/></g>
<g><path style="opacity:1" fill="#48722e" d="M 307.5,66.5 C 308.345,67.6715 309.011,69.0048 309.5,70.5C 309.534,73.1985 308.867,75.6985 307.5,78C 301.712,80.6526 295.712,82.8192 289.5,84.5C 290.167,83.1667 291.167,82.1667 292.5,81.5C 296.327,81.2484 299.66,79.9151 302.5,77.5C 306.573,76.413 308.239,73.7464 307.5,69.5C 303.33,69.3331 299.33,69.9997 295.5,71.5C 291.304,71.9233 287.137,72.59 283,73.5C 279.737,74.0676 278.237,72.7343 278.5,69.5C 280.765,70.1695 282.098,71.1695 282.5,72.5C 290.913,70.2129 299.246,68.2129 307.5,66.5 Z"/></g>
<g><path style="opacity:0.995" fill="#050404" d="M 189.5,78.5 C 191.242,81.1445 191.909,84.1445 191.5,87.5C 187.429,95.4916 189.429,101.492 197.5,105.5C 197.608,107.783 198.441,109.783 200,111.5C 203.214,112.81 206.047,114.643 208.5,117C 214.836,117.152 221.17,116.819 227.5,116C 231.253,114.011 235.253,113.178 239.5,113.5C 239.5,113.833 239.5,114.167 239.5,114.5C 240.436,115.974 241.77,116.974 243.5,117.5C 243.833,117.5 244.167,117.5 244.5,117.5C 247.044,117.104 249.211,117.771 251,119.5C 251.333,124.833 251.667,130.167 252,135.5C 255.586,138.221 258.086,141.555 259.5,145.5C 261.313,148.929 261.813,152.596 261,156.5C 260.617,157.056 260.117,157.389 259.5,157.5C 256.819,162.068 255.986,167.068 257,172.5C 261.764,177.583 264.098,183.583 264,190.5C 264.488,193.855 265.988,196.522 268.5,198.5C 270.72,201.765 271.886,205.432 272,209.5C 273.356,210.38 274.856,210.714 276.5,210.5C 276.5,211.167 276.833,211.5 277.5,211.5C 281.642,210.96 285.642,210.294 289.5,209.5C 291.027,209.573 292.027,208.906 292.5,207.5C 296.12,205.547 299.12,202.881 301.5,199.5C 303.396,197.163 304.73,194.496 305.5,191.5C 306.973,190.26 308.64,189.26 310.5,188.5C 311.222,184.123 311.889,179.79 312.5,175.5C 313.5,175.5 314.5,175.5 315.5,175.5C 315.919,171.441 318.252,169.441 322.5,169.5C 323.362,168.234 324.029,166.901 324.5,165.5C 325.8,163.777 326.467,161.61 326.5,159C 325.37,153.618 324.37,148.118 323.5,142.5C 326.059,137.927 329.059,133.594 332.5,129.5C 337.208,125.793 341.208,121.46 344.5,116.5C 347.299,113.656 349.465,110.323 351,106.5C 351.494,104.866 351.66,103.199 351.5,101.5C 351.167,100.167 350.833,98.8333 350.5,97.5C 359.022,97.6894 367.522,97.3561 376,96.5C 377.5,96.6667 379,96.8333 380.5,97C 380.957,97.414 381.291,97.914 381.5,98.5C 355.946,140.946 331.446,183.946 308,227.5C 307.333,230.167 306.667,232.833 306,235.5C 305.5,252.83 305.333,270.163 305.5,287.5C 291.5,287.5 277.5,287.5 263.5,287.5C 263.667,273.496 263.5,259.496 263,245.5C 262.561,238.974 261.228,232.64 259,226.5C 245.922,200.676 232.588,175.009 219,149.5C 215.691,143.706 211.858,138.373 207.5,133.5C 207.5,131.5 206.5,130.5 204.5,130.5C 178.4,113.376 149.733,106.876 118.5,111C 82.8956,118.635 64.5622,140.802 63.5,177.5C 63.3841,201.761 72.7175,221.261 91.5,236C 111.031,246.667 131.698,249.5 153.5,244.5C 153.5,229.5 153.5,214.5 153.5,199.5C 142.5,199.5 131.5,199.5 120.5,199.5C 120.5,187.167 120.5,174.833 120.5,162.5C 143.836,162.333 167.169,162.5 190.5,163C 193.295,164.793 195.795,166.96 198,169.5C 199.651,200.414 199.984,231.414 199,262.5C 196.592,269.909 191.758,275.076 184.5,278C 146.912,288.657 109.579,287.99 72.5,276C 39.3084,261.13 20.1417,235.63 15,199.5C 9.99865,168.186 16.332,139.52 34,113.5C 37.6972,108.638 41.8639,104.304 46.5,100.5C 48.7488,99.9202 50.4154,98.5869 51.5,96.5C 57.2365,90.7853 63.9032,86.2853 71.5,83C 97.3847,71.9363 124.385,67.9363 152.5,71C 165.18,71.9025 177.513,74.4025 189.5,78.5 Z"/></g>
<g><path style="opacity:1" fill="#917431" d="M 277.5,69.5 C 277.833,69.5 278.167,69.5 278.5,69.5C 278.237,72.7343 279.737,74.0676 283,73.5C 287.137,72.59 291.304,71.9233 295.5,71.5C 293.5,72.5 291.5,73.5 289.5,74.5C 284.175,75.1462 279.342,74.1462 275,71.5C 272.772,72.981 270.272,73.6476 267.5,73.5C 244.193,69.5876 243.526,72.2543 265.5,81.5C 266.944,80.019 267.611,80.3523 267.5,82.5C 266.167,82.5 264.833,82.5 263.5,82.5C 259.182,82.1731 255.516,80.5064 252.5,77.5C 251.594,76.0351 250.261,75.0351 248.5,74.5C 247.548,72.9547 247.215,71.288 247.5,69.5C 254.267,69.8502 260.934,70.8502 267.5,72.5C 270.839,71.4882 274.172,70.4882 277.5,69.5 Z"/></g>
<g><path style="opacity:1" fill="#aa6625" d="M 302.5,77.5 C 303.237,75.6954 304.237,74.0287 305.5,72.5C 305,72.1667 304.5,71.8333 304,71.5C 301.188,74.7659 297.688,76.2659 293.5,76C 293.833,75.6667 294.167,75.3333 294.5,75C 292.866,74.5065 291.199,74.3398 289.5,74.5C 291.5,73.5 293.5,72.5 295.5,71.5C 299.33,69.9997 303.33,69.3331 307.5,69.5C 308.239,73.7464 306.573,76.413 302.5,77.5 Z"/></g>
<g><path style="opacity:1" fill="#457a33" d="M 277.5,69.5 C 274.172,70.4882 270.839,71.4882 267.5,72.5C 260.934,70.8502 254.267,69.8502 247.5,69.5C 247.215,71.288 247.548,72.9547 248.5,74.5C 250.261,75.0351 251.594,76.0351 252.5,77.5C 249.959,76.3511 247.459,76.3511 245,77.5C 241.852,70.8044 244.019,67.4711 251.5,67.5C 256.837,68.0311 262.004,69.0311 267,70.5C 269.333,69.8333 271.667,69.1667 274,68.5C 275.385,68.5143 276.551,68.8476 277.5,69.5 Z"/></g>
<g><path style="opacity:1" fill="#976b27" d="M 302.5,77.5 C 299.66,79.9151 296.327,81.2484 292.5,81.5C 292.918,80.7784 293.584,80.2784 294.5,80C 294.167,79.6667 293.833,79.3333 293.5,79C 296.513,78.4978 299.513,77.9978 302.5,77.5 Z"/></g>
<g><path style="opacity:1" fill="#c96f2a" d="M 289.5,74.5 C 291.199,74.3398 292.866,74.5065 294.5,75C 294.167,75.3333 293.833,75.6667 293.5,76C 297.688,76.2659 301.188,74.7659 304,71.5C 304.5,71.8333 305,72.1667 305.5,72.5C 304.237,74.0287 303.237,75.6954 302.5,77.5C 299.513,77.9978 296.513,78.4978 293.5,79C 293.833,79.3333 294.167,79.6667 294.5,80C 293.584,80.2784 292.918,80.7784 292.5,81.5C 291.167,82.1667 290.167,83.1667 289.5,84.5C 289.167,84.5 288.833,84.5 288.5,84.5C 286.254,84.9361 284.087,85.6028 282,86.5C 278.04,85.82 274.207,84.82 270.5,83.5C 269.791,82.596 268.791,82.2627 267.5,82.5C 267.611,80.3523 266.944,80.019 265.5,81.5C 243.526,72.2543 244.193,69.5876 267.5,73.5C 270.272,73.6476 272.772,72.981 275,71.5C 279.342,74.1462 284.175,75.1462 289.5,74.5 Z"/></g>
<g><path style="opacity:1" fill="#486f2c" d="M 263.5,82.5 C 264.833,82.5 266.167,82.5 267.5,82.5C 268.791,82.2627 269.791,82.596 270.5,83.5C 272.856,85.5573 273.856,88.224 273.5,91.5C 276.833,91.5 280.167,91.5 283.5,91.5C 283.389,92.1174 283.056,92.6174 282.5,93C 279.118,93.8236 275.784,93.657 272.5,92.5C 271.861,86.8675 268.861,83.5342 263.5,82.5 Z"/></g>
<g><path style="opacity:1" fill="#8d6428" d="M 270.5,83.5 C 274.207,84.82 278.04,85.82 282,86.5C 284.087,85.6028 286.254,84.9361 288.5,84.5C 287.365,86.2132 285.698,86.8799 283.5,86.5C 283.5,88.1667 283.5,89.8333 283.5,91.5C 280.167,91.5 276.833,91.5 273.5,91.5C 273.856,88.224 272.856,85.5573 270.5,83.5 Z"/></g>
<g><path style="opacity:0.643" fill="#686868" d="M 51.5,96.5 C 50.4154,98.5869 48.7488,99.9202 46.5,100.5C 47.5846,98.4131 49.2512,97.0798 51.5,96.5 Z"/></g>
<g><path style="opacity:1" fill="#2d7d5b" d="M 277.5,99.5 C 277.5,99.8333 277.5,100.167 277.5,100.5C 266.167,100.5 254.833,100.5 243.5,100.5C 243.5,106.167 243.5,111.833 243.5,117.5C 241.77,116.974 240.436,115.974 239.5,114.5C 241.28,110.273 242.114,105.606 242,100.5C 242.5,100 243,99.5 243.5,99C 255.008,98.1741 266.341,98.3407 277.5,99.5 Z"/></g>
<g><path style="opacity:0.796" fill="#70703e" d="M 350.5,97.5 C 350.833,98.8333 351.167,100.167 351.5,101.5C 348.39,100.912 345.39,100.245 342.5,99.5C 345.221,99.0372 347.888,98.3705 350.5,97.5 Z"/></g>
<g><path style="opacity:1" fill="#023548" d="M 277.5,100.5 C 277.5,100.833 277.5,101.167 277.5,101.5C 266.5,101.5 255.5,101.5 244.5,101.5C 244.5,106.833 244.5,112.167 244.5,117.5C 244.167,117.5 243.833,117.5 243.5,117.5C 243.5,111.833 243.5,106.167 243.5,100.5C 254.833,100.5 266.167,100.5 277.5,100.5 Z"/></g>
<g><path style="opacity:1" fill="#825334" d="M 277.5,99.5 C 289.012,99.1719 300.346,99.5052 311.5,100.5C 311.5,100.833 311.5,101.167 311.5,101.5C 300.5,101.5 289.5,101.5 278.5,101.5C 278.167,101.5 277.833,101.5 277.5,101.5C 277.5,101.167 277.5,100.833 277.5,100.5C 277.5,100.167 277.5,99.8333 277.5,99.5 Z"/></g>
<g><path style="opacity:1" fill="#22225c" d="M 277.5,101.5 C 277.5,138.167 277.5,174.833 277.5,211.5C 276.833,211.5 276.5,211.167 276.5,210.5C 276.667,175.165 276.5,139.832 276,104.5C 266.244,103.349 256.411,103.182 246.5,104C 245.202,108.118 245.202,112.285 246.5,116.5C 248.747,115.626 251.08,115.292 253.5,115.5C 253.413,118.739 254.08,121.739 255.5,124.5C 254.5,124.5 253.5,124.5 252.5,124.5C 250.816,131.321 252.982,136.321 259,139.5C 259.495,141.473 259.662,143.473 259.5,145.5C 258.086,141.555 255.586,138.221 252,135.5C 251.667,130.167 251.333,124.833 251,119.5C 249.211,117.771 247.044,117.104 244.5,117.5C 244.5,112.167 244.5,106.833 244.5,101.5C 255.5,101.5 266.5,101.5 277.5,101.5 Z"/></g>
<g><path style="opacity:1" fill="#082270" d="M 276.5,210.5 C 274.856,210.714 273.356,210.38 272,209.5C 271.886,205.432 270.72,201.765 268.5,198.5C 266.661,191.863 265.161,185.196 264,178.5C 261.072,176.582 259.406,173.915 259,170.5C 258.466,166.141 258.632,161.808 259.5,157.5C 260.117,157.389 260.617,157.056 261,156.5C 261.813,152.596 261.313,148.929 259.5,145.5C 259.662,143.473 259.495,141.473 259,139.5C 252.982,136.321 250.816,131.321 252.5,124.5C 253.5,124.5 254.5,124.5 255.5,124.5C 254.08,121.739 253.413,118.739 253.5,115.5C 251.08,115.292 248.747,115.626 246.5,116.5C 245.202,112.285 245.202,108.118 246.5,104C 256.411,103.182 266.244,103.349 276,104.5C 276.5,139.832 276.667,175.165 276.5,210.5 Z"/></g>
<g><path style="opacity:1" fill="#c0813d" d="M 332.5,99.5 C 335.677,101.596 339.01,101.596 342.5,99.5C 345.39,100.245 348.39,100.912 351.5,101.5C 351.66,103.199 351.494,104.866 351,106.5C 349.465,110.323 347.299,113.656 344.5,116.5C 346.624,112.121 347.957,107.455 348.5,102.5C 336.172,102.008 323.839,101.675 311.5,101.5C 311.5,101.167 311.5,100.833 311.5,100.5C 318.687,100.825 325.687,100.491 332.5,99.5 Z"/></g>
<g><path style="opacity:1" fill="#c93031" d="M 278.5,101.5 C 289.5,101.5 300.5,101.5 311.5,101.5C 311.5,101.833 311.5,102.167 311.5,102.5C 300.833,102.5 290.167,102.5 279.5,102.5C 279.278,137.509 279.611,172.509 280.5,207.5C 284.513,208.705 288.513,208.705 292.5,207.5C 292.027,208.906 291.027,209.573 289.5,209.5C 285.894,209.789 282.394,209.456 279,208.5C 278.5,172.835 278.333,137.168 278.5,101.5 Z"/></g>
<g><path style="opacity:1" fill="#e67d26" d="M 311.5,102.5 C 311.5,102.167 311.5,101.833 311.5,101.5C 323.839,101.675 336.172,102.008 348.5,102.5C 347.957,107.455 346.624,112.121 344.5,116.5C 341.208,121.46 337.208,125.793 332.5,129.5C 330.5,129.833 328.5,130.167 326.5,130.5C 325.634,133.254 324.467,135.921 323,138.5C 322.833,140.5 322.667,142.5 322.5,144.5C 323.887,151.424 324.554,158.424 324.5,165.5C 322.002,166.912 319.336,168.079 316.5,169C 314.532,170.461 313.198,172.295 312.5,174.5C 312.831,150.328 312.498,126.328 311.5,102.5 Z"/></g>
<g><path style="opacity:1" fill="#2c7848" d="M 197.5,105.5 C 199.255,106.962 200.588,108.795 201.5,111C 203.473,111.495 205.473,111.662 207.5,111.5C 207.5,112.5 207.5,113.5 207.5,114.5C 216.355,114.914 225.022,114.247 233.5,112.5C 235.696,112.505 237.696,112.838 239.5,113.5C 235.253,113.178 231.253,114.011 227.5,116C 221.17,116.819 214.836,117.152 208.5,117C 206.047,114.643 203.214,112.81 200,111.5C 198.441,109.783 197.608,107.783 197.5,105.5 Z"/></g>
<g><path style="opacity:1" fill="#a03148" d="M 277.5,101.5 C 277.833,101.5 278.167,101.5 278.5,101.5C 278.333,137.168 278.5,172.835 279,208.5C 282.394,209.456 285.894,209.789 289.5,209.5C 285.642,210.294 281.642,210.96 277.5,211.5C 277.5,174.833 277.5,138.167 277.5,101.5 Z"/></g>
<g><path style="opacity:0.525" fill="#7a7a7a" d="M 204.5,130.5 C 206.5,130.5 207.5,131.5 207.5,133.5C 206.167,132.833 205.167,131.833 204.5,130.5 Z"/></g>
<g><path style="opacity:1" fill="#bd743f" d="M 332.5,129.5 C 329.059,133.594 326.059,137.927 323.5,142.5C 324.37,148.118 325.37,153.618 326.5,159C 326.467,161.61 325.8,163.777 324.5,165.5C 324.554,158.424 323.887,151.424 322.5,144.5C 322.667,142.5 322.833,140.5 323,138.5C 324.467,135.921 325.634,133.254 326.5,130.5C 328.5,130.167 330.5,129.833 332.5,129.5 Z"/></g>
<g><path style="opacity:1" fill="#d07f43" d="M 324.5,165.5 C 324.029,166.901 323.362,168.234 322.5,169.5C 318.252,169.441 315.919,171.441 315.5,175.5C 314.5,175.5 313.5,175.5 312.5,175.5C 312.5,175.167 312.5,174.833 312.5,174.5C 313.198,172.295 314.532,170.461 316.5,169C 319.336,168.079 322.002,166.912 324.5,165.5 Z"/></g>
<g><path style="opacity:1" fill="#0e1e50" d="M 259.5,157.5 C 258.632,161.808 258.466,166.141 259,170.5C 259.406,173.915 261.072,176.582 264,178.5C 265.161,185.196 266.661,191.863 268.5,198.5C 265.988,196.522 264.488,193.855 264,190.5C 264.098,183.583 261.764,177.583 257,172.5C 255.986,167.068 256.819,162.068 259.5,157.5 Z"/></g>
<g><path style="opacity:1" fill="#a22b2e" d="M 312.5,175.5 C 311.889,179.79 311.222,184.123 310.5,188.5C 308.64,189.26 306.973,190.26 305.5,191.5C 305.5,190.167 305.5,188.833 305.5,187.5C 306.93,187.579 308.264,187.246 309.5,186.5C 310.694,183.68 310.694,180.847 309.5,178C 309.748,176.251 310.748,175.418 312.5,175.5 Z"/></g>
<g><path style="opacity:1" fill="#d52726" d="M 311.5,102.5 C 312.498,126.328 312.831,150.328 312.5,174.5C 312.5,174.833 312.5,175.167 312.5,175.5C 310.748,175.418 309.748,176.251 309.5,178C 310.694,180.847 310.694,183.68 309.5,186.5C 308.264,187.246 306.93,187.579 305.5,187.5C 305.5,188.833 305.5,190.167 305.5,191.5C 304.73,194.496 303.396,197.163 301.5,199.5C 299.114,200.373 297.114,201.873 295.5,204C 294.552,204.483 293.552,204.649 292.5,204.5C 292.5,205.5 292.5,206.5 292.5,207.5C 288.513,208.705 284.513,208.705 280.5,207.5C 279.611,172.509 279.278,137.509 279.5,102.5C 290.167,102.5 300.833,102.5 311.5,102.5 Z"/></g>
<g><path style="opacity:1" fill="#8c2522" d="M 301.5,199.5 C 299.12,202.881 296.12,205.547 292.5,207.5C 292.5,206.5 292.5,205.5 292.5,204.5C 293.552,204.649 294.552,204.483 295.5,204C 297.114,201.873 299.114,200.373 301.5,199.5 Z"/></g>
</svg>
