<svg width="349" height="61" viewBox="0 0 349 61" fill="none" xmlns="http://www.w3.org/2000/svg">
<path d="M31.5672 19.1812C31.5361 19.1466 31.4866 19.1319 31.44 19.143L30.1791 19.4486C30.1273 19.4612 30.0731 19.4416 30.0435 19.4001L29.4955 18.6301C29.489 18.6211 29.4815 18.6129 29.4724 18.6061L28.9553 18.194C28.9413 18.1829 28.9303 18.1689 28.9224 18.1531L28.2765 16.8167C28.2736 16.8098 28.2698 16.8036 28.2652 16.7978L27.8869 16.2914C27.886 16.2901 27.8851 16.289 27.8843 16.2879L27.3613 15.5282C27.3438 15.5026 27.3371 15.4715 27.3438 15.4415L27.3592 15.3694C27.3665 15.335 27.3898 15.3055 27.4227 15.2889C27.4559 15.2723 27.4949 15.2704 27.5296 15.2837L27.6097 15.3148C27.6545 15.3323 27.7063 15.3236 27.7421 15.2925C27.7777 15.2616 27.7911 15.2142 27.7765 15.1708L27.6865 14.9061C27.6732 14.8663 27.6382 14.8362 27.5945 14.8272L26.7006 14.6409C26.6817 14.6371 26.6615 14.6373 26.6429 14.6417L25.9313 14.8084C25.9103 14.8133 25.8882 14.813 25.8672 14.8073L25.2446 14.6441C25.2216 14.6382 25.2007 14.6262 25.1849 14.6092L25.0236 14.439C25.0012 14.4155 24.9698 14.4013 24.9363 14.3999L24.5499 14.3817C24.4858 14.3789 24.4293 14.4218 24.42 14.4815L24.3734 14.7729C24.3682 14.8046 24.3498 14.833 24.3222 14.8513C24.2942 14.8695 24.2596 14.8766 24.2264 14.8709L23.4055 14.7255C23.3607 14.7173 23.3243 14.6875 23.31 14.6472L23.2504 14.4793C23.2338 14.433 23.188 14.401 23.1359 14.3994L22.4828 14.3784C22.4446 14.3773 22.4094 14.3598 22.3867 14.3314L22.175 14.0668C22.1537 14.0403 22.1456 14.0065 22.1523 13.974C22.159 13.9413 22.1802 13.9131 22.2105 13.896L22.2661 13.8646C22.3232 13.8327 22.3433 13.7644 22.3127 13.7093L22.105 13.3377C22.0802 13.2941 22.029 13.2695 21.9766 13.2766L19.5411 13.5989C19.5309 13.6 19.5209 13.6027 19.5114 13.6063L18.8 13.8777C18.7872 13.8829 18.7735 13.8856 18.7595 13.8862L18.3035 13.9086C18.2729 13.9102 18.2444 13.9219 18.2228 13.9419L17.3755 14.7116C17.3563 14.7291 17.3434 14.7517 17.3391 14.7763L17.2721 15.152C17.2666 15.185 17.2459 15.2139 17.2159 15.232L16.4626 15.6789C16.4448 15.6893 16.43 15.704 16.4201 15.7212L15.7355 16.8811C15.7241 16.9002 15.7186 16.9215 15.7197 16.9433L15.7727 18.008C15.773 18.0172 15.7724 18.0263 15.7704 18.0353L15.674 18.5098C15.667 18.5444 15.6772 18.5805 15.7014 18.6078L17.5443 20.6553C17.5749 20.6891 17.6232 20.7038 17.6695 20.6937L18.4857 20.5079C18.4983 20.5052 18.5111 20.5041 18.5242 20.5049L19.6671 20.5797C19.6828 20.5811 19.6988 20.5789 19.7143 20.5745L20.5643 20.3167C20.6047 20.3044 20.649 20.3123 20.6819 20.3374L21.197 20.7325C21.222 20.7513 21.2544 20.7609 21.2867 20.7584L21.7628 20.7211C21.7978 20.7186 21.8321 20.7295 21.8577 20.7519C21.8837 20.774 21.8985 20.8051 21.8985 20.8381V21.2706C21.8985 21.2765 21.8979 21.2823 21.897 21.2881L21.8236 21.7456C21.8187 21.7778 21.828 21.8111 21.8502 21.8365L22.3781 22.4488C22.3892 22.4618 22.3973 22.4771 22.402 22.4932L22.8274 24.0387C22.8335 24.0603 22.8327 24.0829 22.8254 24.1039L22.4372 25.2442C22.4279 25.2715 22.4297 25.3012 22.4419 25.3274L23.1049 26.7187C23.1099 26.7291 23.1134 26.74 23.1148 26.7517L23.2455 27.7089C23.2485 27.731 23.2587 27.7517 23.2735 27.7689L23.9112 28.4857C23.9299 28.507 23.94 28.5332 23.94 28.5608V29.083C23.94 29.1166 23.9555 29.1488 23.9828 29.1711C24.0096 29.1935 24.0457 29.2034 24.0816 29.199L25.2093 29.0615L26.1563 28.9381C26.186 28.934 26.2134 28.9204 26.2332 28.8988L27.6708 27.3525C27.6847 27.3373 27.6947 27.3185 27.6987 27.2986L27.7652 26.9889C27.7716 26.9586 27.7908 26.9316 27.8184 26.9144L27.9696 26.8203C28.0034 26.7987 28.0243 26.7635 28.0252 26.7253L28.05 25.7681C28.0508 25.7411 28.0616 25.7149 28.0805 25.6945L28.386 25.3643C28.4017 25.3474 28.4218 25.3354 28.4448 25.3288L29.065 25.1564C29.1183 25.1417 29.1547 25.0961 29.1547 25.0439V23.8794C29.1547 23.8696 29.1535 23.86 29.1509 23.8507L28.8487 22.7413C28.8341 22.6878 28.8612 22.6321 28.9139 22.6073L29.0164 22.5593C29.035 22.5506 29.0507 22.538 29.0624 22.5225L29.9627 21.3314C29.9755 21.3143 29.9933 21.3009 30.0134 21.2922L30.7393 20.9874C30.767 20.9757 30.7894 20.9546 30.8019 20.9287L31.5852 19.305C31.6051 19.2637 31.5984 19.2156 31.5672 19.1812Z" fill="#E97D26"/>
<path d="M0.107971 15.8642L0.054999 16.8883C0.0250947 17.4665 0.485812 17.9517 1.06474 17.9517H6.46415C7.14957 17.9517 7.70295 17.3917 7.69488 16.7064L7.69365 16.6012C7.68324 15.7165 7.81194 14.8358 8.07503 13.9911C8.20608 13.5703 8.18051 13.1164 8.00303 12.713L5.43221 6.87027C5.14084 6.20806 4.25747 6.07812 3.78775 6.62836C1.57738 9.21765 0.283827 12.4643 0.107971 15.8642Z" fill="#081D2C"/>
<path d="M0.107971 15.8642L0.054999 16.8883C0.0250947 17.4665 0.485812 17.9517 1.06474 17.9517H6.46415C7.14957 17.9517 7.70295 17.3917 7.69488 16.7064L7.69365 16.6012C7.68324 15.7165 7.81194 14.8358 8.07503 13.9911C8.20608 13.5703 8.18051 13.1164 8.00303 12.713L5.43221 6.87027C5.14084 6.20806 4.25747 6.07812 3.78775 6.62836C1.57738 9.21765 0.283827 12.4643 0.107971 15.8642Z" fill="#1782CF"/>
<path d="M7.38698 31.5425L10.7428 32.9916L18.4551 33.8142C19.2346 33.8974 19.8081 33.1002 19.4815 32.3876L17.8012 28.7216C17.5741 28.2259 17.1311 27.8627 16.6005 27.737L14.3318 27.1997C13.2162 26.9355 12.1708 26.4332 11.2673 25.7274C10.8592 25.4086 10.3215 25.3083 9.82592 25.4586L4.23667 27.1537C3.59037 27.3497 3.33542 28.1284 3.74064 28.6687C4.68502 29.9278 5.94197 30.9185 7.38698 31.5425Z" fill="#081D2C"/>
<path d="M7.38698 31.5425L10.7428 32.9916L18.4551 33.8142C19.2346 33.8974 19.8081 33.1002 19.4815 32.3876L17.8012 28.7216C17.5741 28.2259 17.1311 27.8627 16.6005 27.737L14.3318 27.1997C13.2162 26.9355 12.1708 26.4332 11.2673 25.7274C10.8592 25.4086 10.3215 25.3083 9.82592 25.4586L4.23667 27.1537C3.59037 27.3497 3.33542 28.1284 3.74064 28.6687C4.68502 29.9278 5.94197 30.9185 7.38698 31.5425Z" fill="#1782CF"/>
<path d="M28.5632 28.8767V27.9361V25.5348L28.184 25.914V26.925L27.9313 27.1778V27.8097L26.2882 29.3264L23.5078 29.5791V28.8208L22.8758 28.0625L22.7494 26.925L21.8647 25.2188L22.3703 24.1446L22.1175 23.1335L21.5488 22.5015L21.612 27.4306L19.337 27.9361C18.8635 27.9361 18.5484 28.4255 18.7443 28.8566L20.3051 32.2902C20.6302 33.0055 21.3882 33.4207 22.1661 33.3096L23.5078 33.1179L25.1188 32.8763C27.0986 32.5793 28.5632 30.8786 28.5632 28.8767Z" fill="#081D2C"/>
<path d="M28.5632 28.8767V27.9361V25.5348L28.184 25.914V26.925L27.9313 27.1778V27.8097L26.2882 29.3264L23.5078 29.5791V28.8208L22.8758 28.0625L22.7494 26.925L21.8647 25.2188L22.3703 24.1446L22.1175 23.1335L21.5488 22.5015L21.612 27.4306L19.337 27.9361C18.8635 27.9361 18.5484 28.4255 18.7443 28.8566L20.3051 32.2902C20.6302 33.0055 21.3882 33.4207 22.1661 33.3096L23.5078 33.1179L25.1188 32.8763C27.0986 32.5793 28.5632 30.8786 28.5632 28.8767Z" fill="#1782CF"/>
<path d="M16.1815 0.888042L13.9817 1.2475C11.3473 1.67797 8.83547 2.66667 6.6145 4.14732C5.92684 4.60576 5.65431 5.48322 5.96125 6.25057L7.895 11.0849C8.12281 11.6545 8.91122 11.7007 9.20396 11.1616C9.47002 10.6717 9.80833 10.2246 10.2075 9.83549L10.7658 9.29124C11.4184 8.65509 12.1877 8.15094 13.0314 7.80652L14.408 7.24459L16.4651 6.79668C16.8136 6.7208 17.0621 6.41236 17.0621 6.05572V1.63643C17.0621 1.16881 16.643 0.812631 16.1815 0.888042Z" fill="#081D2C"/>
<path d="M16.1815 0.888042L13.9817 1.2475C11.3473 1.67797 8.83547 2.66667 6.6145 4.14732C5.92684 4.60576 5.65431 5.48322 5.96125 6.25057L7.895 11.0849C8.12281 11.6545 8.91122 11.7007 9.20396 11.1616C9.47002 10.6717 9.80833 10.2246 10.2075 9.83549L10.7658 9.29124C11.4184 8.65509 12.1877 8.15094 13.0314 7.80652L14.408 7.24459L16.4651 6.79668C16.8136 6.7208 17.0621 6.41236 17.0621 6.05572V1.63643C17.0621 1.16881 16.643 0.812631 16.1815 0.888042Z" fill="#1782CF"/>
<path d="M18.0732 5.93557V1.52458C18.0732 1.09724 18.4261 0.754294 18.8533 0.766583L21.5758 0.844906C22.607 0.874571 23.6304 1.03294 24.6223 1.31634L27.251 2.06739C27.451 2.12456 27.6438 2.20474 27.8255 2.30633C29.8675 3.44848 30.8976 5.81188 30.3443 8.08527L29.8271 10.2105L27.9561 8.92427C27.3529 8.50957 26.6929 8.1844 25.9965 7.95886L24.2661 7.39845L22.6665 7.07885C21.6702 6.8798 20.6595 6.76116 19.6442 6.72408L18.8038 6.69338C18.396 6.67848 18.0732 6.3436 18.0732 5.93557Z" fill="#081D2C"/>
<path d="M18.0732 5.93557V1.52458C18.0732 1.09724 18.4261 0.754294 18.8533 0.766583L21.5758 0.844906C22.607 0.874571 23.6304 1.03294 24.6223 1.31634L27.251 2.06739C27.451 2.12456 27.6438 2.20474 27.8255 2.30633C29.8675 3.44848 30.8976 5.81188 30.3443 8.08527L29.8271 10.2105L27.9561 8.92427C27.3529 8.50957 26.6929 8.1844 25.9965 7.95886L24.2661 7.39845L22.6665 7.07885C21.6702 6.8798 20.6595 6.76116 19.6442 6.72408L18.8038 6.69338C18.396 6.67848 18.0732 6.3436 18.0732 5.93557Z" fill="#1782CF"/>
<path d="M0.167424 20.1423L0.290821 21.1048C0.515565 22.8578 1.11692 24.5414 2.05361 26.0401C2.33449 26.4895 2.87849 26.6993 3.38838 26.5548L8.83574 25.0114C9.47763 24.8295 9.77052 24.0868 9.42552 23.5158L8.27827 21.6168L7.91624 19.8469C7.79593 19.2587 7.27841 18.8363 6.67802 18.8363H1.3166C0.618248 18.8363 0.0786189 19.4496 0.167424 20.1423Z" fill="#081D2C"/>
<path d="M0.167424 20.1423L0.290821 21.1048C0.515565 22.8578 1.11692 24.5414 2.05361 26.0401C2.33449 26.4895 2.87849 26.6993 3.38838 26.5548L8.83574 25.0114C9.47763 24.8295 9.77052 24.0868 9.42552 23.5158L8.27827 21.6168L7.91624 19.8469C7.79593 19.2587 7.27841 18.8363 6.67802 18.8363H1.3166C0.618248 18.8363 0.0786189 19.4496 0.167424 20.1423Z" fill="#1782CF"/>
<path fill-rule="evenodd" clip-rule="evenodd" d="M32.4812 5.56584C32.9856 6.07028 33.5362 6.52635 34.1257 6.92806C33.5362 6.52635 32.9856 6.07028 32.4812 5.56584Z" fill="#081D2C"/>
<path fill-rule="evenodd" clip-rule="evenodd" d="M32.4812 5.56584C32.9856 6.07028 33.5362 6.52635 34.1257 6.92806C33.5362 6.52635 32.9856 6.07028 32.4812 5.56584Z" fill="#1782CF"/>
<path d="M53.8404 10.1157L47.5211 16.0559L34.1257 6.92806C33.5362 6.52635 32.9856 6.07028 32.4812 5.56584C31.0395 7.69394 31.6809 10.5961 33.885 11.9186C33.885 11.9186 33.6186 8.92427 38.6177 13.2921C40.8694 15.2596 42.258 16.4513 43.1042 17.1669C43.935 17.8696 44.8227 18.4939 45.7444 19.0722L47.2555 20.0203C47.4494 20.142 47.7009 20.1181 47.8685 19.9622L50.3016 17.6989L57 10.6213L53.8404 10.1157Z" fill="#1782CF"/>
<path d="M53.8404 10.1157L47.5211 16.0559L34.1257 6.92806C33.5362 6.52635 32.9856 6.07028 32.4812 5.56584C31.0395 7.69394 31.6809 10.5961 33.885 11.9186C33.885 11.9186 33.6186 8.92427 38.6177 13.2921C40.8694 15.2596 42.258 16.4513 43.1042 17.1669C43.935 17.8696 44.8227 18.4939 45.7444 19.0722L47.2555 20.0203C47.4494 20.142 47.7009 20.1181 47.8685 19.9622L50.3016 17.6989L57 10.6213L53.8404 10.1157Z" fill="#081D2C"/>
<path fill-rule="evenodd" clip-rule="evenodd" d="M46.0044 24.7133C46.0044 24.9184 45.9379 25.118 45.8149 25.282C45.9379 25.118 46.0044 24.9184 46.0044 24.7133ZM46.1093 20.2732C47.1252 20.7247 48.2882 20.7077 49.2905 20.2266C48.2882 20.7077 47.1252 20.7247 46.1093 20.2732ZM49.48 25.282C49.357 25.118 49.2905 24.9184 49.2905 24.7133C49.2905 24.9184 49.357 25.118 49.48 25.282Z" fill="#081D2C"/>
<path fill-rule="evenodd" clip-rule="evenodd" d="M46.0044 24.7133C46.0044 24.9184 45.9379 25.118 45.8149 25.282C45.9379 25.118 46.0044 24.9184 46.0044 24.7133ZM46.1093 20.2732C47.1252 20.7247 48.2882 20.7077 49.2905 20.2266C48.2882 20.7077 47.1252 20.7247 46.1093 20.2732ZM49.48 25.282C49.357 25.118 49.2905 24.9184 49.2905 24.7133C49.2905 24.9184 49.357 25.118 49.48 25.282Z" fill="#1782CF"/>
<path d="M45.6253 34.2554H49.6696V25.8508C49.6696 25.6457 49.6031 25.4461 49.48 25.282C49.357 25.118 49.2905 24.9184 49.2905 24.7133V20.2266C48.2882 20.7077 47.1252 20.7247 46.1093 20.2732L46.0044 20.2266V24.7133C46.0044 24.9184 45.9379 25.118 45.8149 25.282C45.6918 25.4461 45.6253 25.6457 45.6253 25.8508V34.2554Z" fill="#1782CF"/>
<path d="M45.6253 34.2554H49.6696V25.8508C49.6696 25.6457 49.6031 25.4461 49.48 25.282C49.357 25.118 49.2905 24.9184 49.2905 24.7133V20.2266C48.2882 20.7077 47.1252 20.7247 46.1093 20.2732L46.0044 20.2266V24.7133C46.0044 24.9184 45.9379 25.118 45.8149 25.282C45.6918 25.4461 45.6253 25.6457 45.6253 25.8508V34.2554Z" fill="#081D2C"/>
<ellipse cx="46.5099" cy="9.3574" rx="3.03326" ry="3.15965" fill="#FFFF00"/>
<path d="M87.104 26.288C85.776 26.288 84.552 26.08 83.432 25.664C82.328 25.232 81.36 24.624 80.528 23.84C79.712 23.056 79.072 22.136 78.608 21.08C78.16 20.024 77.936 18.864 77.936 17.6C77.936 16.336 78.16 15.176 78.608 14.12C79.072 13.064 79.72 12.144 80.552 11.36C81.384 10.576 82.36 9.976 83.48 9.56C84.6 9.128 85.832 8.912 87.176 8.912C88.664 8.912 90 9.16 91.184 9.656C92.384 10.152 93.392 10.872 94.208 11.816L91.712 14.12C91.104 13.48 90.44 13.008 89.72 12.704C89 12.384 88.216 12.224 87.368 12.224C86.552 12.224 85.808 12.352 85.136 12.608C84.464 12.864 83.88 13.232 83.384 13.712C82.904 14.192 82.528 14.76 82.256 15.416C82 16.072 81.872 16.8 81.872 17.6C81.872 18.384 82 19.104 82.256 19.76C82.528 20.416 82.904 20.992 83.384 21.488C83.88 21.968 84.456 22.336 85.112 22.592C85.784 22.848 86.52 22.976 87.32 22.976C88.088 22.976 88.832 22.856 89.552 22.616C90.288 22.36 91 21.936 91.688 21.344L93.896 24.152C92.984 24.84 91.92 25.368 90.704 25.736C89.504 26.104 88.304 26.288 87.104 26.288ZM90.344 23.648V17.336H93.896V24.152L90.344 23.648ZM105.668 26.288C104.34 26.288 103.108 26.072 101.972 25.64C100.852 25.208 99.8756 24.6 99.0436 23.816C98.2276 23.032 97.5876 22.112 97.1236 21.056C96.6756 20 96.4516 18.848 96.4516 17.6C96.4516 16.352 96.6756 15.2 97.1236 14.144C97.5876 13.088 98.2356 12.168 99.0676 11.384C99.8996 10.6 100.876 9.992 101.996 9.56C103.116 9.128 104.332 8.912 105.644 8.912C106.972 8.912 108.188 9.128 109.292 9.56C110.412 9.992 111.38 10.6 112.196 11.384C113.028 12.168 113.676 13.088 114.14 14.144C114.604 15.184 114.836 16.336 114.836 17.6C114.836 18.848 114.604 20.008 114.14 21.08C113.676 22.136 113.028 23.056 112.196 23.84C111.38 24.608 110.412 25.208 109.292 25.64C108.188 26.072 106.98 26.288 105.668 26.288ZM105.644 22.976C106.396 22.976 107.084 22.848 107.708 22.592C108.348 22.336 108.908 21.968 109.388 21.488C109.868 21.008 110.236 20.44 110.492 19.784C110.764 19.128 110.9 18.4 110.9 17.6C110.9 16.8 110.764 16.072 110.492 15.416C110.236 14.76 109.868 14.192 109.388 13.712C108.924 13.232 108.372 12.864 107.732 12.608C107.092 12.352 106.396 12.224 105.644 12.224C104.892 12.224 104.196 12.352 103.556 12.608C102.932 12.864 102.38 13.232 101.9 13.712C101.42 14.192 101.044 14.76 100.772 15.416C100.516 16.072 100.388 16.8 100.388 17.6C100.388 18.384 100.516 19.112 100.772 19.784C101.044 20.44 101.412 21.008 101.876 21.488C102.356 21.968 102.916 22.336 103.556 22.592C104.196 22.848 104.892 22.976 105.644 22.976ZM121.207 26V19.136L122.095 21.488L114.703 9.2H118.831L124.495 18.632H122.119L127.807 9.2H131.623L124.231 21.488L125.095 19.136V26H121.207ZM195.307 26L202.795 9.2H206.635L214.147 26H210.067L203.923 11.168H205.459L199.291 26H195.307ZM199.051 22.4L200.083 19.448H208.723L209.779 22.4H199.051Z" fill="#E97D26"/>
<path d="M137.7 26.192C136.324 26.192 135.1 25.904 134.028 25.328C132.972 24.752 132.132 23.968 131.508 22.976C130.9 21.968 130.596 20.824 130.596 19.544C130.596 18.248 130.9 17.104 131.508 16.112C132.132 15.104 132.972 14.32 134.028 13.76C135.1 13.184 136.324 12.896 137.7 12.896C139.06 12.896 140.276 13.184 141.348 13.76C142.42 14.32 143.26 15.096 143.868 16.088C144.476 17.08 144.78 18.232 144.78 19.544C144.78 20.824 144.476 21.968 143.868 22.976C143.26 23.968 142.42 24.752 141.348 25.328C140.276 25.904 139.06 26.192 137.7 26.192ZM137.7 23.12C138.324 23.12 138.884 22.976 139.38 22.688C139.876 22.4 140.268 21.992 140.556 21.464C140.844 20.92 140.988 20.28 140.988 19.544C140.988 18.792 140.844 18.152 140.556 17.624C140.268 17.096 139.876 16.688 139.38 16.4C138.884 16.112 138.324 15.968 137.7 15.968C137.076 15.968 136.516 16.112 136.02 16.4C135.524 16.688 135.124 17.096 134.82 17.624C134.532 18.152 134.388 18.792 134.388 19.544C134.388 20.28 134.532 20.92 134.82 21.464C135.124 21.992 135.524 22.4 136.02 22.688C136.516 22.976 137.076 23.12 137.7 23.12ZM152.731 26.192C151.659 26.192 150.699 25.984 149.851 25.568C149.019 25.152 148.371 24.52 147.907 23.672C147.443 22.808 147.211 21.712 147.211 20.384V13.088H150.955V19.832C150.955 20.904 151.179 21.696 151.627 22.208C152.091 22.704 152.739 22.952 153.571 22.952C154.147 22.952 154.659 22.832 155.107 22.592C155.555 22.336 155.907 21.952 156.163 21.44C156.419 20.912 156.547 20.256 156.547 19.472V13.088H160.291V26H156.739V22.448L157.387 23.48C156.955 24.376 156.315 25.056 155.467 25.52C154.635 25.968 153.723 26.192 152.731 26.192ZM171.607 12.896C172.631 12.896 173.543 13.104 174.343 13.52C175.159 13.92 175.799 14.544 176.263 15.392C176.727 16.224 176.959 17.296 176.959 18.608V26H173.215V19.184C173.215 18.144 172.983 17.376 172.519 16.88C172.071 16.384 171.431 16.136 170.599 16.136C170.007 16.136 169.471 16.264 168.991 16.52C168.527 16.76 168.159 17.136 167.887 17.648C167.631 18.16 167.503 18.816 167.503 19.616V26H163.759V13.088H167.335V16.664L166.663 15.584C167.127 14.72 167.791 14.056 168.655 13.592C169.519 13.128 170.503 12.896 171.607 12.896ZM186.519 30.848C185.303 30.848 184.127 30.696 182.991 30.392C181.871 30.104 180.935 29.664 180.183 29.072L181.671 26.384C182.215 26.832 182.903 27.184 183.735 27.44C184.583 27.712 185.415 27.848 186.231 27.848C187.559 27.848 188.519 27.552 189.111 26.96C189.719 26.368 190.023 25.488 190.023 24.32V22.376L190.263 19.136L190.215 15.872V13.088H193.767V23.84C193.767 26.24 193.143 28.008 191.895 29.144C190.647 30.28 188.855 30.848 186.519 30.848ZM185.943 25.376C184.743 25.376 183.655 25.12 182.679 24.608C181.719 24.08 180.943 23.352 180.351 22.424C179.775 21.48 179.487 20.384 179.487 19.136C179.487 17.872 179.775 16.776 180.351 15.848C180.943 14.904 181.719 14.176 182.679 13.664C183.655 13.152 184.743 12.896 185.943 12.896C187.031 12.896 187.991 13.12 188.823 13.568C189.655 14 190.303 14.68 190.767 15.608C191.231 16.52 191.463 17.696 191.463 19.136C191.463 20.56 191.231 21.736 190.767 22.664C190.303 23.576 189.655 24.256 188.823 24.704C187.991 25.152 187.031 25.376 185.943 25.376ZM186.687 22.304C187.343 22.304 187.927 22.176 188.439 21.92C188.951 21.648 189.351 21.272 189.639 20.792C189.927 20.312 190.071 19.76 190.071 19.136C190.071 18.496 189.927 17.944 189.639 17.48C189.351 17 188.951 16.632 188.439 16.376C187.927 16.104 187.343 15.968 186.687 15.968C186.031 15.968 185.447 16.104 184.935 16.376C184.423 16.632 184.015 17 183.711 17.48C183.423 17.944 183.279 18.496 183.279 19.136C183.279 19.76 183.423 20.312 183.711 20.792C184.015 21.272 184.423 21.648 184.935 21.92C185.447 22.176 186.031 22.304 186.687 22.304ZM216.082 26V12.8C216.082 11.344 216.514 10.184 217.378 9.32C218.242 8.44 219.474 8 221.074 8C221.618 8 222.138 8.056 222.634 8.168C223.146 8.28 223.578 8.456 223.93 8.696L222.946 11.408C222.738 11.264 222.506 11.152 222.25 11.072C221.994 10.992 221.722 10.952 221.434 10.952C220.89 10.952 220.466 11.112 220.162 11.432C219.874 11.736 219.73 12.2 219.73 12.824V14.024L219.826 15.632V26H216.082ZM214.09 16.256V13.376H223.042V16.256H214.09ZM225.001 26V13.088H228.577V16.736L228.073 15.68C228.457 14.768 229.073 14.08 229.921 13.616C230.769 13.136 231.801 12.896 233.017 12.896V16.352C232.857 16.336 232.713 16.328 232.585 16.328C232.457 16.312 232.321 16.304 232.177 16.304C231.153 16.304 230.321 16.6 229.681 17.192C229.057 17.768 228.745 18.672 228.745 19.904V26H225.001ZM235.267 26V13.088H239.011V26H235.267ZM237.139 11.288C236.451 11.288 235.891 11.088 235.459 10.688C235.027 10.288 234.811 9.792 234.811 9.2C234.811 8.608 235.027 8.112 235.459 7.712C235.891 7.312 236.451 7.112 237.139 7.112C237.827 7.112 238.387 7.304 238.819 7.688C239.251 8.056 239.467 8.536 239.467 9.128C239.467 9.752 239.251 10.272 238.819 10.688C238.403 11.088 237.843 11.288 237.139 11.288ZM248.726 26.192C247.334 26.192 246.094 25.912 245.006 25.352C243.918 24.776 243.062 23.984 242.438 22.976C241.83 21.968 241.526 20.824 241.526 19.544C241.526 18.248 241.83 17.104 242.438 16.112C243.062 15.104 243.918 14.32 245.006 13.76C246.094 13.184 247.334 12.896 248.726 12.896C250.086 12.896 251.27 13.184 252.278 13.76C253.286 14.32 254.03 15.128 254.51 16.184L251.606 17.744C251.27 17.136 250.846 16.688 250.334 16.4C249.838 16.112 249.294 15.968 248.702 15.968C248.062 15.968 247.486 16.112 246.974 16.4C246.462 16.688 246.054 17.096 245.75 17.624C245.462 18.152 245.318 18.792 245.318 19.544C245.318 20.296 245.462 20.936 245.75 21.464C246.054 21.992 246.462 22.4 246.974 22.688C247.486 22.976 248.062 23.12 248.702 23.12C249.294 23.12 249.838 22.984 250.334 22.712C250.846 22.424 251.27 21.968 251.606 21.344L254.51 22.928C254.03 23.968 253.286 24.776 252.278 25.352C251.27 25.912 250.086 26.192 248.726 26.192ZM264.586 26V23.48L264.346 22.928V18.416C264.346 17.616 264.098 16.992 263.602 16.544C263.122 16.096 262.378 15.872 261.37 15.872C260.682 15.872 260.002 15.984 259.33 16.208C258.674 16.416 258.114 16.704 257.65 17.072L256.306 14.456C257.01 13.96 257.858 13.576 258.85 13.304C259.842 13.032 260.85 12.896 261.874 12.896C263.842 12.896 265.37 13.36 266.458 14.288C267.546 15.216 268.09 16.664 268.09 18.632V26H264.586ZM260.65 26.192C259.642 26.192 258.778 26.024 258.058 25.688C257.338 25.336 256.786 24.864 256.402 24.272C256.018 23.68 255.826 23.016 255.826 22.28C255.826 21.512 256.01 20.84 256.378 20.264C256.762 19.688 257.362 19.24 258.178 18.92C258.994 18.584 260.058 18.416 261.37 18.416H264.802V20.6H261.778C260.898 20.6 260.29 20.744 259.954 21.032C259.634 21.32 259.474 21.68 259.474 22.112C259.474 22.592 259.658 22.976 260.026 23.264C260.41 23.536 260.93 23.672 261.586 23.672C262.21 23.672 262.77 23.528 263.266 23.24C263.762 22.936 264.122 22.496 264.346 21.92L264.922 23.648C264.65 24.48 264.154 25.112 263.434 25.544C262.714 25.976 261.786 26.192 260.65 26.192Z" fill="#1782CF"/>
<path d="M0 60.1168V46.2554H2.01579L7.78058 56.3742H6.72558L12.3962 46.2554H14.412L14.4308 60.1168H12.1136L12.0947 50.0772H12.5846L7.76174 58.5326H6.66907L1.77088 50.0772H2.33606V60.1168H0ZM22.4955 60.2554C21.3777 60.2554 20.398 60.0247 19.5566 59.5623C18.7276 59.0871 18.0808 58.4405 17.6161 57.6217C17.164 56.8029 16.9379 55.8722 16.9379 54.8296C16.9379 53.7732 17.1577 52.8425 17.5973 52.0375C18.0494 51.2187 18.6648 50.5791 19.4435 50.1168C20.2348 49.6544 21.1327 49.4237 22.1375 49.4237C23.1172 49.4237 23.99 49.6484 24.7562 50.097C25.5223 50.5455 26.1251 51.1791 26.5647 51.9979C27.0043 52.8168 27.2241 53.7801 27.2241 54.889C27.2241 54.995 27.2178 55.1138 27.2053 55.2455C27.2053 55.3772 27.199 55.5029 27.1864 55.6217H18.803V53.9781H25.943L25.0199 54.493C25.0325 53.8861 24.9131 53.3514 24.662 52.889C24.4108 52.4267 24.0653 52.0643 23.6258 51.7999C23.1987 51.5356 22.7027 51.4039 22.1375 51.4039C21.5597 51.4039 21.0511 51.5356 20.6116 51.7999C20.1845 52.0643 19.8454 52.4336 19.5942 52.9088C19.3556 53.3712 19.2363 53.9187 19.2363 54.5524V54.9484C19.2363 55.5821 19.3744 56.1435 19.6508 56.6316C19.927 57.1197 20.3164 57.496 20.8188 57.7603C21.3211 58.0247 21.8988 58.1564 22.552 58.1564C23.1172 58.1564 23.6258 58.0643 24.078 57.8791C24.5301 57.694 24.932 57.4039 25.2837 57.0078L26.5459 58.5326C26.0938 59.087 25.5223 59.5158 24.8315 59.8197C24.1533 60.1098 23.3746 60.2554 22.4955 60.2554ZM35.1944 49.4237C35.9982 49.4237 36.7141 49.589 37.3421 49.9187C37.9826 50.2484 38.4849 50.7574 38.8492 51.4435C39.2134 52.1168 39.3955 52.988 39.3955 54.0574V60.1168H37.0406V54.3742C37.0406 53.4366 36.8271 52.7376 36.4001 52.2752C35.9856 51.8128 35.4016 51.5821 34.6481 51.5821C34.0954 51.5821 33.6056 51.7009 33.1786 51.9385C32.7515 52.1762 32.4187 52.5326 32.1801 53.0079C31.9541 53.4702 31.841 54.0574 31.841 54.7702V60.1168H29.4861V49.5425H31.728V52.394L31.3324 51.5227C31.684 50.8494 32.1927 50.3346 32.8583 49.9781C33.5366 49.6088 34.3152 49.4237 35.1944 49.4237ZM46.1695 60.2554C45.0642 60.2554 44.2103 59.9583 43.6074 59.3643C43.0046 58.7574 42.7031 57.8663 42.7031 56.691V47.2059H45.058V56.6316C45.058 57.1336 45.1773 57.5227 45.416 57.7999C45.6671 58.0772 46.0125 58.2158 46.4521 58.2158C46.9796 58.2158 47.4191 58.0702 47.7709 57.7801L48.4302 59.5425C48.1539 59.7801 47.8148 59.9583 47.4129 60.0772C47.011 60.196 46.5965 60.2554 46.1695 60.2554ZM41.0453 51.6019V49.6217H47.752V51.6019H41.0453ZM54.5577 60.2554C53.5277 60.2554 52.6109 60.0247 51.8072 59.5623C51.0033 59.0871 50.3691 58.4405 49.9044 57.6217C49.4396 56.8029 49.2074 55.8722 49.2074 54.8296C49.2074 53.7732 49.4396 52.8425 49.9044 52.0375C50.3691 51.2187 51.0033 50.5791 51.8072 50.1168C52.6109 49.6544 53.5277 49.4237 54.5577 49.4237C55.6001 49.4237 56.5232 49.6544 57.3267 50.1168C58.1433 50.5791 58.7773 51.2128 59.2294 52.0178C59.6947 52.8227 59.9265 53.7603 59.9265 54.8296C59.9265 55.8722 59.6947 56.8029 59.2294 57.6217C58.7773 58.4405 58.1433 59.0871 57.3267 59.5623C56.5232 60.0247 55.6001 60.2554 54.5577 60.2554ZM54.5577 58.1366C55.1354 58.1366 55.6504 58.0049 56.1021 57.7405C56.5543 57.4762 56.9065 57.094 57.1571 56.592C57.4209 56.09 57.5527 55.5029 57.5527 54.8296C57.5527 54.1435 57.4209 53.5554 57.1571 53.0673C56.9065 52.5653 56.5543 52.1831 56.1021 51.9187C55.6504 51.6544 55.1417 51.5227 54.5765 51.5227C53.9987 51.5227 53.4838 51.6544 53.0317 51.9187C52.5921 52.1831 52.2405 52.5653 51.9767 53.0673C51.713 53.5554 51.5811 54.1435 51.5811 54.8296C51.5811 55.5029 51.713 56.09 51.9767 56.592C52.2405 57.094 52.5921 57.4762 53.0317 57.7405C53.4838 58.0049 53.9925 58.1366 54.5577 58.1366ZM62.1787 60.1168V49.5425H64.4206V52.4534L64.1568 51.6019C64.4582 50.889 64.9292 50.3474 65.5697 49.9781C66.2225 49.6088 67.0326 49.4237 68 49.4237V51.7801C67.8992 51.7534 67.805 51.7405 67.7174 51.7405C67.6298 51.7276 67.5413 51.7207 67.4537 51.7207C66.5616 51.7207 65.8523 51.9979 65.3248 52.5524C64.7973 53.094 64.5336 53.9059 64.5336 54.9881V60.1168H62.1787Z" fill="#1782CF"/>
<path d="M74 60.1296V47.5493H78.8566C79.9021 47.5493 80.7958 47.7291 81.5378 48.0885C82.291 48.4479 82.87 48.9631 83.2747 49.6341C83.6794 50.305 83.8818 51.1018 83.8818 52.0243C83.8818 52.9469 83.6794 53.7436 83.2747 54.4145C82.87 55.0855 82.291 55.6007 81.5378 55.9601C80.7958 56.3196 79.9021 56.4993 78.8566 56.4993H75.2141L76.1922 55.403V60.1296H74ZM76.1922 55.6546L75.2141 54.5224H78.7554C79.7222 54.5224 80.4473 54.3067 80.9307 53.8754C81.4254 53.4321 81.6727 52.8151 81.6727 52.0243C81.6727 51.2216 81.4254 50.6045 80.9307 50.1732C80.4473 49.7419 79.7222 49.5262 78.7554 49.5262H75.2141L76.1922 48.376V55.6546ZM91.3343 60.1296V58.1886L91.2162 57.7753V54.3786C91.2162 53.7196 91.0308 53.2104 90.6598 52.851C90.2888 52.4796 89.7267 52.2939 88.9735 52.2939C88.4676 52.2939 87.9673 52.3778 87.4726 52.5455C86.9892 52.7132 86.5789 52.9469 86.2416 53.2464L85.4154 51.611C85.8988 51.2156 86.4721 50.922 87.1354 50.7303C87.8099 50.5267 88.5069 50.4248 89.2264 50.4248C90.5305 50.4248 91.5367 50.7603 92.2449 51.4312C92.9644 52.0902 93.3241 53.1146 93.3241 54.5044V60.1296H91.3343ZM88.5013 60.2554C87.8268 60.2554 87.2366 60.1356 86.7307 59.8959C86.2248 59.6443 85.8313 59.3029 85.5503 58.8715C85.2804 58.4282 85.1455 57.931 85.1455 57.3799C85.1455 56.8407 85.2636 56.3555 85.4997 55.9242C85.747 55.4928 86.1461 55.1514 86.6969 54.8998C87.2478 54.6482 87.9785 54.5224 88.8891 54.5224H91.5029V56.014H89.0409C88.3214 56.014 87.838 56.1398 87.5907 56.3914C87.3434 56.6311 87.2197 56.9306 87.2197 57.29C87.2197 57.6974 87.3715 58.0209 87.675 58.2605C87.9785 58.5001 88.4001 58.6199 88.9397 58.6199C89.4569 58.6199 89.9178 58.4941 90.3225 58.2425C90.7385 57.9909 91.0364 57.6195 91.2162 57.1283L91.5704 58.4762C91.368 59.0393 91.0026 59.4766 90.4743 59.7881C89.9571 60.0996 89.2995 60.2554 88.5013 60.2554ZM98.8112 60.2554C98.058 60.2554 97.3329 60.1535 96.6358 59.9499C95.9501 59.7342 95.4048 59.4766 95.0001 59.1771L95.8096 57.4697C96.2143 57.7453 96.6977 57.973 97.2598 58.1527C97.8219 58.3324 98.384 58.4222 98.9461 58.4222C99.6094 58.4222 100.087 58.3264 100.379 58.1347C100.683 57.943 100.835 57.6854 100.835 57.3619C100.835 57.0983 100.734 56.9006 100.531 56.7688C100.329 56.6251 100.065 56.5172 99.7386 56.4453C99.4126 56.3735 99.0473 56.3076 98.6426 56.2477C98.2491 56.1878 97.85 56.1099 97.4453 56.014C97.0518 55.9062 96.6921 55.7564 96.366 55.5647C96.04 55.361 95.7758 55.0915 95.5735 54.756C95.3711 54.4205 95.2699 53.9772 95.2699 53.4261C95.2699 52.8151 95.4329 52.2879 95.759 51.8446C96.085 51.3893 96.5403 51.0418 97.1249 50.8022C97.7207 50.5506 98.4233 50.4248 99.2328 50.4248C99.8398 50.4248 100.453 50.4967 101.071 50.6405C101.689 50.7843 102.201 50.9879 102.605 51.2515L101.796 52.9588C101.369 52.6833 100.936 52.4976 100.497 52.4017C100.07 52.2939 99.6431 52.24 99.2159 52.24C98.5751 52.24 98.0973 52.3418 97.7825 52.5455C97.479 52.7492 97.3272 53.0067 97.3272 53.3183C97.3272 53.6058 97.4284 53.8215 97.6308 53.9653C97.8331 54.109 98.0973 54.2228 98.4233 54.3067C98.7493 54.3906 99.1091 54.4625 99.5026 54.5224C99.9073 54.5703 100.306 54.6482 100.7 54.756C101.093 54.8638 101.453 55.0136 101.779 55.2053C102.116 55.385 102.386 55.6426 102.588 55.9781C102.791 56.3136 102.892 56.7509 102.892 57.29C102.892 57.8891 102.723 58.4103 102.386 58.8536C102.06 59.2969 101.594 59.6443 100.987 59.8959C100.379 60.1356 99.6543 60.2554 98.8112 60.2554ZM107.49 60.2554C106.737 60.2554 106.012 60.1535 105.315 59.9499C104.629 59.7342 104.084 59.4766 103.679 59.1771L104.488 57.4697C104.893 57.7453 105.377 57.973 105.939 58.1527C106.501 58.3324 107.063 58.4222 107.625 58.4222C108.288 58.4222 108.766 58.3264 109.058 58.1347C109.362 57.943 109.514 57.6854 109.514 57.3619C109.514 57.0983 109.412 56.9006 109.21 56.7688C109.008 56.6251 108.744 56.5172 108.417 56.4453C108.091 56.3735 107.726 56.3076 107.321 56.2477C106.928 56.1878 106.529 56.1099 106.124 56.014C105.731 55.9062 105.371 55.7564 105.045 55.5647C104.719 55.361 104.455 55.0915 104.252 54.756C104.05 54.4205 103.949 53.9772 103.949 53.4261C103.949 52.8151 104.112 52.2879 104.438 51.8446C104.764 51.3893 105.219 51.0418 105.804 50.8022C106.4 50.5506 107.102 50.4248 107.912 50.4248C108.519 50.4248 109.131 50.4967 109.75 50.6405C110.368 50.7843 110.88 50.9879 111.284 51.2515L110.475 52.9588C110.048 52.6833 109.615 52.4976 109.176 52.4017C108.749 52.2939 108.322 52.24 107.895 52.24C107.254 52.24 106.776 52.3418 106.461 52.5455C106.158 52.7492 106.006 53.0067 106.006 53.3183C106.006 53.6058 106.107 53.8215 106.31 53.9653C106.512 54.109 106.776 54.2228 107.102 54.3067C107.428 54.3906 107.788 54.4625 108.181 54.5224C108.586 54.5703 108.985 54.6482 109.379 54.756C109.772 54.8638 110.132 55.0136 110.458 55.2053C110.795 55.385 111.065 55.6426 111.267 55.9781C111.47 56.3136 111.571 56.7509 111.571 57.29C111.571 57.8891 111.402 58.4103 111.065 58.8536C110.739 59.2969 110.272 59.6443 109.665 59.8959C109.058 60.1356 108.333 60.2554 107.49 60.2554ZM113.386 60.1296V50.5326H115.494V60.1296H113.386ZM114.449 48.9511C114.055 48.9511 113.729 48.8193 113.471 48.5558C113.223 48.2922 113.1 47.9747 113.1 47.6032C113.1 47.2198 113.223 46.9024 113.471 46.6507C113.729 46.3872 114.055 46.2554 114.449 46.2554C114.842 46.2554 115.163 46.3812 115.41 46.6328C115.669 46.8724 115.798 47.1779 115.798 47.5493C115.798 47.9447 115.674 48.2802 115.427 48.5558C115.18 48.8193 114.854 48.9511 114.449 48.9511ZM122.308 60.2554C121.386 60.2554 120.565 60.0457 119.846 59.6264C119.126 59.195 118.559 58.6079 118.143 57.8651C117.727 57.1223 117.519 56.2776 117.519 55.3311C117.519 54.3726 117.727 53.5279 118.143 52.7971C118.559 52.0543 119.126 51.4732 119.846 51.0538C120.565 50.6345 121.386 50.4248 122.308 50.4248C123.241 50.4248 124.067 50.6345 124.787 51.0538C125.518 51.4732 126.085 52.0483 126.49 52.7791C126.906 53.51 127.114 54.3606 127.114 55.3311C127.114 56.2776 126.906 57.1223 126.49 57.8651C126.085 58.6079 125.518 59.195 124.787 59.6264C124.067 60.0457 123.241 60.2554 122.308 60.2554ZM122.308 58.3324C122.825 58.3324 123.286 58.2126 123.691 57.9729C124.095 57.7333 124.41 57.3859 124.635 56.9306C124.871 56.4753 124.989 55.9421 124.989 55.3311C124.989 54.7081 124.871 54.1749 124.635 53.7316C124.41 53.2763 124.095 52.9289 123.691 52.6893C123.286 52.4496 122.831 52.3298 122.325 52.3298C121.808 52.3298 121.347 52.4496 120.942 52.6893C120.549 52.9289 120.234 53.2763 119.998 53.7316C119.762 54.1749 119.644 54.7081 119.644 55.3311C119.644 55.9421 119.762 56.4753 119.998 56.9306C120.234 57.3859 120.549 57.7333 120.942 57.9729C121.347 58.2126 121.802 58.3324 122.308 58.3324ZM134.24 50.4248C134.959 50.4248 135.6 50.5746 136.162 50.8741C136.735 51.1736 137.185 51.6349 137.511 52.2579C137.837 52.869 138 53.6597 138 54.6302V60.1296H135.892V54.9178C135.892 54.0671 135.701 53.4321 135.319 53.0127C134.948 52.5934 134.425 52.3837 133.75 52.3837C133.256 52.3837 132.817 52.4916 132.435 52.7072C132.053 52.9229 131.755 53.2464 131.541 53.6777C131.339 54.097 131.238 54.6302 131.238 55.2772V60.1296H129.13V50.5326H131.137V53.1206L130.783 52.3298C131.097 51.7188 131.553 51.2515 132.149 50.928C132.756 50.5925 133.453 50.4248 134.24 50.4248Z" fill="#2B8049"/>
<path d="M149.74 60.2554C147.945 60.2554 146.536 59.7029 145.515 58.5981C144.505 57.4932 144 55.8973 144 53.8104V45.7285H146.431V53.7081C146.431 55.1812 146.718 56.2523 147.291 56.9203C147.877 57.5884 148.7 57.9229 149.759 57.9229C150.818 57.9229 151.635 57.5884 152.208 56.9203C152.782 56.2523 153.069 55.1812 153.069 53.7081V45.7285H155.462V53.8104C155.462 55.8973 154.951 57.4932 153.929 58.5981C152.919 59.7029 151.523 60.2554 149.74 60.2554ZM164.307 49.0022C165.106 49.0022 165.816 49.173 166.439 49.5137C167.074 49.8543 167.574 50.3802 167.935 51.0891C168.296 51.7848 168.477 52.685 168.477 53.7899V60.0508H166.14V54.1173C166.14 53.1485 165.928 52.4262 165.504 51.9485C165.092 51.4707 164.513 51.2324 163.765 51.2324C163.217 51.2324 162.731 51.3551 162.306 51.6006C161.883 51.8462 161.553 52.2145 161.315 52.7055C161.091 53.1833 160.979 53.7899 160.979 54.5265V60.0508H158.642V49.1249H160.867V52.0712L160.474 51.171C160.824 50.4753 161.329 49.9433 161.989 49.5751C162.662 49.1935 163.435 49.0022 164.307 49.0022ZM171.442 60.0508V44.8692H173.78V60.0508H171.442ZM181.335 60.194C180.313 60.194 179.402 59.9556 178.605 59.4779C177.807 58.9868 177.177 58.3188 176.716 57.4728C176.255 56.6267 176.024 55.6651 176.024 54.5879C176.024 53.4963 176.255 52.5347 176.716 51.7029C177.177 50.8569 177.807 50.196 178.605 49.7183C179.402 49.2405 180.313 49.0022 181.335 49.0022C182.37 49.0022 183.286 49.2405 184.083 49.7183C184.894 50.196 185.523 50.8508 185.972 51.6825C186.433 52.5142 186.664 53.483 186.664 54.5879C186.664 55.6651 186.433 56.6267 185.972 57.4728C185.523 58.3188 184.894 58.9868 184.083 59.4779C183.286 59.9556 182.37 60.194 181.335 60.194ZM181.335 58.0047C181.908 58.0047 182.419 57.8687 182.868 57.5955C183.317 57.3224 183.665 56.9275 183.915 56.4088C184.177 55.8902 184.308 55.2835 184.308 54.5879C184.308 53.8789 184.177 53.2712 183.915 52.7669C183.665 52.2482 183.317 51.8533 182.868 51.5802C182.419 51.307 181.914 51.171 181.353 51.171C180.78 51.171 180.269 51.307 179.82 51.5802C179.383 51.8533 179.035 52.2482 178.773 52.7669C178.511 53.2712 178.38 53.8789 178.38 54.5879C178.38 55.2835 178.511 55.8902 178.773 56.4088C179.035 56.9275 179.383 57.3224 179.82 57.5955C180.269 57.8687 180.774 58.0047 181.335 58.0047ZM193.48 60.194C192.433 60.194 191.498 59.9556 190.675 59.4779C189.865 58.9868 189.229 58.3188 188.768 57.4728C188.306 56.6267 188.076 55.6651 188.076 54.5879C188.076 53.4963 188.306 52.5347 188.768 51.7029C189.229 50.8569 189.865 50.196 190.675 49.7183C191.498 49.2405 192.433 49.0022 193.48 49.0022C194.452 49.0022 195.306 49.2201 196.042 49.6569C196.79 50.0794 197.356 50.7075 197.743 51.5393L195.948 52.685C195.649 52.1664 195.281 51.7848 194.845 51.5393C194.42 51.2937 193.96 51.171 193.461 51.171C192.887 51.171 192.37 51.307 191.909 51.5802C191.447 51.8533 191.087 52.2482 190.825 52.7669C190.563 53.2712 190.432 53.8789 190.432 54.5879C190.432 55.2968 190.563 55.9106 190.825 56.4293C191.087 56.9336 191.447 57.3224 191.909 57.5955C192.37 57.8687 192.887 58.0047 193.461 58.0047C193.96 58.0047 194.42 57.882 194.845 57.6364C195.281 57.3909 195.649 57.0093 195.948 56.4907L197.743 57.6364C197.356 58.4549 196.79 59.0891 196.042 59.5393C195.306 59.9761 194.452 60.194 193.48 60.194ZM201.579 57.616L201.635 54.4037L206.852 49.1249H209.657L205.225 53.9945L203.991 55.1198L201.579 57.616ZM199.672 60.0508V44.8692H202.009V60.0508H199.672ZM207.207 60.0508L203.561 55.1198L205.038 53.0738L210.049 60.0508H207.207ZM211.784 60.0508V45.7285H214.214V60.0508H211.784ZM223.196 49.0022C223.993 49.0022 224.704 49.173 225.328 49.5137C225.963 49.8543 226.462 50.3802 226.823 51.0891C227.184 51.7848 227.366 52.685 227.366 53.7899V60.0508H225.028V54.1173C225.028 53.1485 224.816 52.4262 224.393 51.9485C223.981 51.4707 223.402 51.2324 222.654 51.2324C222.105 51.2324 221.619 51.3551 221.195 51.6006C220.771 51.8462 220.441 52.2145 220.204 52.7055C219.98 53.1833 219.868 53.7899 219.868 54.5265V60.0508H217.53V49.1249H219.756V52.0712L219.363 51.171C219.712 50.4753 220.216 49.9433 220.877 49.5751C221.551 49.1935 222.323 49.0022 223.196 49.0022ZM235.996 49.0022C236.793 49.0022 237.504 49.173 238.127 49.5137C238.763 49.8543 239.261 50.3802 239.623 51.0891C239.985 51.7848 240.165 52.685 240.165 53.7899V60.0508H237.828V54.1173C237.828 53.1485 237.616 52.4262 237.192 51.9485C236.781 51.4707 236.201 51.2324 235.454 51.2324C234.905 51.2324 234.419 51.3551 233.995 51.6006C233.572 51.8462 233.241 52.2145 233.004 52.7055C232.78 53.1833 232.668 53.7899 232.668 54.5265V60.0508H230.33V49.1249H232.555V52.0712L232.163 51.171C232.511 50.4753 233.016 49.9433 233.677 49.5751C234.35 49.1935 235.124 49.0022 235.996 49.0022ZM247.636 60.194C246.614 60.194 245.704 59.9556 244.906 59.4779C244.109 58.9868 243.479 58.3188 243.018 57.4728C242.557 56.6267 242.326 55.6651 242.326 54.5879C242.326 53.4963 242.557 52.5347 243.018 51.7029C243.479 50.8569 244.109 50.196 244.906 49.7183C245.704 49.2405 246.614 49.0022 247.636 49.0022C248.671 49.0022 249.587 49.2405 250.385 49.7183C251.196 50.196 251.825 50.8508 252.273 51.6825C252.734 52.5142 252.965 53.483 252.965 54.5879C252.965 55.6651 252.734 56.6267 252.273 57.4728C251.825 58.3188 251.196 58.9868 250.385 59.4779C249.587 59.9556 248.671 60.194 247.636 60.194ZM247.636 58.0047C248.209 58.0047 248.721 57.8687 249.17 57.5955C249.618 57.3224 249.967 56.9275 250.217 56.4088C250.478 55.8902 250.609 55.2835 250.609 54.5879C250.609 53.8789 250.478 53.2712 250.217 52.7669C249.967 52.2482 249.618 51.8533 249.17 51.5802C248.721 51.307 248.216 51.171 247.655 51.171C247.082 51.171 246.571 51.307 246.122 51.5802C245.685 51.8533 245.336 52.2482 245.075 52.7669C244.813 53.2712 244.682 53.8789 244.682 54.5879C244.682 55.2835 244.813 55.8902 245.075 56.4088C245.336 56.9275 245.685 57.3224 246.122 57.5955C246.571 57.8687 247.075 58.0047 247.636 58.0047ZM257.582 60.0508L253.3 49.1249H255.731L259.414 58.7618H258.218L262.032 49.1249H264.276L259.994 60.0508H257.582ZM271.577 60.0508V57.841L271.447 57.3705V53.5035C271.447 52.7536 271.241 52.1735 270.83 51.7643C270.418 51.3418 269.795 51.1301 268.96 51.1301C268.399 51.1301 267.844 51.2252 267.296 51.4165C266.76 51.6078 266.305 51.8738 265.931 52.2144L265.014 50.3526C265.55 49.9024 266.186 49.5679 266.922 49.35C267.67 49.1178 268.443 49.0022 269.24 49.0022C270.686 49.0022 271.802 49.3838 272.587 50.148C273.385 50.8978 273.784 52.0641 273.784 53.6467V60.0508H271.577ZM268.436 60.194C267.688 60.194 267.034 60.0579 266.473 59.7848C265.912 59.4983 265.475 59.1096 265.164 58.6186C264.865 58.1142 264.715 57.5474 264.715 56.9203C264.715 56.3065 264.846 55.7541 265.108 55.2631C265.382 54.772 265.825 54.3832 266.435 54.0968C267.046 53.8104 267.857 53.6671 268.866 53.6671H271.764V55.3653H269.034C268.237 55.3653 267.7 55.5086 267.426 55.795C267.153 56.0682 267.015 56.4088 267.015 56.818C267.015 57.2815 267.183 57.6497 267.52 57.9229C267.857 58.196 268.324 58.3321 268.922 58.3321C269.495 58.3321 270.007 58.1889 270.456 57.9024C270.916 57.616 271.247 57.1935 271.447 56.6339L271.839 58.1684C271.615 58.8099 271.21 59.307 270.624 59.662C270.051 60.017 269.321 60.194 268.436 60.194ZM280.541 60.194C279.445 60.194 278.597 59.8871 277.998 59.2733C277.4 58.6462 277.101 57.7254 277.101 56.5111V46.7106H279.438V56.4497C279.438 56.9684 279.557 57.3705 279.793 57.6569C280.043 57.9434 280.386 58.0866 280.822 58.0866C281.345 58.0866 281.782 57.9362 282.131 57.6364L282.785 59.4574C282.511 59.7029 282.175 59.8871 281.775 60.0099C281.377 60.1326 280.966 60.194 280.541 60.194ZM275.455 51.2528V49.2068H282.112V51.2528H275.455ZM284.708 60.0508V49.1249H287.045V60.0508H284.708ZM285.886 47.3244C285.45 47.3244 285.089 47.174 284.802 46.8743C284.528 46.5746 284.39 46.2124 284.39 45.7899C284.39 45.3531 284.528 44.9919 284.802 44.7055C285.089 44.4058 285.45 44.2554 285.886 44.2554C286.323 44.2554 286.678 44.3986 286.952 44.685C287.239 44.9582 287.382 45.306 287.382 45.7285C287.382 46.1786 287.245 46.5602 286.971 46.8743C286.697 47.174 286.335 47.3244 285.886 47.3244ZM294.6 60.194C293.579 60.194 292.669 59.9556 291.871 59.4779C291.073 58.9868 290.444 58.3188 289.982 57.4728C289.521 56.6267 289.29 55.6651 289.29 54.5879C289.29 53.4963 289.521 52.5347 289.982 51.7029C290.444 50.8569 291.073 50.196 291.871 49.7183C292.669 49.2405 293.579 49.0022 294.6 49.0022C295.635 49.0022 296.552 49.2405 297.349 49.7183C298.16 50.196 298.789 50.8508 299.238 51.6825C299.699 52.5142 299.929 53.483 299.929 54.5879C299.929 55.6651 299.699 56.6267 299.238 57.4728C298.789 58.3188 298.16 58.9868 297.349 59.4779C296.552 59.9556 295.635 60.194 294.6 60.194ZM294.6 58.0047C295.174 58.0047 295.685 57.8687 296.134 57.5955C296.582 57.3224 296.932 56.9275 297.181 56.4088C297.443 55.8902 297.573 55.2835 297.573 54.5879C297.573 53.8789 297.443 53.2712 297.181 52.7669C296.932 52.2482 296.582 51.8533 296.134 51.5802C295.685 51.307 295.18 51.171 294.619 51.171C294.046 51.171 293.535 51.307 293.086 51.5802C292.65 51.8533 292.301 52.2482 292.039 52.7669C291.777 53.2712 291.646 53.8789 291.646 54.5879C291.646 55.2835 291.777 55.8902 292.039 56.4088C292.301 56.9275 292.65 57.3224 293.086 57.5955C293.535 57.8687 294.04 58.0047 294.6 58.0047ZM307.83 49.0022C308.628 49.0022 309.338 49.173 309.962 49.5137C310.598 49.8543 311.096 50.3802 311.458 51.0891C311.82 51.7848 312 52.685 312 53.7899V60.0508H309.663V54.1173C309.663 53.1485 309.451 52.4262 309.027 51.9485C308.616 51.4707 308.036 51.2324 307.288 51.2324C306.739 51.2324 306.253 51.3551 305.83 51.6006C305.406 51.8462 305.075 52.2145 304.839 52.7055C304.614 53.1833 304.502 53.7899 304.502 54.5265V60.0508H302.165V49.1249H304.39V52.0712L303.997 51.171C304.346 50.4753 304.851 49.9433 305.512 49.5751C306.185 49.1935 306.958 49.0022 307.83 49.0022Z" fill="#E97D26"/>
<path d="M318 60.2554V58.0236L325.973 54.6331V55.8777L318 52.4871V50.2554L326.71 54.0966V56.4142L318 60.2554ZM329.145 60.2554V58.0236L337.118 54.6331V55.8777L329.145 52.4871V50.2554L337.855 54.0966V56.4142L329.145 60.2554ZM340.29 60.2554V58.0236L348.263 54.6331V55.8777L340.29 52.4871V50.2554L349 54.0966V56.4142L340.29 60.2554Z" fill="#081D2C"/>
</svg>
