<svg width="224" height="34" viewBox="0 0 224 34" fill="none" xmlns="http://www.w3.org/2000/svg">
<path d="M31.5672 18.6815C31.5361 18.6468 31.4866 18.6321 31.44 18.6433L30.1791 18.9489C30.1273 18.9614 30.0731 18.9418 30.0435 18.9003L29.4955 18.1303C29.489 18.1213 29.4815 18.1131 29.4724 18.1063L28.9553 17.6943C28.9413 17.6831 28.9303 17.6692 28.9224 17.6533L28.2765 16.3169C28.2736 16.3101 28.2698 16.3038 28.2652 16.2981L27.8869 15.7917C27.886 15.7903 27.8851 15.7892 27.8843 15.7881L27.3613 15.0285C27.3438 15.0028 27.3371 14.9717 27.3438 14.9417L27.3592 14.8696C27.3665 14.8353 27.3898 14.8058 27.4227 14.7892C27.4559 14.7725 27.4949 14.7706 27.5296 14.784L27.6097 14.8151C27.6545 14.8326 27.7063 14.8238 27.7421 14.7927C27.7777 14.7619 27.7911 14.7144 27.7765 14.671L27.6865 14.4063C27.6732 14.3665 27.6382 14.3365 27.5945 14.3275L26.7006 14.1411C26.6817 14.1373 26.6615 14.1376 26.6429 14.142L25.9313 14.3086C25.9103 14.3136 25.8882 14.3133 25.8672 14.3076L25.2446 14.1444C25.2216 14.1384 25.2007 14.1264 25.1849 14.1095L25.0236 13.9392C25.0012 13.9157 24.9698 13.9015 24.9363 13.9002L24.5499 13.8819C24.4858 13.8792 24.4293 13.922 24.42 13.9818L24.3734 14.2732C24.3682 14.3048 24.3498 14.3332 24.3222 14.3515C24.2942 14.3698 24.2596 14.3769 24.2264 14.3712L23.4055 14.2257C23.3607 14.2175 23.3243 14.1878 23.31 14.1474L23.2504 13.9796C23.2338 13.9332 23.188 13.9013 23.1359 13.8996L22.4828 13.8786C22.4446 13.8775 22.4094 13.8601 22.3867 13.8317L22.175 13.567C22.1537 13.5405 22.1456 13.5067 22.1523 13.4743C22.159 13.4415 22.1802 13.4134 22.2105 13.3962L22.2661 13.3648C22.3232 13.3329 22.3433 13.2647 22.3127 13.2096L22.105 12.838C22.0802 12.7943 22.029 12.7698 21.9766 12.7768L19.5411 13.0991C19.5309 13.1002 19.5209 13.103 19.5114 13.1065L18.8 13.378C18.7872 13.3832 18.7735 13.3859 18.7595 13.3865L18.3035 13.4088C18.2729 13.4105 18.2444 13.4222 18.2228 13.4421L17.3755 14.2119C17.3563 14.2293 17.3434 14.2519 17.3391 14.2765L17.2721 14.6522C17.2666 14.6853 17.2459 14.7142 17.2159 14.7322L16.4626 15.1791C16.4448 15.1895 16.43 15.2042 16.4201 15.2214L15.7355 16.3813C15.7241 16.4004 15.7186 16.4217 15.7197 16.4436L15.7727 17.5082C15.773 17.5175 15.7724 17.5265 15.7704 17.5355L15.674 18.01C15.667 18.0447 15.6772 18.0807 15.7014 18.108L17.5443 20.1555C17.5749 20.1894 17.6232 20.2041 17.6695 20.194L18.4857 20.0082C18.4983 20.0054 18.5111 20.0044 18.5242 20.0052L19.6671 20.0799C19.6828 20.0813 19.6988 20.0791 19.7143 20.0748L20.5643 19.8169C20.6047 19.8046 20.649 19.8125 20.6819 19.8376L21.197 20.2327C21.222 20.2516 21.2544 20.2611 21.2867 20.2587L21.7628 20.2213C21.7978 20.2188 21.8321 20.2297 21.8577 20.2521C21.8837 20.2742 21.8985 20.3053 21.8985 20.3383V20.7708C21.8985 20.7768 21.8979 20.7825 21.897 20.7883L21.8236 21.2459C21.8187 21.2781 21.828 21.3113 21.8502 21.3367L22.3781 21.949C22.3892 21.9621 22.3973 21.9774 22.402 21.9935L22.8274 23.539C22.8335 23.5605 22.8327 23.5832 22.8254 23.6042L22.4372 24.7444C22.4279 24.7717 22.4297 24.8015 22.4419 24.8276L23.1049 26.219C23.1099 26.2293 23.1134 26.2402 23.1148 26.252L23.2455 27.2091C23.2485 27.2312 23.2587 27.252 23.2735 27.2692L23.9112 27.986C23.9299 28.0073 23.94 28.0334 23.94 28.061V28.5833C23.94 28.6168 23.9555 28.649 23.9828 28.6714C24.0096 28.6938 24.0457 28.7036 24.0816 28.6992L25.2093 28.5617L26.1563 28.4384C26.186 28.4343 26.2134 28.4206 26.2332 28.3991L27.6708 26.8528C27.6847 26.8376 27.6947 26.8187 27.6987 26.7988L27.7652 26.4891C27.7716 26.4588 27.7908 26.4318 27.8184 26.4146L27.9696 26.3205C28.0034 26.2989 28.0243 26.2637 28.0252 26.2255L28.05 25.2684C28.0508 25.2414 28.0616 25.2152 28.0805 25.1947L28.386 24.8645C28.4017 24.8476 28.4218 24.8356 28.4448 24.8291L29.065 24.6566C29.1183 24.6419 29.1547 24.5963 29.1547 24.5442V23.3796C29.1547 23.3698 29.1535 23.3602 29.1509 23.351L28.8487 22.2415C28.8341 22.188 28.8612 22.1324 28.9139 22.1075L29.0164 22.0596C29.035 22.0508 29.0507 22.0382 29.0624 22.0227L29.9627 20.8317C29.9755 20.8145 29.9933 20.8011 30.0134 20.7924L30.7393 20.4876C30.767 20.4759 30.7894 20.4549 30.8019 20.429L31.5852 18.8052C31.6051 18.7639 31.5984 18.7159 31.5672 18.6815Z" fill="#E97D26"/>
<path d="M0.107971 15.3645L0.054999 16.3886C0.0250947 16.9667 0.485812 17.4519 1.06474 17.4519H6.46415C7.14957 17.4519 7.70295 16.892 7.69488 16.2066L7.69365 16.1014C7.68324 15.2168 7.81194 14.336 8.07503 13.4913C8.20608 13.0706 8.18051 12.6166 8.00303 12.2133L5.43221 6.37051C5.14084 5.70831 4.25747 5.57836 3.78775 6.12861C1.57738 8.7179 0.283827 11.9646 0.107971 15.3645Z" fill="#081D2C"/>
<path d="M0.107971 15.3645L0.054999 16.3886C0.0250947 16.9667 0.485812 17.4519 1.06474 17.4519H6.46415C7.14957 17.4519 7.70295 16.892 7.69488 16.2066L7.69365 16.1014C7.68324 15.2168 7.81194 14.336 8.07503 13.4913C8.20608 13.0706 8.18051 12.6166 8.00303 12.2133L5.43221 6.37051C5.14084 5.70831 4.25747 5.57836 3.78775 6.12861C1.57738 8.7179 0.283827 11.9646 0.107971 15.3645Z" fill="#1782CF"/>
<path d="M7.38698 31.0427L10.7428 32.4918L18.4551 33.3145C19.2346 33.3976 19.8081 32.6005 19.4815 31.8878L17.8012 28.2218C17.5741 27.7262 17.1311 27.3629 16.6005 27.2373L14.3318 26.6999C13.2162 26.4357 12.1708 25.9335 11.2673 25.2276C10.8592 24.9088 10.3215 24.8085 9.82592 24.9588L4.23667 26.6539C3.59037 26.8499 3.33542 27.6286 3.74064 28.1689C4.68502 29.4281 5.94197 30.4187 7.38698 31.0427Z" fill="#081D2C"/>
<path d="M7.38698 31.0427L10.7428 32.4918L18.4551 33.3145C19.2346 33.3976 19.8081 32.6005 19.4815 31.8878L17.8012 28.2218C17.5741 27.7262 17.1311 27.3629 16.6005 27.2373L14.3318 26.6999C13.2162 26.4357 12.1708 25.9335 11.2673 25.2276C10.8592 24.9088 10.3215 24.8085 9.82592 24.9588L4.23667 26.6539C3.59037 26.8499 3.33542 27.6286 3.74064 28.1689C4.68502 29.4281 5.94197 30.4187 7.38698 31.0427Z" fill="#1782CF"/>
<path d="M28.5632 28.3769V27.4364V25.0351L28.184 25.4142V26.4253L27.9313 26.6781V27.31L26.2882 28.8266L23.5078 29.0794V28.3211L22.8758 27.5628L22.7494 26.4253L21.8647 24.7191L22.3703 23.6448L22.1175 22.6337L21.5488 22.0018L21.612 26.9308L19.337 27.4364C18.8635 27.4364 18.5484 27.9258 18.7443 28.3568L20.3051 31.7904C20.6302 32.5058 21.3882 32.921 22.1661 32.8099L23.5078 32.6182L25.1188 32.3765C27.0986 32.0796 28.5632 30.3789 28.5632 28.3769Z" fill="#081D2C"/>
<path d="M28.5632 28.3769V27.4364V25.0351L28.184 25.4142V26.4253L27.9313 26.6781V27.31L26.2882 28.8266L23.5078 29.0794V28.3211L22.8758 27.5628L22.7494 26.4253L21.8647 24.7191L22.3703 23.6448L22.1175 22.6337L21.5488 22.0018L21.612 26.9308L19.337 27.4364C18.8635 27.4364 18.5484 27.9258 18.7443 28.3568L20.3051 31.7904C20.6302 32.5058 21.3882 32.921 22.1661 32.8099L23.5078 32.6182L25.1188 32.3765C27.0986 32.0796 28.5632 30.3789 28.5632 28.3769Z" fill="#1782CF"/>
<path d="M16.1815 0.388287L13.9817 0.747745C11.3473 1.17821 8.83547 2.16691 6.6145 3.64756C5.92684 4.106 5.65431 4.98346 5.96125 5.75081L7.895 10.5852C8.12281 11.1547 8.91122 11.2009 9.20396 10.6618C9.47002 10.1719 9.80833 9.72489 10.2075 9.33573L10.7658 8.79149C11.4184 8.15533 12.1877 7.65119 13.0314 7.30676L14.408 6.74483L16.4651 6.29692C16.8136 6.22104 17.0621 5.9126 17.0621 5.55597V1.13668C17.0621 0.669058 16.643 0.312876 16.1815 0.388287Z" fill="#081D2C"/>
<path d="M16.1815 0.388287L13.9817 0.747745C11.3473 1.17821 8.83547 2.16691 6.6145 3.64756C5.92684 4.106 5.65431 4.98346 5.96125 5.75081L7.895 10.5852C8.12281 11.1547 8.91122 11.2009 9.20396 10.6618C9.47002 10.1719 9.80833 9.72489 10.2075 9.33573L10.7658 8.79149C11.4184 8.15533 12.1877 7.65119 13.0314 7.30676L14.408 6.74483L16.4651 6.29692C16.8136 6.22104 17.0621 5.9126 17.0621 5.55597V1.13668C17.0621 0.669058 16.643 0.312876 16.1815 0.388287Z" fill="#1782CF"/>
<path d="M18.0732 5.43581V1.02483C18.0732 0.59748 18.4261 0.254539 18.8533 0.266828L21.5758 0.34515C22.607 0.374815 23.6304 0.533186 24.6223 0.816585L27.251 1.56764C27.451 1.62481 27.6438 1.70499 27.8255 1.80657C29.8675 2.94872 30.8976 5.31213 30.3443 7.58551L29.8271 9.71078L27.9561 8.42451C27.3529 8.00982 26.6929 7.68464 25.9965 7.45911L24.2661 6.89869L22.6665 6.5791C21.6702 6.38005 20.6595 6.26141 19.6442 6.22432L18.8038 6.19362C18.396 6.17873 18.0732 5.84385 18.0732 5.43581Z" fill="#081D2C"/>
<path d="M18.0732 5.43581V1.02483C18.0732 0.59748 18.4261 0.254539 18.8533 0.266828L21.5758 0.34515C22.607 0.374815 23.6304 0.533186 24.6223 0.816585L27.251 1.56764C27.451 1.62481 27.6438 1.70499 27.8255 1.80657C29.8675 2.94872 30.8976 5.31213 30.3443 7.58551L29.8271 9.71078L27.9561 8.42451C27.3529 8.00982 26.6929 7.68464 25.9965 7.45911L24.2661 6.89869L22.6665 6.5791C21.6702 6.38005 20.6595 6.26141 19.6442 6.22432L18.8038 6.19362C18.396 6.17873 18.0732 5.84385 18.0732 5.43581Z" fill="#1782CF"/>
<path d="M0.167424 19.6425L0.290821 20.605C0.515565 22.358 1.11692 24.0416 2.05361 25.5403C2.33449 25.9897 2.87849 26.1995 3.38838 26.0551L8.83574 24.5116C9.47763 24.3298 9.77052 23.587 9.42552 23.016L8.27827 21.1171L7.91624 19.3472C7.79593 18.759 7.27841 18.3366 6.67802 18.3366H1.3166C0.618248 18.3366 0.0786189 18.9498 0.167424 19.6425Z" fill="#081D2C"/>
<path d="M0.167424 19.6425L0.290821 20.605C0.515565 22.358 1.11692 24.0416 2.05361 25.5403C2.33449 25.9897 2.87849 26.1995 3.38838 26.0551L8.83574 24.5116C9.47763 24.3298 9.77052 23.587 9.42552 23.016L8.27827 21.1171L7.91624 19.3472C7.79593 18.759 7.27841 18.3366 6.67802 18.3366H1.3166C0.618248 18.3366 0.0786189 18.9498 0.167424 19.6425Z" fill="#1782CF"/>
<path fill-rule="evenodd" clip-rule="evenodd" d="M32.4812 5.06608C32.9856 5.57053 33.5362 6.02659 34.1257 6.42831C33.5362 6.02659 32.9856 5.57053 32.4812 5.06608Z" fill="#081D2C"/>
<path fill-rule="evenodd" clip-rule="evenodd" d="M32.4812 5.06608C32.9856 5.57053 33.5362 6.02659 34.1257 6.42831C33.5362 6.02659 32.9856 5.57053 32.4812 5.06608Z" fill="#1782CF"/>
<path d="M53.8404 9.61598L47.5211 15.5561L34.1257 6.42831C33.5362 6.02659 32.9856 5.57053 32.4812 5.06608C31.0395 7.19418 31.6809 10.0963 33.885 11.4188C33.885 11.4188 33.6186 8.42451 38.6177 12.7923C40.8694 14.7598 42.258 15.9515 43.1042 16.6672C43.935 17.3698 44.8227 17.9941 45.7444 18.5724L47.2555 19.5205C47.4494 19.6422 47.7009 19.6184 47.8685 19.4625L50.3016 17.1991L57 10.1215L53.8404 9.61598Z" fill="#1782CF"/>
<path d="M53.8404 9.61598L47.5211 15.5561L34.1257 6.42831C33.5362 6.02659 32.9856 5.57053 32.4812 5.06608C31.0395 7.19418 31.6809 10.0963 33.885 11.4188C33.885 11.4188 33.6186 8.42451 38.6177 12.7923C40.8694 14.7598 42.258 15.9515 43.1042 16.6672C43.935 17.3698 44.8227 17.9941 45.7444 18.5724L47.2555 19.5205C47.4494 19.6422 47.7009 19.6184 47.8685 19.4625L50.3016 17.1991L57 10.1215L53.8404 9.61598Z" fill="#081D2C"/>
<path fill-rule="evenodd" clip-rule="evenodd" d="M46.0044 24.2135C46.0044 24.4186 45.9379 24.6182 45.8149 24.7823C45.9379 24.6182 46.0044 24.4186 46.0044 24.2135ZM46.1093 19.7734C47.1252 20.225 48.2882 20.208 49.2905 19.7268C48.2882 20.208 47.1252 20.225 46.1093 19.7734ZM49.48 24.7823C49.357 24.6182 49.2905 24.4186 49.2905 24.2135C49.2905 24.4186 49.357 24.6182 49.48 24.7823Z" fill="#081D2C"/>
<path fill-rule="evenodd" clip-rule="evenodd" d="M46.0044 24.2135C46.0044 24.4186 45.9379 24.6182 45.8149 24.7823C45.9379 24.6182 46.0044 24.4186 46.0044 24.2135ZM46.1093 19.7734C47.1252 20.225 48.2882 20.208 49.2905 19.7268C48.2882 20.208 47.1252 20.225 46.1093 19.7734ZM49.48 24.7823C49.357 24.6182 49.2905 24.4186 49.2905 24.2135C49.2905 24.4186 49.357 24.6182 49.48 24.7823Z" fill="#1782CF"/>
<path d="M45.6253 33.7557H49.6696V25.351C49.6696 25.1459 49.6031 24.9463 49.48 24.7823C49.357 24.6182 49.2905 24.4186 49.2905 24.2135V19.7268C48.2882 20.208 47.1252 20.225 46.1093 19.7734L46.0044 19.7268V24.2135C46.0044 24.4186 45.9379 24.6182 45.8149 24.7823C45.6918 24.9464 45.6253 25.1459 45.6253 25.351V33.7557Z" fill="#1782CF"/>
<path d="M45.6253 33.7557H49.6696V25.351C49.6696 25.1459 49.6031 24.9463 49.48 24.7823C49.357 24.6182 49.2905 24.4186 49.2905 24.2135V19.7268C48.2882 20.208 47.1252 20.225 46.1093 19.7734L46.0044 19.7268V24.2135C46.0044 24.4186 45.9379 24.6182 45.8149 24.7823C45.6918 24.9464 45.6253 25.1459 45.6253 25.351V33.7557Z" fill="#081D2C"/>
<ellipse cx="46.5099" cy="8.85764" rx="3.03326" ry="3.15965" fill="#FFFF00"/>
<path d="M77.576 17.7C77.576 16.416 77.828 15.294 78.332 14.334C78.836 13.362 79.556 12.612 80.492 12.084C81.44 11.556 82.55 11.292 83.822 11.292C84.818 11.292 85.712 11.484 86.504 11.868C87.296 12.252 87.932 12.792 88.412 13.488C88.904 14.184 89.204 14.982 89.312 15.882H86.648C86.48 15.174 86.144 14.616 85.64 14.208C85.136 13.788 84.506 13.578 83.75 13.578C83.054 13.578 82.448 13.752 81.932 14.1C81.416 14.448 81.02 14.934 80.744 15.558C80.468 16.182 80.33 16.896 80.33 17.7C80.33 18.936 80.63 19.932 81.23 20.688C81.842 21.444 82.682 21.822 83.75 21.822C84.53 21.822 85.22 21.612 85.82 21.192C86.42 20.76 86.78 20.13 86.9 19.302V19.14H83.768V16.998H89.402V24H87.53L87.242 22.434C86.87 22.926 86.372 23.328 85.748 23.64C85.124 23.952 84.398 24.108 83.57 24.108C82.382 24.108 81.332 23.844 80.42 23.316C79.52 22.788 78.818 22.038 78.314 21.066C77.822 20.094 77.576 18.972 77.576 17.7ZM103.55 17.7C103.55 18.912 103.286 20.01 102.758 20.994C102.23 21.966 101.492 22.728 100.544 23.28C99.5964 23.832 98.5164 24.108 97.3044 24.108C96.0924 24.108 95.0124 23.832 94.0644 23.28C93.1164 22.728 92.3784 21.966 91.8504 20.994C91.3224 20.01 91.0584 18.912 91.0584 17.7C91.0584 16.488 91.3224 15.396 91.8504 14.424C92.3784 13.44 93.1164 12.672 94.0644 12.12C95.0124 11.568 96.0924 11.292 97.3044 11.292C98.5164 11.292 99.5964 11.568 100.544 12.12C101.492 12.672 102.23 13.44 102.758 14.424C103.286 15.396 103.55 16.488 103.55 17.7ZM93.8124 17.7C93.8124 18.492 93.9564 19.2 94.2444 19.824C94.5324 20.448 94.9404 20.94 95.4684 21.3C95.9964 21.648 96.6084 21.822 97.3044 21.822C97.9884 21.822 98.5944 21.648 99.1224 21.3C99.6504 20.94 100.058 20.448 100.346 19.824C100.634 19.2 100.778 18.492 100.778 17.7C100.778 16.908 100.634 16.2 100.346 15.576C100.058 14.952 99.6504 14.466 99.1224 14.118C98.5944 13.758 97.9884 13.578 97.3044 13.578C96.6084 13.578 95.9964 13.758 95.4684 14.118C94.9404 14.466 94.5324 14.952 94.2444 15.576C93.9564 16.2 93.8124 16.908 93.8124 17.7ZM103.174 11.4H106.324L109.15 16.566L112.12 11.4H115.126L110.5 19.32V24H107.8V19.32L103.174 11.4ZM173.892 24L178.5 11.4H181.74L186.312 24H183.414L182.442 21.246H177.654L176.682 24H173.892ZM178.374 19.068H181.704L180.03 14.28L178.374 19.068Z" fill="#E97D26"/>
<path d="M119.086 24.108C118.114 24.108 117.256 23.916 116.512 23.532C115.78 23.136 115.21 22.578 114.802 21.858C114.406 21.138 114.208 20.31 114.208 19.374C114.208 18.438 114.406 17.61 114.802 16.89C115.21 16.17 115.78 15.618 116.512 15.234C117.256 14.838 118.114 14.64 119.086 14.64C120.058 14.64 120.91 14.838 121.642 15.234C122.386 15.618 122.956 16.17 123.352 16.89C123.76 17.61 123.964 18.438 123.964 19.374C123.964 20.322 123.76 21.156 123.352 21.876C122.956 22.584 122.386 23.136 121.642 23.532C120.91 23.916 120.058 24.108 119.086 24.108ZM119.086 22.038C119.794 22.038 120.352 21.792 120.76 21.3C121.18 20.808 121.39 20.166 121.39 19.374C121.39 18.582 121.18 17.94 120.76 17.448C120.352 16.956 119.794 16.71 119.086 16.71C118.39 16.71 117.832 16.956 117.412 17.448C117.004 17.94 116.8 18.582 116.8 19.374C116.8 20.166 117.004 20.808 117.412 21.3C117.832 21.792 118.39 22.038 119.086 22.038ZM134.073 14.748V24H131.823L131.589 22.884C131.265 23.268 130.887 23.568 130.455 23.784C130.023 24 129.495 24.108 128.871 24.108C127.791 24.108 126.909 23.778 126.225 23.118C125.541 22.446 125.199 21.33 125.199 19.77V14.748H127.737V19.464C127.737 20.304 127.881 20.94 128.169 21.372C128.469 21.792 128.925 22.002 129.537 22.002C130.173 22.002 130.665 21.768 131.013 21.3C131.361 20.82 131.535 20.154 131.535 19.302V14.748H134.073ZM141.147 14.64C142.227 14.64 143.115 14.976 143.811 15.648C144.507 16.32 144.855 17.43 144.855 18.978V24H142.317V19.122C142.317 17.526 141.693 16.728 140.445 16.728C139.785 16.728 139.275 16.95 138.915 17.394C138.555 17.838 138.375 18.462 138.375 19.266V24H135.837V14.748H138.051L138.285 15.9C138.609 15.504 138.999 15.198 139.455 14.982C139.911 14.754 140.475 14.64 141.147 14.64ZM155.706 14.748V23.73C155.706 24.942 155.304 25.908 154.5 26.628C153.696 27.348 152.448 27.708 150.756 27.708C149.448 27.708 148.392 27.42 147.588 26.844C146.784 26.268 146.352 25.452 146.292 24.396H148.848C148.968 24.84 149.202 25.182 149.55 25.422C149.91 25.662 150.378 25.782 150.954 25.782C151.674 25.782 152.232 25.602 152.628 25.242C153.024 24.882 153.222 24.348 153.222 23.64V22.668C152.55 23.52 151.596 23.946 150.36 23.946C149.544 23.946 148.812 23.754 148.164 23.37C147.516 22.986 147.006 22.446 146.634 21.75C146.274 21.042 146.094 20.22 146.094 19.284C146.094 18.36 146.274 17.544 146.634 16.836C147.006 16.128 147.516 15.582 148.164 15.198C148.824 14.814 149.562 14.622 150.378 14.622C151.59 14.622 152.55 15.09 153.258 16.026L153.474 14.748H155.706ZM150.954 21.912C151.638 21.912 152.184 21.672 152.592 21.192C153 20.712 153.204 20.088 153.204 19.32C153.204 18.54 153 17.904 152.592 17.412C152.184 16.92 151.638 16.674 150.954 16.674C150.27 16.674 149.718 16.92 149.298 17.412C148.89 17.892 148.686 18.522 148.686 19.302C148.686 20.082 148.89 20.712 149.298 21.192C149.718 21.672 150.27 21.912 150.954 21.912ZM157.116 19.392C157.116 18.432 157.308 17.598 157.692 16.89C158.088 16.17 158.634 15.618 159.33 15.234C160.038 14.838 160.854 14.64 161.778 14.64C162.714 14.64 163.536 14.826 164.244 15.198C164.964 15.558 165.522 16.074 165.918 16.746C166.326 17.406 166.536 18.186 166.548 19.086C166.548 19.41 166.524 19.698 166.476 19.95H159.762V20.022C159.822 20.694 160.038 21.222 160.41 21.606C160.782 21.99 161.292 22.182 161.94 22.182C162.456 22.182 162.882 22.074 163.218 21.858C163.566 21.63 163.794 21.3 163.902 20.868H166.404C166.308 21.48 166.074 22.032 165.702 22.524C165.33 23.016 164.838 23.406 164.226 23.694C163.614 23.97 162.912 24.108 162.12 24.108C161.088 24.108 160.194 23.916 159.438 23.532C158.694 23.148 158.118 22.602 157.71 21.894C157.314 21.174 157.116 20.34 157.116 19.392ZM164.01 18.294C163.926 17.73 163.692 17.298 163.308 16.998C162.936 16.686 162.462 16.53 161.886 16.53C161.334 16.53 160.866 16.692 160.482 17.016C160.11 17.328 159.888 17.754 159.816 18.294H164.01ZM173.569 14.748V17.052H172.561C171.841 17.052 171.313 17.268 170.977 17.7C170.641 18.132 170.473 18.72 170.473 19.464V24H167.935V14.748H170.239L170.473 16.134C170.749 15.678 171.091 15.336 171.499 15.108C171.907 14.868 172.453 14.748 173.137 14.748H173.569ZM187.583 14.748V13.938C187.583 13.122 187.817 12.498 188.285 12.066C188.753 11.622 189.449 11.4 190.373 11.4H192.443V13.56H190.877C190.613 13.56 190.421 13.62 190.301 13.74C190.181 13.86 190.121 14.052 190.121 14.316V14.748H192.443V16.89H190.121V24H187.583V16.89H186.053V14.748H187.583ZM199.022 14.748V17.052H198.014C197.294 17.052 196.766 17.268 196.43 17.7C196.094 18.132 195.926 18.72 195.926 19.464V24H193.388V14.748H195.692L195.926 16.134C196.202 15.678 196.544 15.336 196.952 15.108C197.36 14.868 197.906 14.748 198.59 14.748H199.022ZM201.433 10.896C201.853 10.896 202.201 11.034 202.477 11.31C202.753 11.574 202.891 11.91 202.891 12.318C202.891 12.726 202.753 13.068 202.477 13.344C202.201 13.62 201.853 13.758 201.433 13.758C201.013 13.758 200.659 13.62 200.371 13.344C200.095 13.068 199.957 12.726 199.957 12.318C199.957 11.91 200.095 11.574 200.371 11.31C200.659 11.034 201.013 10.896 201.433 10.896ZM200.155 14.748H202.693V24H200.155V14.748ZM213.354 20.49C213.186 21.618 212.706 22.506 211.914 23.154C211.134 23.79 210.12 24.108 208.872 24.108C207.912 24.108 207.072 23.916 206.352 23.532C205.632 23.136 205.074 22.578 204.678 21.858C204.294 21.138 204.102 20.31 204.102 19.374C204.102 18.426 204.294 17.598 204.678 16.89C205.074 16.17 205.632 15.618 206.352 15.234C207.084 14.838 207.93 14.64 208.89 14.64C210.126 14.64 211.134 14.958 211.914 15.594C212.694 16.218 213.174 17.088 213.354 18.204H210.726C210.618 17.748 210.402 17.388 210.078 17.124C209.754 16.848 209.352 16.71 208.872 16.71C208.212 16.71 207.684 16.956 207.288 17.448C206.892 17.94 206.694 18.582 206.694 19.374C206.694 20.166 206.892 20.808 207.288 21.3C207.684 21.792 208.212 22.038 208.872 22.038C209.364 22.038 209.772 21.9 210.096 21.624C210.432 21.348 210.648 20.97 210.744 20.49H213.354ZM223.836 21.858V24H222.54C221.376 24 220.806 23.496 220.83 22.488C220.494 23.016 220.08 23.418 219.588 23.694C219.096 23.97 218.502 24.108 217.806 24.108C216.774 24.108 215.94 23.874 215.304 23.406C214.68 22.926 214.368 22.254 214.368 21.39C214.368 20.406 214.728 19.65 215.448 19.122C216.18 18.582 217.236 18.312 218.616 18.312H220.452V17.862C220.452 17.442 220.296 17.112 219.984 16.872C219.672 16.62 219.252 16.494 218.724 16.494C218.256 16.494 217.872 16.596 217.572 16.8C217.272 17.004 217.092 17.28 217.032 17.628H214.584C214.668 16.68 215.088 15.948 215.844 15.432C216.6 14.904 217.602 14.64 218.85 14.64C220.158 14.64 221.166 14.928 221.874 15.504C222.594 16.08 222.954 16.914 222.954 18.006V21.264C222.954 21.492 223.002 21.648 223.098 21.732C223.194 21.816 223.344 21.858 223.548 21.858H223.836ZM220.452 20.004H218.598C218.07 20.004 217.656 20.112 217.356 20.328C217.068 20.532 216.924 20.826 216.924 21.21C216.924 21.534 217.044 21.792 217.284 21.984C217.536 22.176 217.872 22.272 218.292 22.272C218.952 22.272 219.474 22.086 219.858 21.714C220.242 21.33 220.44 20.82 220.452 20.184V20.004Z" fill="#1782CF"/>
</svg>
