<svg width="57" height="34" viewBox="0 0 57 34" fill="none" xmlns="http://www.w3.org/2000/svg">
<path d="M31.5672 18.6815C31.5361 18.6468 31.4866 18.6321 31.44 18.6433L30.1791 18.9489C30.1273 18.9614 30.0731 18.9418 30.0435 18.9003L29.4955 18.1303C29.489 18.1213 29.4815 18.1131 29.4724 18.1063L28.9553 17.6943C28.9413 17.6831 28.9303 17.6692 28.9224 17.6533L28.2765 16.3169C28.2736 16.3101 28.2698 16.3038 28.2652 16.2981L27.8869 15.7917C27.886 15.7903 27.8851 15.7892 27.8843 15.7881L27.3613 15.0285C27.3438 15.0028 27.3371 14.9717 27.3438 14.9417L27.3592 14.8696C27.3665 14.8353 27.3898 14.8058 27.4227 14.7892C27.4559 14.7725 27.4949 14.7706 27.5296 14.784L27.6097 14.8151C27.6545 14.8326 27.7063 14.8238 27.7421 14.7927C27.7777 14.7619 27.7911 14.7144 27.7765 14.671L27.6865 14.4063C27.6732 14.3665 27.6382 14.3365 27.5945 14.3275L26.7006 14.1411C26.6817 14.1373 26.6615 14.1376 26.6429 14.142L25.9313 14.3086C25.9103 14.3136 25.8882 14.3133 25.8672 14.3076L25.2446 14.1444C25.2216 14.1384 25.2007 14.1264 25.1849 14.1095L25.0236 13.9392C25.0012 13.9157 24.9698 13.9015 24.9363 13.9002L24.5499 13.8819C24.4858 13.8792 24.4293 13.922 24.42 13.9818L24.3734 14.2732C24.3682 14.3048 24.3498 14.3332 24.3222 14.3515C24.2942 14.3698 24.2596 14.3769 24.2264 14.3712L23.4055 14.2257C23.3607 14.2175 23.3243 14.1878 23.31 14.1474L23.2504 13.9796C23.2338 13.9332 23.188 13.9013 23.1359 13.8996L22.4828 13.8786C22.4446 13.8775 22.4094 13.8601 22.3867 13.8317L22.175 13.567C22.1537 13.5405 22.1456 13.5067 22.1523 13.4743C22.159 13.4415 22.1802 13.4134 22.2105 13.3962L22.2661 13.3648C22.3232 13.3329 22.3433 13.2647 22.3127 13.2096L22.105 12.838C22.0802 12.7943 22.029 12.7698 21.9766 12.7768L19.5411 13.0991C19.5309 13.1002 19.5209 13.103 19.5114 13.1065L18.8 13.378C18.7872 13.3832 18.7735 13.3859 18.7595 13.3865L18.3035 13.4088C18.2729 13.4105 18.2444 13.4222 18.2228 13.4421L17.3755 14.2119C17.3563 14.2293 17.3434 14.2519 17.3391 14.2765L17.2721 14.6522C17.2666 14.6853 17.2459 14.7142 17.2159 14.7322L16.4626 15.1791C16.4448 15.1895 16.43 15.2042 16.4201 15.2214L15.7355 16.3813C15.7241 16.4004 15.7186 16.4217 15.7197 16.4436L15.7727 17.5082C15.773 17.5175 15.7724 17.5265 15.7704 17.5355L15.674 18.01C15.667 18.0447 15.6772 18.0807 15.7014 18.108L17.5443 20.1555C17.5749 20.1894 17.6232 20.2041 17.6695 20.194L18.4857 20.0082C18.4983 20.0054 18.5111 20.0044 18.5242 20.0052L19.6671 20.0799C19.6828 20.0813 19.6988 20.0791 19.7143 20.0748L20.5643 19.8169C20.6047 19.8046 20.649 19.8125 20.6819 19.8376L21.197 20.2327C21.222 20.2516 21.2544 20.2611 21.2867 20.2587L21.7628 20.2213C21.7978 20.2188 21.8321 20.2297 21.8577 20.2521C21.8837 20.2742 21.8985 20.3053 21.8985 20.3383V20.7708C21.8985 20.7768 21.8979 20.7825 21.897 20.7883L21.8236 21.2459C21.8187 21.2781 21.828 21.3113 21.8502 21.3367L22.3781 21.949C22.3892 21.9621 22.3973 21.9774 22.402 21.9935L22.8274 23.539C22.8335 23.5605 22.8327 23.5832 22.8254 23.6042L22.4372 24.7444C22.4279 24.7717 22.4297 24.8015 22.4419 24.8276L23.1049 26.219C23.1099 26.2293 23.1134 26.2402 23.1148 26.252L23.2455 27.2091C23.2485 27.2312 23.2587 27.252 23.2735 27.2692L23.9112 27.986C23.9299 28.0073 23.94 28.0334 23.94 28.061V28.5833C23.94 28.6168 23.9555 28.649 23.9828 28.6714C24.0096 28.6938 24.0457 28.7036 24.0816 28.6992L25.2093 28.5617L26.1563 28.4384C26.186 28.4343 26.2134 28.4206 26.2332 28.3991L27.6708 26.8528C27.6847 26.8376 27.6947 26.8187 27.6987 26.7988L27.7652 26.4891C27.7716 26.4588 27.7908 26.4318 27.8184 26.4146L27.9696 26.3205C28.0034 26.2989 28.0243 26.2637 28.0252 26.2255L28.05 25.2684C28.0508 25.2414 28.0616 25.2152 28.0805 25.1947L28.386 24.8645C28.4017 24.8476 28.4218 24.8356 28.4448 24.8291L29.065 24.6566C29.1183 24.6419 29.1547 24.5963 29.1547 24.5442V23.3796C29.1547 23.3698 29.1535 23.3602 29.1509 23.351L28.8487 22.2415C28.8341 22.188 28.8612 22.1324 28.9139 22.1075L29.0164 22.0596C29.035 22.0508 29.0507 22.0382 29.0624 22.0227L29.9627 20.8317C29.9755 20.8145 29.9933 20.8011 30.0134 20.7924L30.7393 20.4876C30.767 20.4759 30.7894 20.4549 30.8019 20.429L31.5852 18.8052C31.6051 18.7639 31.5984 18.7159 31.5672 18.6815Z" fill="#E97D26"/>
<path d="M0.107971 15.3645L0.054999 16.3886C0.0250947 16.9667 0.485812 17.4519 1.06474 17.4519H6.46415C7.14957 17.4519 7.70295 16.892 7.69488 16.2066L7.69365 16.1014C7.68324 15.2168 7.81194 14.336 8.07503 13.4913C8.20608 13.0706 8.18051 12.6166 8.00303 12.2133L5.43221 6.37051C5.14084 5.70831 4.25747 5.57836 3.78775 6.12861C1.57738 8.7179 0.283827 11.9646 0.107971 15.3645Z" fill="#081D2C"/>
<path d="M0.107971 15.3645L0.054999 16.3886C0.0250947 16.9667 0.485812 17.4519 1.06474 17.4519H6.46415C7.14957 17.4519 7.70295 16.892 7.69488 16.2066L7.69365 16.1014C7.68324 15.2168 7.81194 14.336 8.07503 13.4913C8.20608 13.0706 8.18051 12.6166 8.00303 12.2133L5.43221 6.37051C5.14084 5.70831 4.25747 5.57836 3.78775 6.12861C1.57738 8.7179 0.283827 11.9646 0.107971 15.3645Z" fill="#1782CF"/>
<path d="M7.38698 31.0427L10.7428 32.4918L18.4551 33.3145C19.2346 33.3976 19.8081 32.6005 19.4815 31.8878L17.8012 28.2218C17.5741 27.7262 17.1311 27.3629 16.6005 27.2373L14.3318 26.6999C13.2162 26.4357 12.1708 25.9335 11.2673 25.2276C10.8592 24.9088 10.3215 24.8085 9.82592 24.9588L4.23667 26.6539C3.59037 26.8499 3.33542 27.6286 3.74064 28.1689C4.68502 29.4281 5.94197 30.4187 7.38698 31.0427Z" fill="#081D2C"/>
<path d="M7.38698 31.0427L10.7428 32.4918L18.4551 33.3145C19.2346 33.3976 19.8081 32.6005 19.4815 31.8878L17.8012 28.2218C17.5741 27.7262 17.1311 27.3629 16.6005 27.2373L14.3318 26.6999C13.2162 26.4357 12.1708 25.9335 11.2673 25.2276C10.8592 24.9088 10.3215 24.8085 9.82592 24.9588L4.23667 26.6539C3.59037 26.8499 3.33542 27.6286 3.74064 28.1689C4.68502 29.4281 5.94197 30.4187 7.38698 31.0427Z" fill="#1782CF"/>
<path d="M28.5632 28.3769V27.4364V25.0351L28.184 25.4142V26.4253L27.9313 26.6781V27.31L26.2882 28.8266L23.5078 29.0794V28.3211L22.8758 27.5628L22.7494 26.4253L21.8647 24.7191L22.3703 23.6448L22.1175 22.6337L21.5488 22.0018L21.612 26.9308L19.337 27.4364C18.8635 27.4364 18.5484 27.9258 18.7443 28.3568L20.3051 31.7904C20.6302 32.5058 21.3882 32.921 22.1661 32.8099L23.5078 32.6182L25.1188 32.3765C27.0986 32.0796 28.5632 30.3789 28.5632 28.3769Z" fill="#081D2C"/>
<path d="M28.5632 28.3769V27.4364V25.0351L28.184 25.4142V26.4253L27.9313 26.6781V27.31L26.2882 28.8266L23.5078 29.0794V28.3211L22.8758 27.5628L22.7494 26.4253L21.8647 24.7191L22.3703 23.6448L22.1175 22.6337L21.5488 22.0018L21.612 26.9308L19.337 27.4364C18.8635 27.4364 18.5484 27.9258 18.7443 28.3568L20.3051 31.7904C20.6302 32.5058 21.3882 32.921 22.1661 32.8099L23.5078 32.6182L25.1188 32.3765C27.0986 32.0796 28.5632 30.3789 28.5632 28.3769Z" fill="#1782CF"/>
<path d="M16.1815 0.388287L13.9817 0.747745C11.3473 1.17821 8.83547 2.16691 6.6145 3.64756C5.92684 4.106 5.65431 4.98346 5.96125 5.75081L7.895 10.5852C8.12281 11.1547 8.91122 11.2009 9.20396 10.6618C9.47002 10.1719 9.80833 9.72489 10.2075 9.33573L10.7658 8.79149C11.4184 8.15533 12.1877 7.65119 13.0314 7.30676L14.408 6.74483L16.4651 6.29692C16.8136 6.22104 17.0621 5.9126 17.0621 5.55597V1.13668C17.0621 0.669058 16.643 0.312876 16.1815 0.388287Z" fill="#081D2C"/>
<path d="M16.1815 0.388287L13.9817 0.747745C11.3473 1.17821 8.83547 2.16691 6.6145 3.64756C5.92684 4.106 5.65431 4.98346 5.96125 5.75081L7.895 10.5852C8.12281 11.1547 8.91122 11.2009 9.20396 10.6618C9.47002 10.1719 9.80833 9.72489 10.2075 9.33573L10.7658 8.79149C11.4184 8.15533 12.1877 7.65119 13.0314 7.30676L14.408 6.74483L16.4651 6.29692C16.8136 6.22104 17.0621 5.9126 17.0621 5.55597V1.13668C17.0621 0.669058 16.643 0.312876 16.1815 0.388287Z" fill="#1782CF"/>
<path d="M18.0732 5.43581V1.02483C18.0732 0.59748 18.4261 0.254539 18.8533 0.266828L21.5758 0.34515C22.607 0.374815 23.6304 0.533186 24.6223 0.816585L27.251 1.56764C27.451 1.62481 27.6438 1.70499 27.8255 1.80657C29.8675 2.94872 30.8976 5.31213 30.3443 7.58551L29.8271 9.71078L27.9561 8.42451C27.3529 8.00982 26.6929 7.68464 25.9965 7.45911L24.2661 6.89869L22.6665 6.5791C21.6702 6.38005 20.6595 6.26141 19.6442 6.22432L18.8038 6.19362C18.396 6.17873 18.0732 5.84385 18.0732 5.43581Z" fill="#081D2C"/>
<path d="M18.0732 5.43581V1.02483C18.0732 0.59748 18.4261 0.254539 18.8533 0.266828L21.5758 0.34515C22.607 0.374815 23.6304 0.533186 24.6223 0.816585L27.251 1.56764C27.451 1.62481 27.6438 1.70499 27.8255 1.80657C29.8675 2.94872 30.8976 5.31213 30.3443 7.58551L29.8271 9.71078L27.9561 8.42451C27.3529 8.00982 26.6929 7.68464 25.9965 7.45911L24.2661 6.89869L22.6665 6.5791C21.6702 6.38005 20.6595 6.26141 19.6442 6.22432L18.8038 6.19362C18.396 6.17873 18.0732 5.84385 18.0732 5.43581Z" fill="#1782CF"/>
<path d="M0.167424 19.6425L0.290821 20.605C0.515565 22.358 1.11692 24.0416 2.05361 25.5403C2.33449 25.9897 2.87849 26.1995 3.38838 26.0551L8.83574 24.5116C9.47763 24.3298 9.77052 23.587 9.42552 23.016L8.27827 21.1171L7.91624 19.3472C7.79593 18.759 7.27841 18.3366 6.67802 18.3366H1.3166C0.618248 18.3366 0.0786189 18.9498 0.167424 19.6425Z" fill="#081D2C"/>
<path d="M0.167424 19.6425L0.290821 20.605C0.515565 22.358 1.11692 24.0416 2.05361 25.5403C2.33449 25.9897 2.87849 26.1995 3.38838 26.0551L8.83574 24.5116C9.47763 24.3298 9.77052 23.587 9.42552 23.016L8.27827 21.1171L7.91624 19.3472C7.79593 18.759 7.27841 18.3366 6.67802 18.3366H1.3166C0.618248 18.3366 0.0786189 18.9498 0.167424 19.6425Z" fill="#1782CF"/>
<path fill-rule="evenodd" clip-rule="evenodd" d="M32.4812 5.06608C32.9856 5.57053 33.5362 6.02659 34.1257 6.42831C33.5362 6.02659 32.9856 5.57053 32.4812 5.06608Z" fill="#081D2C"/>
<path fill-rule="evenodd" clip-rule="evenodd" d="M32.4812 5.06608C32.9856 5.57053 33.5362 6.02659 34.1257 6.42831C33.5362 6.02659 32.9856 5.57053 32.4812 5.06608Z" fill="#1782CF"/>
<path d="M53.8404 9.61598L47.5211 15.5561L34.1257 6.42831C33.5362 6.02659 32.9856 5.57053 32.4812 5.06608C31.0395 7.19418 31.6809 10.0963 33.885 11.4188C33.885 11.4188 33.6186 8.42451 38.6177 12.7923C40.8694 14.7598 42.258 15.9515 43.1042 16.6672C43.935 17.3698 44.8227 17.9941 45.7444 18.5724L47.2555 19.5205C47.4494 19.6422 47.7009 19.6184 47.8685 19.4625L50.3016 17.1991L57 10.1215L53.8404 9.61598Z" fill="#1782CF"/>
<path d="M53.8404 9.61598L47.5211 15.5561L34.1257 6.42831C33.5362 6.02659 32.9856 5.57053 32.4812 5.06608C31.0395 7.19418 31.6809 10.0963 33.885 11.4188C33.885 11.4188 33.6186 8.42451 38.6177 12.7923C40.8694 14.7598 42.258 15.9515 43.1042 16.6672C43.935 17.3698 44.8227 17.9941 45.7444 18.5724L47.2555 19.5205C47.4494 19.6422 47.7009 19.6184 47.8685 19.4625L50.3016 17.1991L57 10.1215L53.8404 9.61598Z" fill="#081D2C"/>
<path fill-rule="evenodd" clip-rule="evenodd" d="M46.0044 24.2135C46.0044 24.4186 45.9379 24.6182 45.8149 24.7823C45.9379 24.6182 46.0044 24.4186 46.0044 24.2135ZM46.1093 19.7734C47.1252 20.225 48.2882 20.208 49.2905 19.7268C48.2882 20.208 47.1252 20.225 46.1093 19.7734ZM49.48 24.7823C49.357 24.6182 49.2905 24.4186 49.2905 24.2135C49.2905 24.4186 49.357 24.6182 49.48 24.7823Z" fill="#081D2C"/>
<path fill-rule="evenodd" clip-rule="evenodd" d="M46.0044 24.2135C46.0044 24.4186 45.9379 24.6182 45.8149 24.7823C45.9379 24.6182 46.0044 24.4186 46.0044 24.2135ZM46.1093 19.7734C47.1252 20.225 48.2882 20.208 49.2905 19.7268C48.2882 20.208 47.1252 20.225 46.1093 19.7734ZM49.48 24.7823C49.357 24.6182 49.2905 24.4186 49.2905 24.2135C49.2905 24.4186 49.357 24.6182 49.48 24.7823Z" fill="#1782CF"/>
<path d="M45.6253 33.7557H49.6696V25.351C49.6696 25.1459 49.6031 24.9463 49.48 24.7823C49.357 24.6182 49.2905 24.4186 49.2905 24.2135V19.7268C48.2882 20.208 47.1252 20.225 46.1093 19.7734L46.0044 19.7268V24.2135C46.0044 24.4186 45.9379 24.6182 45.8149 24.7823C45.6918 24.9464 45.6253 25.1459 45.6253 25.351V33.7557Z" fill="#1782CF"/>
<path d="M45.6253 33.7557H49.6696V25.351C49.6696 25.1459 49.6031 24.9463 49.48 24.7823C49.357 24.6182 49.2905 24.4186 49.2905 24.2135V19.7268C48.2882 20.208 47.1252 20.225 46.1093 19.7734L46.0044 19.7268V24.2135C46.0044 24.4186 45.9379 24.6182 45.8149 24.7823C45.6918 24.9464 45.6253 25.1459 45.6253 25.351V33.7557Z" fill="#081D2C"/>
<ellipse cx="46.5099" cy="8.85764" rx="3.03326" ry="3.15965" fill="#FFFF00"/>
</svg>
