<svg width="70" height="69" viewBox="0 0 70 69" fill="none" xmlns="http://www.w3.org/2000/svg">
<path d="M49.375 63.25C45.3979 63.25 42.0083 61.848 39.2061 59.0439C36.404 56.2398 35.0019 52.8502 35 48.875C34.9981 44.8998 36.4001 41.5102 39.2061 38.7061C42.0121 35.902 45.4018 34.5 49.375 34.5C53.3482 34.5 56.7388 35.902 59.5468 38.7061C62.3547 41.5102 63.7558 44.8998 63.75 48.875C63.7442 52.8502 62.3422 56.2408 59.5439 59.0468C56.7455 61.8528 53.3559 63.2538 49.375 63.25ZM54.1906 55.7031L56.2031 53.6906L50.8125 48.3V40.25H47.9375V49.45L54.1906 55.7031ZM14.875 60.375C13.2937 60.375 11.9406 59.8125 10.8155 58.6874C9.69042 57.5623 9.12692 56.2082 9.125 54.625V14.375C9.125 12.7937 9.6885 11.4406 10.8155 10.3155C11.9425 9.19042 13.2957 8.62692 14.875 8.625H26.8781C27.4052 6.94792 28.4354 5.57079 29.9688 4.49362C31.5021 3.41646 33.1792 2.87692 35 2.875C36.9167 2.875 38.6302 3.41454 40.1405 4.49362C41.6508 5.57271 42.6686 6.94983 43.1938 8.625H55.125C56.7063 8.625 58.0604 9.1885 59.1874 10.3155C60.3144 11.4425 60.8769 12.7957 60.875 14.375V32.3438C60.0125 31.7208 59.1021 31.1937 58.1437 30.7625C57.1854 30.3312 56.1792 29.9479 55.125 29.6125V14.375H49.375V23H20.625V14.375H14.875V54.625H30.1125C30.4479 55.6792 30.8312 56.6854 31.2625 57.6437C31.6937 58.6021 32.2208 59.5125 32.8438 60.375H14.875ZM35 14.375C35.8146 14.375 36.4979 14.099 37.0499 13.547C37.6019 12.995 37.8769 12.3127 37.875 11.5C37.8731 10.6873 37.5971 10.005 37.047 9.453C36.4969 8.901 35.8146 8.625 35 8.625C34.1854 8.625 33.5031 8.901 32.953 9.453C32.4029 10.005 32.1269 10.6873 32.125 11.5C32.1231 12.3127 32.3991 12.996 32.953 13.5499C33.5069 14.1038 34.1892 14.3788 35 14.375Z" fill="#596E7D"/>
</svg>
