<svg width="353" height="353" viewBox="0 0 353 353" fill="none" xmlns="http://www.w3.org/2000/svg">
<path d="M176.501 143.208C194.851 143.208 209.78 158.137 209.78 176.488C209.78 194.838 194.851 209.767 176.501 209.767C158.15 209.767 143.221 194.838 143.221 176.488C143.221 158.137 158.15 143.208 176.501 143.208ZM176.501 127.757C149.587 127.757 127.77 149.575 127.77 176.488C127.77 203.401 149.588 225.218 176.501 225.218C203.413 225.218 225.231 203.401 225.231 176.488C225.231 149.575 203.414 127.757 176.501 127.757Z" fill="#1782CF" fill-opacity="0.08"/>
<path d="M176.501 49.3128C193.676 49.3128 210.329 52.6731 225.998 59.3004C241.14 65.7052 254.743 74.8768 266.427 86.5617C278.112 98.2462 287.284 111.849 293.689 126.991C300.316 142.659 303.676 159.313 303.676 176.488C303.676 193.664 300.316 210.317 293.689 225.986C287.284 241.128 278.112 254.73 266.427 266.415C254.743 278.099 241.14 287.271 225.998 293.676C210.33 300.303 193.676 303.664 176.501 303.664C159.325 303.664 142.672 300.303 127.003 293.676C111.861 287.271 98.2586 278.1 86.5741 266.415C74.8896 254.73 65.7175 241.128 59.3128 225.986C52.6854 210.317 49.3252 193.664 49.3252 176.488C49.3252 159.313 52.6854 142.66 59.3128 126.991C65.7175 111.849 74.8892 98.2462 86.5741 86.5617C98.259 74.8772 111.861 65.7052 127.003 59.3004C142.672 52.6731 159.325 49.3128 176.501 49.3128ZM176.501 33.8618C97.7303 33.8618 33.8746 97.7179 33.8746 176.488C33.8746 255.258 97.7307 319.114 176.501 319.114C255.271 319.114 319.127 255.258 319.127 176.488C319.127 97.7175 255.271 33.8618 176.501 33.8618Z" fill="#1782CF" fill-opacity="0.08"/>
<path d="M176.501 63.0723C179.098 63.0723 181.672 63.1679 184.226 63.3394V18.3877H168.775V63.3394C171.329 63.1679 173.903 63.0723 176.501 63.0723ZM184.226 84.0341C179.083 83.6489 173.918 83.6489 168.775 84.0341V168.763H84.0465C83.6613 173.906 83.6613 179.071 84.0465 184.214H168.775V264.749C173.918 265.135 179.083 265.135 184.226 264.749V184.213H268.954C269.34 179.07 269.34 173.905 268.954 168.762H184.226V84.0341ZM289.649 168.762C289.82 171.316 289.916 173.891 289.916 176.488C289.916 179.085 289.82 181.659 289.649 184.213H334.6V168.762H289.649ZM63.0852 176.488C63.0852 173.891 63.1808 171.316 63.3527 168.762H18.4005V184.213H63.3527C63.1808 181.66 63.0852 179.085 63.0852 176.488ZM176.501 289.903C173.903 289.903 171.329 289.808 168.775 289.636V334.588H184.226V289.636C181.672 289.808 179.098 289.903 176.501 289.903Z" fill="#1782CF" fill-opacity="0.08"/>
</svg>
