<svg width="69" height="69" viewBox="0 0 69 69" fill="none" xmlns="http://www.w3.org/2000/svg">
<path d="M24.4001 42.7997C25.5214 42.7997 26.4299 43.7025 26.4299 44.8122C26.4287 45.0777 26.3753 45.3402 26.2727 45.585C26.1701 45.8298 26.0203 46.052 25.8318 46.2389C25.6433 46.4257 25.4199 46.5737 25.1742 46.6742C24.9286 46.7747 24.6655 46.8259 24.4001 46.8247H16.192C15.9263 46.8262 15.663 46.7754 15.417 46.675C15.171 46.5747 14.9472 46.4268 14.7585 46.2399C14.5697 46.053 14.4196 45.8307 14.3168 45.5857C14.214 45.3407 14.1605 45.0779 14.1594 44.8122C14.1594 43.7025 15.0707 42.7997 16.192 42.7997H24.4001ZM26.3839 35.3449C27.5051 35.3449 28.4136 36.2505 28.4136 37.3574C28.4125 37.623 28.359 37.8859 28.2562 38.1308C28.1534 38.3758 28.0033 38.5981 27.8145 38.785C27.6258 38.9719 27.402 39.1198 27.156 39.2201C26.91 39.3205 26.6467 39.3714 26.381 39.3699H16.238C15.9726 39.371 15.7095 39.3198 15.4639 39.2193C15.2182 39.1188 14.9948 38.9709 14.8063 38.784C14.6178 38.5971 14.468 38.3749 14.3654 38.1302C14.2628 37.8854 14.2094 37.6228 14.2082 37.3574C14.2082 36.2476 15.1167 35.3449 16.238 35.3449H26.3839ZM37.4929 25.3974C37.5012 23.79 38.1472 22.2516 39.2889 21.1202C40.4306 19.9887 41.9747 19.3566 43.5821 19.3627C45.19 19.3566 46.7345 19.9891 47.8763 21.1212C49.0181 22.2533 49.6638 23.7924 49.6714 25.4002C49.6623 27.0084 49.0164 28.5475 47.8752 29.6806C46.734 30.8138 45.1903 31.4487 43.5821 31.4464C41.9736 31.4479 40.43 30.8124 39.2889 29.6788C38.1477 28.5452 37.502 27.0058 37.4929 25.3974ZM55.4875 44.2545C55.775 46.0341 54.4008 47.647 52.5981 47.6412H34.5661C34.1427 47.6421 33.7241 47.5508 33.3394 47.3738C32.9547 47.1968 32.613 46.9382 32.3382 46.6161C32.0634 46.2939 31.8618 45.9158 31.7476 45.5081C31.6334 45.1003 31.6092 44.6725 31.6767 44.2545C32.5824 38.6712 35.6759 34.1661 39.7153 32.3807C40.8982 33.0378 42.229 33.3825 43.5821 33.3825C44.9353 33.3825 46.2661 33.0378 47.449 32.3807C51.4884 34.1661 54.5847 38.677 55.4875 44.2545ZM30.4405 31.9207C6.348 31.9207 30.0179 31.915 16.2351 31.915C15.9695 31.9165 15.7061 31.8656 15.4601 31.7653C15.2142 31.6649 14.9904 31.5171 14.8016 31.3301C14.6128 31.1432 14.4627 30.9209 14.3599 30.676C14.2571 30.431 14.2036 30.1681 14.2025 29.9025C14.2025 28.7927 15.1139 27.89 16.2351 27.89L30.4405 27.8929C31.5618 27.8929 32.4731 28.7956 32.4702 29.9082C32.4703 30.174 32.4176 30.4371 32.3154 30.6824C32.2132 30.9277 32.0634 31.1503 31.8747 31.3374C31.686 31.5245 31.4621 31.6724 31.2159 31.7725C30.9698 31.8726 30.7062 31.923 30.4405 31.9207ZM16.238 24.463C15.972 24.4656 15.7082 24.4156 15.4617 24.3156C15.2152 24.2157 14.9909 24.0678 14.8019 23.8807C14.6129 23.6936 14.4629 23.4708 14.3605 23.2253C14.2581 22.9798 14.2054 22.7165 14.2054 22.4505C14.2054 21.3407 15.1167 20.438 16.238 20.438H30.4405C31.5589 20.438 32.4674 21.3379 32.4674 22.4505C32.4643 22.986 32.2489 23.4985 31.8683 23.8753C31.4877 24.2521 30.9732 24.4624 30.4376 24.4601L16.238 24.463ZM38.6889 53.5494C39.1891 53.5494 39.6692 53.3518 40.0245 52.9997C40.3799 52.6476 40.5818 52.1694 40.5864 51.6691H60.8839V15.4441H8.119V51.6662H28.4136C28.4136 52.7041 29.2618 53.5465 30.3111 53.5465L38.6889 53.5494ZM69 51.6691V54.4205C69 56.1599 67.574 57.5715 65.8202 57.5715H3.17975C1.426 57.5715 0 56.1627 0 54.4205V51.6691H4.06237V15.401C4.06237 13.2074 5.8535 11.4277 8.07012 11.4277H60.9328C63.1465 11.4277 64.9405 13.2074 64.9405 15.401V51.6691H69Z" fill="#596E7D"/>
</svg>
