<?xml version="1.0" encoding="utf-8"?>
<!-- Generator: Adobe Illustrator 22.0.0, SVG Export Plug-In . SVG Version: 6.00 Build 0)  -->
<svg version="1.1" xmlns="http://www.w3.org/2000/svg" xmlns:xlink="http://www.w3.org/1999/xlink" x="0px" y="0px"
	 viewBox="0 0 256 256" style="enable-background:new 0 0 256 256;" xml:space="preserve">
<style type="text/css">
	.st0{display:none;}
	.st1{display:inline;}
	.st2{fill:none;stroke:#6B1D1D;stroke-width:0.5;stroke-miterlimit:10;}
	.st3{fill:#3A312A;}
	.st4{fill:#87796F;}
	.st5{fill:#D5DE58;}
	.st6{fill:#695B51;}
	.st7{fill:#FCE8CB;}
	.st8{fill:#F16C7A;}
	.st9{fill:#8AC6DD;}
	.st10{fill:#DECAAD;}
	.st11{fill:#D6DF58;}
	.st12{fill-rule:evenodd;clip-rule:evenodd;fill:#FCE8CB;}
	.st13{fill:#F5978A;}
	.st14{fill:#D7E057;}
	.st15{fill-rule:evenodd;clip-rule:evenodd;fill:#87796F;}
	.st16{fill:#6CA8BF;}
	.st17{fill:#B9C239;}
	.st18{fill:#D34E5C;}
	.st19{fill:#FAE6CA;}
	.st20{fill:#F8E4C8;}
	.st21{fill:#8AC5DC;}
	.st22{fill:#EF6D7A;}
	.st23{fill:#EB6E7A;}
	.st24{fill:#89C4DB;}
	.st25{fill-rule:evenodd;clip-rule:evenodd;fill:#F16C7A;}
	.st26{fill:#F7E3C7;}
	.st27{fill:#F6E2C6;}
	.st28{fill:#ED6E7A;}
	.st29{fill:#8AC3DA;}
	.st30{fill:#D5DC57;}
	.st31{fill-rule:evenodd;clip-rule:evenodd;fill:#D7E057;}
	.st32{fill-rule:evenodd;clip-rule:evenodd;fill:#F8E4C8;}
	.st33{fill:#D4DB56;}
	.st34{fill:#F59689;}
	.st35{fill:#DDC9AC;}
	.st36{fill:#D24E5C;}
	.st37{fill:#6A5C52;}
	.st38{fill:#6CA6BE;}
	.st39{fill:#B8C136;}
	.st40{fill-rule:evenodd;clip-rule:evenodd;fill:#FAE6CA;}
</style>
<g id="Layer_2" class="st0">
	<g class="st1">
		<g>
			<line class="st2" x1="0" y1="4.829" x2="256" y2="4.829"/>
			<line class="st2" x1="0" y1="16.56" x2="256" y2="16.56"/>
			<line class="st2" x1="0" y1="28.29" x2="256" y2="28.29"/>
			<line class="st2" x1="0" y1="40.021" x2="256" y2="40.021"/>
			<line class="st2" x1="0" y1="51.751" x2="256" y2="51.751"/>
			<line class="st2" x1="0" y1="63.482" x2="256" y2="63.482"/>
			<line class="st2" x1="0" y1="75.213" x2="256" y2="75.213"/>
			<line class="st2" x1="0" y1="86.943" x2="256" y2="86.943"/>
			<line class="st2" x1="0" y1="98.674" x2="256" y2="98.674"/>
			<line class="st2" x1="0" y1="110.404" x2="256" y2="110.404"/>
			<line class="st2" x1="0" y1="122.135" x2="256" y2="122.135"/>
			<line class="st2" x1="0" y1="133.865" x2="256" y2="133.865"/>
			<line class="st2" x1="0" y1="145.596" x2="256" y2="145.596"/>
			<line class="st2" x1="0" y1="157.326" x2="256" y2="157.326"/>
			<line class="st2" x1="0" y1="169.057" x2="256" y2="169.057"/>
			<line class="st2" x1="0" y1="180.788" x2="256" y2="180.788"/>
			<line class="st2" x1="0" y1="192.518" x2="256" y2="192.518"/>
			<line class="st2" x1="0" y1="204.249" x2="256" y2="204.249"/>
			<line class="st2" x1="0" y1="215.979" x2="256" y2="215.979"/>
			<line class="st2" x1="0" y1="227.71" x2="256" y2="227.71"/>
			<line class="st2" x1="0" y1="239.44" x2="256" y2="239.44"/>
			<line class="st2" x1="0" y1="251.171" x2="256" y2="251.171"/>
		</g>
		<g>
			<line class="st2" x1="251.171" y1="0" x2="251.171" y2="256"/>
			<line class="st2" x1="239.44" y1="0" x2="239.44" y2="256"/>
			<line class="st2" x1="227.71" y1="0" x2="227.71" y2="256"/>
			<line class="st2" x1="215.979" y1="0" x2="215.979" y2="256"/>
			<line class="st2" x1="204.249" y1="0" x2="204.249" y2="256"/>
			<line class="st2" x1="192.518" y1="0" x2="192.518" y2="256"/>
			<line class="st2" x1="180.787" y1="0" x2="180.787" y2="256"/>
			<line class="st2" x1="169.057" y1="0" x2="169.057" y2="256"/>
			<line class="st2" x1="157.326" y1="0" x2="157.326" y2="256"/>
			<line class="st2" x1="145.596" y1="0" x2="145.596" y2="256"/>
			<line class="st2" x1="133.865" y1="0" x2="133.865" y2="256"/>
			<line class="st2" x1="122.135" y1="0" x2="122.135" y2="256"/>
			<line class="st2" x1="110.404" y1="0" x2="110.404" y2="256"/>
			<line class="st2" x1="98.674" y1="0" x2="98.674" y2="256"/>
			<line class="st2" x1="86.943" y1="0" x2="86.943" y2="256"/>
			<line class="st2" x1="75.212" y1="0" x2="75.212" y2="256"/>
			<line class="st2" x1="63.482" y1="0" x2="63.482" y2="256"/>
			<line class="st2" x1="51.751" y1="0" x2="51.751" y2="256"/>
			<line class="st2" x1="40.021" y1="0" x2="40.021" y2="256"/>
			<line class="st2" x1="28.29" y1="0" x2="28.29" y2="256"/>
			<line class="st2" x1="16.56" y1="0" x2="16.56" y2="256"/>
			<line class="st2" x1="4.829" y1="0" x2="4.829" y2="256"/>
		</g>
	</g>
</g>
<g id="Layer_1">
	<g>
		<path class="st4" d="M222.394,180.635H33.605c-9.447,0-17.105-7.658-17.105-17.105V33.241c0-9.447,7.658-17.106,17.105-17.106
			h188.789c9.447,0,17.106,7.659,17.106,17.106V163.53C239.5,172.977,231.842,180.635,222.394,180.635z"/>
		<path class="st3" d="M222.394,182.135H33.605C23.346,182.135,15,173.789,15,163.53V33.241c0-10.259,8.346-18.605,18.605-18.605
			h188.789c10.259,0,18.606,8.346,18.606,18.605V163.53C241,173.789,232.654,182.135,222.394,182.135z M33.605,17.635
			C25,17.635,18,24.636,18,33.241V163.53c0,8.605,7,15.606,15.605,15.606h188.789c8.605,0,15.606-7.001,15.606-15.606V33.241
			c0-8.605-7.001-15.605-15.606-15.605H33.605z"/>
		<path class="st14" d="M86.201,28.635h-45.17c-6.583,0-11.92,5.337-11.92,11.92v115.66c0,6.583,5.337,11.92,11.92,11.92h173.938
			c6.583,0,11.92-5.337,11.92-11.92V40.555c0-6.583-5.337-11.92-11.92-11.92H99.799H86.201z"/>
		<path class="st3" d="M214.969,169.635H41.031c-7.4,0-13.42-6.02-13.42-13.42V40.555c0-7.4,6.02-13.42,13.42-13.42h45.17
			c0.829,0,1.5,0.671,1.5,1.5c0,0.829-0.671,1.5-1.5,1.5h-45.17c-5.746,0-10.42,4.674-10.42,10.42v115.66
			c0,5.746,4.674,10.42,10.42,10.42h173.938c5.746,0,10.42-4.674,10.42-10.42V40.555c0-5.746-4.674-10.42-10.42-10.42H99.799
			c-0.829,0-1.5-0.671-1.5-1.5c0-0.829,0.671-1.5,1.5-1.5h115.17c7.4,0,13.42,6.02,13.42,13.42v115.66
			C228.389,163.615,222.369,169.635,214.969,169.635z"/>
		<rect x="113.687" y="180.635" class="st4" width="28.625" height="35.593"/>
		<path class="st3" d="M142.312,217.729h-28.625c-0.829,0-1.5-0.671-1.5-1.5v-35.593c0-0.829,0.671-1.5,1.5-1.5h28.625
			c0.829,0,1.5,0.671,1.5,1.5v35.593C143.812,217.057,143.141,217.729,142.312,217.729z M115.187,214.729h25.625v-32.593h-25.625
			V214.729z"/>
		<path class="st4" d="M135.451,239.635h36.252c0-12.927-10.48-23.407-23.407-23.407h-40.593c-12.927,0-23.407,10.479-23.407,23.407
			h37.584H135.451z"/>
		<path class="st3" d="M171.703,241.135h-36.251c-0.829,0-1.5-0.671-1.5-1.5c0-0.829,0.671-1.5,1.5-1.5h34.701
			c-0.773-11.382-10.281-20.407-21.856-20.407h-40.593c-11.575,0-21.082,9.024-21.856,20.407h36.034c0.829,0,1.5,0.671,1.5,1.5
			c0,0.829-0.671,1.5-1.5,1.5H84.297c-0.829,0-1.5-0.671-1.5-1.5c0-13.733,11.173-24.907,24.907-24.907h40.593
			c13.733,0,24.907,11.173,24.907,24.907C173.203,240.464,172.532,241.135,171.703,241.135z"/>
		<path class="st14" d="M47.671,203.469c0,0,3.408,12.659,13.222,13.247c0,0-13.1,4.525-13.321,14.202
			c0,0-2.579-13.572-12.925-14.059C34.647,216.859,46.697,215.033,47.671,203.469z"/>
		<path class="st3" d="M47.57,232.417c-0.712,0-1.335-0.506-1.472-1.217c-0.024-0.124-2.495-12.417-11.523-12.842
			c-0.77-0.037-1.387-0.651-1.427-1.421c-0.04-0.771,0.511-1.445,1.273-1.561c0.441-0.069,10.895-1.817,11.755-12.033
			c0.061-0.725,0.634-1.301,1.359-1.367c0.735-0.059,1.393,0.399,1.583,1.102c0.032,0.116,3.259,11.626,11.863,12.141
			c0.714,0.043,1.298,0.584,1.396,1.292c0.098,0.708-0.319,1.388-0.994,1.623c-0.121,0.042-12.118,4.311-12.313,12.819
			c-0.018,0.767-0.61,1.396-1.375,1.46C47.655,232.416,47.612,232.417,47.57,232.417z M39.83,216.688
			c3.878,1.969,6.23,5.746,7.587,8.877c2.026-4.021,5.942-6.787,8.949-8.427c-4.135-1.842-6.783-5.651-8.334-8.723
			C46.239,212.774,42.76,215.283,39.83,216.688z"/>
		<path class="st14" d="M25.972,220.45c0,0,2.411,8.954,9.352,9.369c0,0-9.266,3.201-9.422,10.046c0,0-1.824-9.6-9.142-9.944
			C16.76,229.921,25.284,228.629,25.972,220.45z"/>
		<path class="st3" d="M25.9,241.365c-0.713,0-1.337-0.507-1.472-1.22c-0.016-0.082-1.704-8.441-7.739-8.726
			c-0.77-0.037-1.387-0.651-1.427-1.421c-0.04-0.77,0.511-1.445,1.274-1.56c0.296-0.047,7.364-1.243,7.942-8.114
			c0.061-0.726,0.635-1.303,1.36-1.368c0.731-0.064,1.392,0.4,1.582,1.102l0,0c0.021,0.079,2.228,7.92,7.994,8.265
			c0.714,0.043,1.299,0.584,1.396,1.293c0.098,0.709-0.32,1.388-0.996,1.622c-0.081,0.028-8.282,2.952-8.413,8.662
			c-0.018,0.768-0.611,1.397-1.376,1.461C25.983,241.363,25.942,241.365,25.9,241.365z M21.382,229.837
			c2.107,1.333,3.524,3.394,4.447,5.28c1.376-2.232,3.515-3.872,5.365-4.973c-2.287-1.27-3.884-3.35-4.941-5.224
			C25.079,227.208,23.238,228.796,21.382,229.837z"/>
		<path class="st14" d="M25.972,193.792c0,0,2.411,8.954,9.352,9.369c0,0-9.266,3.201-9.422,10.046c0,0-1.824-9.6-9.142-9.944
			C16.76,203.263,25.284,201.972,25.972,193.792z"/>
		<path class="st3" d="M25.901,214.708c-0.714,0-1.337-0.507-1.473-1.22c-0.016-0.081-1.704-8.442-7.739-8.726
			c-0.77-0.037-1.387-0.651-1.427-1.421c-0.04-0.77,0.511-1.445,1.274-1.561c0.296-0.047,7.364-1.243,7.942-8.113
			c0.061-0.726,0.635-1.303,1.36-1.368c0.731-0.066,1.392,0.4,1.582,1.102l0,0c0.021,0.079,2.228,7.919,7.994,8.264
			c0.714,0.043,1.299,0.584,1.396,1.293c0.098,0.709-0.319,1.388-0.996,1.622c-0.081,0.028-8.282,2.953-8.413,8.662
			c-0.018,0.768-0.611,1.398-1.376,1.461C25.983,214.706,25.942,214.708,25.901,214.708z M21.382,203.18
			c2.107,1.333,3.523,3.395,4.447,5.28c1.376-2.232,3.515-3.872,5.365-4.973c-2.287-1.269-3.884-3.35-4.941-5.223
			C25.079,200.55,23.238,202.139,21.382,203.18z"/>
		<path class="st3" d="M55.465,169.635c-0.829,0-1.5-0.671-1.5-1.5v-13.339c0-0.829,0.671-1.5,1.5-1.5c0.829,0,1.5,0.671,1.5,1.5
			v13.339C56.965,168.964,56.294,169.635,55.465,169.635z"/>
		<path class="st3" d="M125.019,169.635c-0.829,0-1.5-0.671-1.5-1.5v-13.339c0-0.829,0.671-1.5,1.5-1.5c0.829,0,1.5,0.671,1.5,1.5
			v13.339C126.519,168.964,125.848,169.635,125.019,169.635z"/>
		
			<ellipse transform="matrix(0.0497 -0.9988 0.9988 0.0497 21.3548 211.9116)" class="st12" cx="122.032" cy="94.734" rx="7.328" ry="7.328"/>
		<path class="st3" d="M122.032,103.563c-4.868,0-8.828-3.96-8.828-8.828c0-4.868,3.96-8.829,8.828-8.829
			c4.868,0,8.829,3.96,8.829,8.829C130.861,99.602,126.9,103.563,122.032,103.563z M122.032,88.906
			c-3.214,0-5.828,2.615-5.828,5.829c0,3.214,2.614,5.828,5.828,5.828c3.214,0,5.829-2.614,5.829-5.828
			C127.861,91.521,125.246,88.906,122.032,88.906z"/>
		<rect x="54.744" y="76.953" class="st4" width="69.725" height="79.806"/>
		<path class="st3" d="M124.469,158.259H54.744c-0.829,0-1.5-0.671-1.5-1.5V76.953c0-0.829,0.671-1.5,1.5-1.5h69.725
			c0.829,0,1.5,0.671,1.5,1.5v79.806C125.969,157.587,125.297,158.259,124.469,158.259z M56.244,155.259h66.725V78.453H56.244
			V155.259z"/>
		<path class="st7" d="M131.34,168.135v-8.447c0-10.286-8.338-18.624-18.624-18.624H100.41v-7.997
			c-3.403,2.359-6.925,3.752-10.342,3.752c-3.278,0-6.737-1.406-10.127-3.794h-0.209v8.039H67.421
			c-10.286,0-18.624,8.338-18.624,18.624v8.447H131.34z"/>
		<path class="st3" d="M131.339,169.635H48.796c-0.829,0-1.5-0.671-1.5-1.5v-8.447c0-11.096,9.028-20.124,20.124-20.124h10.812
			v-6.539c0-0.829,0.671-1.5,1.5-1.5h0.208c0.309,0,0.611,0.096,0.864,0.274c3.315,2.335,6.432,3.52,9.263,3.52
			c2.96,0,6.153-1.172,9.488-3.484c0.459-0.318,1.057-0.354,1.55-0.096c0.494,0.259,0.804,0.771,0.804,1.329v6.497h10.805
			c11.096,0,20.124,9.028,20.124,20.124v8.447C132.839,168.964,132.168,169.635,131.339,169.635z M50.296,166.635h79.543v-6.947
			c0-9.442-7.682-17.124-17.124-17.124H100.41c-0.829,0-1.5-0.671-1.5-1.5v-5.291c-3.028,1.691-5.994,2.545-8.842,2.545
			c-2.808,0-5.771-0.9-8.835-2.681v5.427c0,0.829-0.671,1.5-1.5,1.5H67.42c-9.442,0-17.124,7.682-17.124,17.124V166.635z"/>
		<path class="st8" d="M131.34,168.135v-8.452c0-10.286-8.338-18.625-18.625-18.625h-2.944l0.077,0.056l-12.799,16.975l-6.605-4.976
			l-6.605,4.976L71.04,141.114l0.076-0.056h-3.696c-10.286,0-18.624,8.338-18.624,18.625v8.452H131.34z"/>
		<path class="st3" d="M131.34,169.635H48.796c-0.829,0-1.5-0.671-1.5-1.5v-8.452c0-11.097,9.028-20.125,20.124-20.125h3.696
			c0.649,0,1.224,0.417,1.426,1.034c0.004,0.013,0.008,0.027,0.012,0.04l11.58,15.357l5.407-4.075c0.535-0.402,1.271-0.403,1.806,0
			l5.407,4.074l11.669-15.477c0.227-0.56,0.738-0.954,1.348-0.954h2.944c11.097,0,20.125,9.028,20.125,20.125v8.452
			C132.84,168.964,132.168,169.635,131.34,169.635z M50.296,166.635h79.543v-6.952c0-9.443-7.682-17.125-17.125-17.125h-2.077
			l-12.392,16.434c-0.499,0.662-1.439,0.794-2.101,0.295l-5.702-4.296l-5.702,4.297c-0.662,0.498-1.602,0.366-2.101-0.295
			L70.25,142.558h-2.829c-9.442,0-17.124,7.682-17.124,17.125V166.635z"/>
		
			<ellipse transform="matrix(0.9867 -0.1623 0.1623 0.9867 -14.63 10.6846)" class="st12" cx="58.087" cy="94.895" rx="7.328" ry="7.328"/>
		<path class="st3" d="M58.087,103.723c-4.868,0-8.828-3.96-8.828-8.828c0-4.868,3.96-8.829,8.828-8.829
			c4.868,0,8.829,3.961,8.829,8.829C66.916,99.763,62.956,103.723,58.087,103.723z M58.087,89.066c-3.214,0-5.828,2.615-5.828,5.829
			c0,3.214,2.614,5.828,5.828,5.828c3.214,0,5.829-2.614,5.829-5.828C63.916,91.681,61.301,89.066,58.087,89.066z"/>
		<path class="st12" d="M129.379,94.895c0,4.047-3.281,7.328-7.328,7.328c-4.047,0-7.328-3.281-7.328-7.328
			c0-4.047,3.281-7.328,7.328-7.328C126.098,87.567,129.379,90.848,129.379,94.895z"/>
		<path class="st3" d="M122.051,103.723c-4.868,0-8.828-3.96-8.828-8.828c0-4.868,3.96-8.829,8.828-8.829s8.828,3.961,8.828,8.829
			C130.879,99.763,126.918,103.723,122.051,103.723z M122.051,89.066c-3.214,0-5.828,2.615-5.828,5.829
			c0,3.214,2.614,5.828,5.828,5.828c3.214,0,5.828-2.614,5.828-5.828C127.879,91.681,125.265,89.066,122.051,89.066z"/>
		<path class="st7" d="M122.556,91.338c0,17.942-17.28,45.482-32.487,45.482c-14.516,0-32.487-27.54-32.487-45.482
			c0-17.942,14.545-32.487,32.487-32.487C108.011,58.85,122.556,73.396,122.556,91.338z"/>
		<path class="st3" d="M90.069,138.319c-7.25,0-15.605-6.072-22.921-16.66c-6.826-9.878-11.066-21.497-11.066-30.322
			c0-18.74,15.247-33.987,33.987-33.987c18.74,0,33.987,15.247,33.987,33.987C124.056,110.315,106.153,138.319,90.069,138.319z
			 M90.069,60.351c-17.086,0-30.987,13.9-30.987,30.987c0,16.712,17.311,43.982,30.987,43.982c6.412,0,14.153-5.741,20.707-15.357
			c6.341-9.304,10.28-20.272,10.28-28.624C121.056,74.251,107.156,60.351,90.069,60.351z"/>
		<path class="st3" d="M81.77,90.971c0,1.751-1.42,3.171-3.171,3.171c-1.751,0-3.171-1.42-3.171-3.171
			c0-1.751,1.42-3.171,3.171-3.171C80.351,87.8,81.77,89.22,81.77,90.971z"/>
		<path class="st3" d="M104.71,90.971c0,1.751-1.42,3.171-3.171,3.171c-1.751,0-3.171-1.42-3.171-3.171
			c0-1.751,1.419-3.171,3.171-3.171C103.29,87.8,104.71,89.22,104.71,90.971z"/>
		<path class="st13" d="M77.724,100.398c0,2.255-2.446,4.083-5.462,4.083c-3.017,0-5.462-1.828-5.462-4.083
			c0-2.255,2.446-4.083,5.462-4.083C75.279,96.315,77.724,98.143,77.724,100.398z"/>
		<path class="st13" d="M113.338,100.398c0,2.255-2.445,4.083-5.462,4.083c-3.017,0-5.462-1.828-5.462-4.083
			c0-2.255,2.445-4.083,5.462-4.083C110.893,96.315,113.338,98.143,113.338,100.398z"/>
		
			<rect x="76.605" y="136.471" transform="matrix(0.7986 -0.6018 0.6018 0.7986 -72.2688 78.2282)" class="st4" width="8.305" height="21.259"/>
		<path class="st3" d="M83.839,159.589c-0.455,0-0.904-0.206-1.199-0.597l-12.795-16.978c-0.499-0.662-0.367-1.602,0.295-2.101
			l6.632-4.999c0.318-0.239,0.719-0.342,1.111-0.288c0.394,0.055,0.75,0.265,0.989,0.583l12.795,16.978
			c0.24,0.318,0.343,0.718,0.288,1.111c-0.055,0.394-0.265,0.75-0.582,0.989l-6.633,4.998
			C84.471,159.491,84.154,159.589,83.839,159.589z M73.144,141.406l10.99,14.582l4.237-3.193l-10.99-14.582L73.144,141.406z"/>
		
			<rect x="95.978" y="136.471" transform="matrix(-0.7986 -0.6019 0.6019 -0.7986 91.5613 324.8408)" class="st4" width="8.305" height="21.259"/>
		<path class="st3" d="M97.048,159.589c-0.314,0-0.631-0.098-0.902-0.302l-6.632-4.998c-0.318-0.239-0.527-0.595-0.583-0.989
			c-0.055-0.393,0.048-0.793,0.288-1.111l12.795-16.978c0.239-0.318,0.595-0.527,0.989-0.583c0.394-0.055,0.794,0.048,1.111,0.288
			l6.632,4.999c0.318,0.239,0.527,0.595,0.583,0.989c0.055,0.394-0.048,0.794-0.288,1.111l-12.795,16.978
			C97.952,159.383,97.503,159.589,97.048,159.589z M92.518,152.796l4.237,3.192l10.99-14.582l-4.237-3.193L92.518,152.796z"/>
		<path class="st3" d="M90.068,119.189c-4.82,0-8.296-2.167-10.331-6.442c-0.356-0.748-0.038-1.643,0.71-1.999
			c0.747-0.356,1.643-0.039,1.999,0.71c1.537,3.228,3.958,4.731,7.622,4.731c4.622,0,6.975-3.018,7.572-4.613
			c0.291-0.776,1.156-1.168,1.931-0.878c0.775,0.29,1.169,1.155,0.878,1.931C99.266,115.788,95.512,119.189,90.068,119.189z"/>
		<path class="st4" d="M127.041,79.431c0,3.328-0.433,6.555-1.251,9.627c-8.321-4.012-16.236-8.937-23.569-14.504
			c-2.151-1.631-4.269-3.329-6.292-5.128c-2.483-2.178-4.83-4.526-6.948-7.069c-4.607-5.547-7.989-11.92-10.851-18.556
			C81.743,42.629,85.599,42,89.604,42c10.709,0,20.369,4.499,27.195,11.71C123.152,60.414,127.041,69.466,127.041,79.431z"/>
		<path class="st3" d="M125.79,90.557c-0.223,0-0.446-0.05-0.651-0.149c-8.206-3.956-16.222-8.888-23.825-14.66
			c-2.426-1.839-4.514-3.542-6.381-5.202c-2.666-2.34-5.059-4.774-7.103-7.23c-4.14-4.985-7.659-10.997-11.076-18.922
			c-0.167-0.388-0.163-0.828,0.011-1.212c0.174-0.385,0.502-0.678,0.904-0.809C81.505,41.13,85.52,40.5,89.604,40.5
			c10.806,0,20.852,4.325,28.285,12.179c6.87,7.249,10.653,16.75,10.653,26.752c0,3.403-0.438,6.772-1.302,10.013
			c-0.115,0.432-0.417,0.79-0.823,0.977C126.217,90.512,126.003,90.557,125.79,90.557z M80.187,44.751
			c3.086,6.895,6.269,12.215,9.949,16.646c1.943,2.334,4.226,4.657,6.783,6.9c1.815,1.615,3.844,3.268,6.209,5.06
			c6.926,5.258,14.198,9.803,21.64,13.526c0.515-2.433,0.774-4.932,0.774-7.453c0-9.231-3.491-17.999-9.831-24.689
			C108.849,47.492,99.578,43.5,89.604,43.5C86.397,43.5,83.237,43.92,80.187,44.751z"/>
		<path class="st4" d="M116.799,53.71c-6.44,5.872-13.449,11.068-20.87,15.715C82.771,77.672,68.342,84.18,53.574,89.599
			c-0.913-3.234-1.4-6.643-1.4-10.168c0-16.669,10.898-30.794,25.957-35.631C81.743,42.629,85.599,42,89.604,42
			C100.313,42,109.973,46.499,116.799,53.71z"/>
		<path class="st3" d="M53.574,91.099c-0.235,0-0.469-0.055-0.682-0.164c-0.372-0.19-0.648-0.526-0.761-0.928
			c-0.967-3.424-1.457-6.982-1.457-10.576c0-16.979,10.85-31.872,26.999-37.06C81.505,41.13,85.52,40.5,89.604,40.5
			c10.806,0,20.852,4.325,28.285,12.179c0.277,0.292,0.424,0.684,0.41,1.086c-0.015,0.402-0.191,0.782-0.488,1.053
			c-6.216,5.667-13.31,11.009-21.085,15.878c-12.084,7.574-26.03,14.217-42.635,20.31C53.923,91.068,53.748,91.099,53.574,91.099z
			 M89.604,43.5c-3.77,0-7.474,0.581-11.011,1.727c-14.907,4.788-24.92,18.533-24.92,34.204c0,2.77,0.315,5.516,0.938,8.185
			c15.724-5.862,28.993-12.236,40.521-19.461c7.143-4.473,13.695-9.349,19.497-14.508C107.891,47.091,99.063,43.5,89.604,43.5z"/>
		<path class="st3" d="M207.204,55.5h-54.5c-0.829,0-1.5-0.671-1.5-1.5s0.671-1.5,1.5-1.5h54.5c0.829,0,1.5,0.671,1.5,1.5
			S208.032,55.5,207.204,55.5z"/>
		<path class="st3" d="M207.204,73.5h-54.5c-0.829,0-1.5-0.671-1.5-1.5s0.671-1.5,1.5-1.5h54.5c0.829,0,1.5,0.671,1.5,1.5
			S208.032,73.5,207.204,73.5z"/>
		<path class="st3" d="M207.204,91.5h-54.5c-0.829,0-1.5-0.671-1.5-1.5c0-0.829,0.671-1.5,1.5-1.5h54.5c0.829,0,1.5,0.671,1.5,1.5
			C208.704,90.829,208.032,91.5,207.204,91.5z"/>
		<path class="st3" d="M207.204,109.5h-54.5c-0.829,0-1.5-0.671-1.5-1.5c0-0.829,0.671-1.5,1.5-1.5h54.5c0.829,0,1.5,0.671,1.5,1.5
			C208.704,108.829,208.032,109.5,207.204,109.5z"/>
		<path class="st3" d="M207.204,127.5h-54.5c-0.829,0-1.5-0.671-1.5-1.5c0-0.829,0.671-1.5,1.5-1.5h54.5c0.829,0,1.5,0.671,1.5,1.5
			C208.704,126.829,208.032,127.5,207.204,127.5z"/>
		<path class="st3" d="M207.204,145.5h-54.5c-0.829,0-1.5-0.671-1.5-1.5c0-0.829,0.671-1.5,1.5-1.5h54.5c0.829,0,1.5,0.671,1.5,1.5
			C208.704,144.829,208.032,145.5,207.204,145.5z"/>
		<path class="st17" d="M210.39,40.555v115.66c0,5.75-4.679,10.419-10.419,10.42c0,0-0.001,0-0.001,0h15
			c5.74,0,10.42-4.67,10.42-10.42V40.555c0-5.75-4.68-10.42-10.42-10.42l0,0h-15C205.71,30.135,210.39,34.805,210.39,40.555z"/>
	</g>
</g>
</svg>
