<svg width="67" height="66" viewBox="0 0 67 66" fill="none" xmlns="http://www.w3.org/2000/svg">
<g clip-path="url(#clip0_782_1124)">
<path d="M18.6758 49.2349L23.4361 11.3993L55.9254 40.5424L18.6758 49.2349ZM23.4361 11.3993L36.5251 5.94718L59.3777 26.4462L55.9254 40.5424L23.4361 11.3993Z" fill="#94DFFF"/>
<path opacity="0.15" d="M18.6758 49.2348L53.1154 37.0279L58.5538 26.7007L59.3777 26.4461L55.9254 40.5423L18.6758 49.2348Z" fill="#6E6E96"/>
<path d="M43.6775 48.9343L44.7789 49.9222L39.7159 55.5666L38.6145 54.5786L43.6775 48.9343Z" fill="#6E6E96"/>
<path d="M40.8276 49.6074L44.418 52.8281L43.4301 53.9294L39.8397 50.7088L40.8276 49.6074Z" fill="#6E6E96"/>
<path opacity="0.43" d="M12.1574 35.3344L11.3258 34.5886L12.4484 33.3372L11.347 32.3493L10.2245 33.6006L9.39287 32.8547L8.40497 33.956L9.23661 34.702L7.44863 36.6953L8.54996 37.6832L10.3379 35.6899L11.1695 36.4358L12.1574 35.3344Z" fill="#6E6E96"/>
<path opacity="0.15" d="M51.6722 20.3579L48.8478 33.2001L19.3704 48.9824L45.4252 32.0748L51.1215 19.8639L51.6722 20.3579Z" fill="#6E6E96"/>
<path opacity="0.49" d="M36.8419 7.2249L28.4143 12.4967L34.0736 19.9473L26.0092 18.9045L18.8404 48.7037L24.1655 11.523L36.3627 6.12805L36.8419 7.2249ZM45.6679 15.142L38.5896 22.1215L45.7381 31.4042L35.8788 26.1487L20.9397 47.6947L34.0364 20.9077L44.3349 13.9462L45.6679 15.142Z" fill="white"/>
<path d="M56.2591 41.2011C56.273 41.1939 56.2869 41.187 56.3001 41.1792C56.3278 41.1624 56.3545 41.1441 56.3803 41.1245C56.3941 41.114 56.4068 41.1023 56.4197 41.0908C56.4311 41.0808 56.4422 41.0707 56.4526 41.0599C56.465 41.0474 56.4762 41.0341 56.4877 41.0208C56.497 41.0093 56.5069 40.9983 56.5159 40.9865C56.5264 40.972 56.5363 40.9572 56.5457 40.942C56.5536 40.9296 56.5621 40.9179 56.5691 40.9051C56.5783 40.889 56.5859 40.8722 56.5938 40.8554C56.5999 40.8425 56.6064 40.83 56.6119 40.8167C56.6191 40.7986 56.6245 40.7796 56.6304 40.7608C56.634 40.7491 56.6388 40.738 56.6419 40.7262L56.6427 40.7217L56.6437 40.7181L60.096 26.6218C60.128 26.4918 60.124 26.3555 60.0845 26.2275C60.045 26.0996 59.9714 25.9847 59.8717 25.8954L37.0191 5.39635C36.9151 5.30303 36.7868 5.24109 36.649 5.21769C36.5113 5.1943 36.3697 5.21041 36.2408 5.26416L23.1518 10.7163C23.1384 10.7218 23.1258 10.7292 23.1129 10.7355C23.1007 10.7414 23.0883 10.7469 23.0764 10.7535C23.0586 10.7634 23.0418 10.7746 23.0253 10.7859C23.0152 10.7927 23.0046 10.7986 22.9948 10.806C22.9761 10.82 22.9586 10.8353 22.9413 10.8509C22.9348 10.8568 22.9277 10.862 22.9213 10.8682C22.8982 10.8906 22.8765 10.9144 22.8566 10.9396C22.8539 10.9429 22.8518 10.9468 22.849 10.9502C22.8323 10.9722 22.8163 10.9947 22.8021 11.0186C22.7967 11.0277 22.7922 11.0374 22.7872 11.0468C22.777 11.0657 22.7669 11.0845 22.7582 11.1043C22.7532 11.1157 22.7493 11.1279 22.745 11.1396C22.738 11.1582 22.7311 11.1766 22.7256 11.1958C22.722 11.2087 22.7193 11.2219 22.7164 11.2352C22.7133 11.2486 22.7092 11.2615 22.7069 11.2751C22.706 11.2808 22.7059 11.2867 22.7051 11.2924C22.7044 11.2973 22.7028 11.3018 22.7023 11.3068L17.9421 49.1423C17.9272 49.2607 17.9411 49.3808 17.9826 49.4926C18.0242 49.6044 18.0921 49.7045 18.1807 49.7844C18.2693 49.8643 18.3759 49.9215 18.4914 49.9513C18.6069 49.981 18.7279 49.9824 18.844 49.9553L56.0932 41.2625C56.1011 41.2606 56.1088 41.2576 56.1163 41.2554C56.1252 41.2529 56.1346 41.2516 56.1434 41.2489C56.1518 41.2462 56.1597 41.2424 56.1681 41.2394C56.1991 41.2284 56.2295 41.2156 56.2591 41.2011ZM50.4905 19.4679L45.4892 30.1872L35.1941 20.9524L44.3349 13.9462L50.4905 19.4679ZM44.5368 31.3204L21.4791 46.8194L34.2545 22.097L44.5368 31.3204ZM33.1166 21.0763L19.6965 47.0469L23.9937 12.893L33.1166 21.0763ZM45.6728 32.3394L54.3743 40.1447L23.2603 47.4053L45.6728 32.3394ZM55.5006 39.1675L46.6405 31.2199L51.642 20.5007L58.5538 26.7007L55.5006 39.1675ZM36.3786 6.80936L43.2145 12.9412L34.0736 19.9473L24.8028 11.6312L36.3786 6.80936Z" fill="#6E6E96"/>
</g>
<defs>
<clipPath id="clip0_782_1124">
<rect width="46.5569" height="46.5569" fill="white" transform="translate(31.7153 0.127686) rotate(41.8924)"/>
</clipPath>
</defs>
</svg>
