<svg width="24" height="24" viewBox="0 0 24 24" fill="none" xmlns="http://www.w3.org/2000/svg">
<path d="M19.352 7.61662L15.392 4.05362C14.265 3.03862 13.702 2.53062 13.009 2.26562L13 4.99962C13 7.35663 13 8.53562 13.732 9.26762C14.464 9.99962 15.643 9.99963 18 9.99963H21.58C21.218 9.29563 20.568 8.71163 19.352 7.61662Z" fill="#596E7D"/>
<path fill-rule="evenodd" clip-rule="evenodd" d="M10 22H14C17.771 22 19.657 22 20.828 20.828C21.999 19.656 22 17.771 22 14V13.563C22 12.69 22 12.034 21.957 11.5H17.905C16.808 11.5 15.838 11.5 15.057 11.395C14.21 11.281 13.363 11.02 12.672 10.329C11.98 9.637 11.719 8.79 11.605 7.943C11.5 7.162 11.5 6.193 11.5 5.095L11.51 2.261C11.51 2.17833 11.5167 2.097 11.53 2.017C11.121 2 10.636 2 10.03 2C6.239 2 4.343 2 3.172 3.172C2 4.343 2 6.229 2 10V14C2 17.771 2 19.657 3.172 20.828C4.344 21.999 6.229 22 10 22ZM7.987 19.047C8.12601 19.1773 8.30943 19.2499 8.5 19.2499C8.69057 19.2499 8.87399 19.1773 9.013 19.047L11.013 17.172C11.1547 17.0351 11.2368 16.848 11.2417 16.6511C11.2466 16.4541 11.1738 16.2632 11.039 16.1195C10.9042 15.9758 10.7184 15.8909 10.5215 15.8831C10.3247 15.8754 10.1327 15.9454 9.987 16.078L9.25 16.768V13.5C9.25 13.3011 9.17098 13.1103 9.03033 12.9697C8.88968 12.829 8.69891 12.75 8.5 12.75C8.30109 12.75 8.11032 12.829 7.96967 12.9697C7.82902 13.1103 7.75 13.3011 7.75 13.5V16.769L7.013 16.078C6.86734 15.9454 6.67534 15.8754 6.47849 15.8831C6.28165 15.8909 6.09576 15.9758 5.961 16.1195C5.82624 16.2632 5.75342 16.4541 5.75829 16.6511C5.76315 16.848 5.84531 17.0351 5.987 17.172L7.987 19.047Z" fill="#596E7D"/>
</svg>
