<svg width="129" height="148" viewBox="0 0 129 148" fill="none" xmlns="http://www.w3.org/2000/svg">
<path fill-rule="evenodd" clip-rule="evenodd" d="M65.8438 17.476C63.3713 16.995 59.9957 16.958 53.9112 16.958C43.6074 16.958 36.2812 16.9703 30.7342 17.8213C25.2948 18.6538 22.1719 20.2263 19.8982 22.8287C17.6246 25.431 16.2594 29.0138 15.5338 35.2175C14.792 41.5568 14.7812 49.9065 14.7812 61.6725V86.3392C14.7812 98.0928 14.792 106.443 15.5338 112.782C16.2594 118.986 17.6246 122.562 19.8982 125.177C22.1719 127.779 25.2894 129.346 30.6966 130.178C36.2221 131.035 43.4999 131.041 53.75 131.041H75.25C85.5001 131.041 92.7833 131.029 98.3088 130.178C103.711 129.346 106.828 127.779 109.102 125.171C111.375 122.562 112.741 118.986 113.466 112.782C114.208 106.449 114.219 98.0928 114.219 86.333V83.6382C114.219 74.1662 114.165 69.6768 113.284 66.2913H96.4597C90.3699 66.2913 85.398 66.2913 81.4635 65.687C77.3624 65.0518 73.8041 63.6828 70.9607 60.4207C68.1174 57.1585 66.9241 53.0823 66.3705 48.3648C65.8437 43.8632 65.8438 38.1528 65.8438 31.1598V17.476ZM73.9062 22.2613V30.833C73.9062 38.233 73.917 43.3143 74.3631 47.1315C74.7931 50.8192 75.5671 52.626 76.6636 53.8778C77.7601 55.1297 79.3296 56.0238 82.5439 56.5172C85.871 57.029 90.3 57.0413 96.75 57.0413H107.608C105.545 54.7882 103.448 52.5761 101.319 50.406L80.0391 28.4342C78.0318 26.3287 75.9871 24.2706 73.9062 22.2613ZM54.6906 7.70801C62.135 7.70801 66.9456 7.70801 71.3692 9.65051C75.7929 11.5992 79.3511 15.2745 84.8605 20.9663L85.4356 21.5583L106.71 43.5302L107.382 44.2208C113.746 50.7883 117.863 55.0372 120.072 60.7352C122.281 66.4332 122.287 72.7849 122.281 82.6022V86.6783C122.281 98.0127 122.281 106.991 121.459 114.015C120.61 121.243 118.825 127.095 114.805 131.714C110.779 136.326 105.678 138.374 99.3784 139.348C93.2509 140.291 85.4303 140.291 75.551 140.291H53.449C43.5698 140.291 35.7438 140.291 29.6216 139.348C23.3221 138.374 18.2213 136.326 14.1954 131.714C10.1749 127.095 8.39038 121.243 7.54112 114.015C6.71875 106.985 6.71875 98.0127 6.71875 86.6783V61.3272C6.71875 49.9928 6.71875 41.0142 7.54112 33.9903C8.39038 26.763 10.1749 20.9108 14.1954 16.292C18.2266 11.6732 23.3382 9.63201 29.6646 8.65767C35.8136 7.71417 43.6772 7.71417 53.6102 7.71417H54.696" fill="#D4E8F6"/>
</svg>
