<svg width="70" height="69" viewBox="0 0 70 69" fill="none" xmlns="http://www.w3.org/2000/svg">
<g clip-path="url(#clip0_1264_4301)">
<path d="M1.46844 4.87051L1.46844 4.87051L1.46696 4.86831C1.16135 4.41555 1 3.86694 1 3.31523C1 1.75856 2.25856 0.5 3.81523 0.5H18.5451C19.8807 0.5 21.131 1.2044 21.8078 2.34414L21.809 2.34623L30.6516 17.0753C24.5584 18.0116 19.0959 20.8652 14.914 25.0191L1.46844 4.87051ZM68.6664 4.64805L68.518 4.8707L55.0858 25.0189C50.9039 20.8651 45.4415 18.0116 39.3484 17.0753L48.1903 2.34742C48.1903 2.34735 48.1904 2.34728 48.1904 2.3472C48.8821 1.20247 50.1218 0.5 51.4549 0.5H66.1848C67.7414 0.5 69 1.75856 69 3.31523C69 3.78021 68.8854 4.24299 68.6664 4.64805ZM33.4207 32.2684L33.4196 32.2708L30.402 38.3867C30.4018 38.3871 30.4016 38.3875 30.4015 38.3878C30.2833 38.6232 30.0719 38.7711 29.8398 38.802L29.8398 38.802L29.8339 38.8029L23.0699 39.7865C23.0697 39.7865 23.0696 39.7865 23.0694 39.7865C21.6103 39.9954 21.0639 41.7688 22.0863 42.7912L22.0863 42.7913L22.0908 42.7957L26.9783 47.562C26.9789 47.5626 26.9796 47.5633 26.9803 47.5639C27.1632 47.7481 27.2428 47.9902 27.2025 48.245C27.2023 48.2458 27.2022 48.2466 27.2021 48.2473L26.044 54.9668L26.0439 54.9675C25.7994 56.3966 27.3017 57.507 28.6008 56.8292L28.6026 56.8283L34.6372 53.6493C34.6375 53.6492 34.6378 53.649 34.6381 53.6489C34.8571 53.5357 35.129 53.5357 35.348 53.6487C35.3485 53.6489 35.3489 53.6491 35.3493 53.6493L41.384 56.8283L41.3857 56.8292C42.6818 57.5054 44.1868 56.4136 43.9428 54.9685L43.9425 54.9668L42.784 48.2448C42.784 48.2444 42.7839 48.244 42.7838 48.2436C42.744 48.0025 42.8237 47.7477 43.0063 47.5639C43.007 47.5632 43.0076 47.5626 43.0082 47.562L47.8937 42.7976C47.8941 42.7973 47.8945 42.7969 47.8948 42.7966C48.9558 41.7719 48.3543 40.0105 46.9229 39.7874L46.918 39.7867L40.1662 38.8029L40.1662 38.8028L40.1602 38.802C39.9262 38.7708 39.7049 38.6087 39.6013 38.3934L39.5992 38.3891L36.5818 32.2735C36.5816 32.2731 36.5813 32.2726 36.5811 32.2721C35.9373 30.9494 34.0738 30.9624 33.4207 32.2684ZM11.7812 45.2812C11.7812 39.1233 14.2275 33.2175 18.5819 28.8631C22.9362 24.5088 28.842 22.0625 35 22.0625C41.158 22.0625 47.0638 24.5088 51.4181 28.8631C55.7725 33.2175 58.2188 39.1233 58.2188 45.2812C58.2188 51.4392 55.7725 57.345 51.4181 61.6994C47.0638 66.0537 41.158 68.5 35 68.5C28.842 68.5 22.9362 66.0537 18.5819 61.6994C14.2275 57.345 11.7812 51.4392 11.7812 45.2812Z" fill="#596E7D" stroke="#596E7D"/>
</g>
<defs>
<clipPath id="clip0_1264_4301">
<rect width="69" height="69" fill="white" transform="translate(0.5)"/>
</clipPath>
</defs>
</svg>
