<svg width="69" height="69" viewBox="0 0 69 69" fill="none" xmlns="http://www.w3.org/2000/svg">
<path d="M34.5 63.25L28.75 46H5.75L11.5 63.25H34.5ZM34.5 63.25H46ZM34.5 37.375V35.9375C34.5 30.5152 34.5 27.807 32.8152 26.1223C31.1305 24.4375 28.4223 24.4375 23 24.4375C17.5777 24.4375 14.8695 24.4375 13.1847 26.1223C11.5 27.807 11.5 30.5152 11.5 35.9375V37.375M54.625 37.375C54.625 38.9 54.0192 40.3625 52.9409 41.4409C51.8625 42.5192 50.4 43.125 48.875 43.125C47.35 43.125 45.8875 42.5192 44.8091 41.4409C43.7308 40.3625 43.125 38.9 43.125 37.375C43.125 35.85 43.7308 34.3875 44.8091 33.3091C45.8875 32.2308 47.35 31.625 48.875 31.625C50.4 31.625 51.8625 32.2308 52.9409 33.3091C54.0192 34.3875 54.625 35.85 54.625 37.375ZM28.75 11.5C28.75 13.025 28.1442 14.4875 27.0659 15.5659C25.9875 16.6442 24.525 17.25 23 17.25C21.475 17.25 20.0125 16.6442 18.9341 15.5659C17.8558 14.4875 17.25 13.025 17.25 11.5C17.25 9.97501 17.8558 8.51247 18.9341 7.43414C20.0125 6.3558 21.475 5.75 23 5.75C24.525 5.75 25.9875 6.3558 27.0659 7.43414C28.1442 8.51247 28.75 9.97501 28.75 11.5ZM40.25 50.3125H57.5C59.025 50.3125 60.4875 50.9183 61.5659 51.9966C62.6442 53.075 63.25 54.5375 63.25 56.0625V57.5C63.25 59.025 62.6442 60.4875 61.5659 61.5659C60.4875 62.6442 59.025 63.25 57.5 63.25H54.625" fill="#596E7D"/>
<path d="M34.5 63.25L28.75 46H5.75L11.5 63.25H34.5ZM34.5 63.25H46M34.5 37.375V35.9375C34.5 30.5152 34.5 27.807 32.8152 26.1223C31.1305 24.4375 28.4223 24.4375 23 24.4375C17.5777 24.4375 14.8695 24.4375 13.1847 26.1223C11.5 27.807 11.5 30.5152 11.5 35.9375V37.375M40.25 50.3125H57.5C59.025 50.3125 60.4875 50.9183 61.5659 51.9966C62.6442 53.075 63.25 54.5375 63.25 56.0625V57.5C63.25 59.025 62.6442 60.4875 61.5659 61.5659C60.4875 62.6442 59.025 63.25 57.5 63.25H54.625M54.625 37.375C54.625 38.9 54.0192 40.3625 52.9409 41.4409C51.8625 42.5192 50.4 43.125 48.875 43.125C47.35 43.125 45.8875 42.5192 44.8091 41.4409C43.7308 40.3625 43.125 38.9 43.125 37.375C43.125 35.85 43.7308 34.3875 44.8091 33.3091C45.8875 32.2308 47.35 31.625 48.875 31.625C50.4 31.625 51.8625 32.2308 52.9409 33.3091C54.0192 34.3875 54.625 35.85 54.625 37.375ZM28.75 11.5C28.75 13.025 28.1442 14.4875 27.0659 15.5659C25.9875 16.6442 24.525 17.25 23 17.25C21.475 17.25 20.0125 16.6442 18.9341 15.5659C17.8558 14.4875 17.25 13.025 17.25 11.5C17.25 9.97501 17.8558 8.51247 18.9341 7.43414C20.0125 6.3558 21.475 5.75 23 5.75C24.525 5.75 25.9875 6.3558 27.0659 7.43414C28.1442 8.51247 28.75 9.97501 28.75 11.5Z" stroke="#596E7D" stroke-width="1.5" stroke-linecap="round" stroke-linejoin="round"/>
</svg>
