<svg width="1305" height="929" viewBox="0 0 1305 929" fill="none" xmlns="http://www.w3.org/2000/svg">
<path opacity="0.0526316" d="M270.674 788.9C291.883 800.544 347.55 810.92 400.543 759.264C466.784 694.695 462.973 604.548 515.829 533.045C554.841 480.271 675.307 373.099 777.833 385.119" stroke="#D4E8F6" stroke-width="1.45842"/>
<path opacity="0.105263" d="M240.918 757.847C260.794 771.644 315.072 787.782 373.174 741.949C445.801 684.657 451.434 594.605 511.474 529.019C555.789 480.612 686.798 386.619 787.505 409.291" stroke="#D4E8F6" stroke-width="1.45842"/>
<path opacity="0.157895" d="M214.133 724.852C232.458 740.652 284.751 762.375 347.326 722.866C425.544 673.48 440.559 584.51 507.126 525.559C556.258 482.049 696.374 402.266 794.159 435.34" stroke="#D4E8F6" stroke-width="1.45842"/>
<path opacity="0.210526" d="M190.504 690.238C207.078 707.866 256.814 734.936 323.176 702.184C406.127 661.245 430.36 574.332 502.725 522.662C556.135 484.526 703.823 419.826 797.616 462.94" stroke="#D4E8F6" stroke-width="1.45842"/>
<path opacity="0.263158" d="M170.185 654.341C184.825 673.605 231.46 705.725 300.881 680.09C387.658 648.045 420.842 564.142 498.212 520.319C555.316 487.975 708.958 439.067 797.731 491.749" stroke="#D4E8F6" stroke-width="1.45842"/>
<path opacity="0.315789" d="M153.292 617.515C165.838 638.204 208.859 675.023 280.58 656.785C370.231 633.987 412.004 554.011 493.531 518.516C553.703 492.318 711.616 459.738 794.395 521.41" stroke="#D4E8F6" stroke-width="1.45842"/>
<path opacity="0.368421" d="M139.901 580.124C150.216 602.011 189.153 643.125 262.387 632.483C353.93 619.181 403.834 544.01 488.624 517.232C551.205 497.467 711.659 481.571 787.538 551.559" stroke="#D4E8F6" stroke-width="1.45842"/>
<path opacity="0.421053" d="M130.055 542.537C138.025 565.383 172.452 610.342 246.397 607.413C338.829 603.753 396.317 534.21 483.442 516.441C547.746 503.326 708.982 504.29 777.13 581.825" stroke="#D4E8F6" stroke-width="1.45842"/>
<path opacity="0.473684" d="M123.754 505.126C129.292 528.679 158.83 576.99 232.677 581.807C324.985 587.829 389.427 524.676 477.932 516.111C543.255 509.79 703.507 527.602 763.177 611.836" stroke="#D4E8F6" stroke-width="1.45842"/>
<path opacity="0.526316" d="M120.958 468.259C124.004 492.262 148.33 543.396 221.269 555.906C312.442 571.543 383.133 515.472 472.047 516.206C537.673 516.747 695.185 551.212 745.724 641.222" stroke="#D4E8F6" stroke-width="1.45842"/>
<path opacity="0.578947" d="M121.593 432.3C122.113 456.49 140.962 509.887 212.193 529.952C301.232 555.034 377.397 506.66 465.748 516.683C530.958 524.082 684.004 574.822 724.857 669.622" stroke="#D4E8F6" stroke-width="1.45842"/>
<path opacity="0.631579" d="M125.546 397.603C123.534 421.716 136.698 476.79 205.442 504.191C291.371 538.443 372.175 498.295 458.994 517.499C523.074 531.673 669.978 598.133 700.698 696.684" stroke="#D4E8F6" stroke-width="1.45842"/>
<path opacity="0.684211" d="M132.664 364.509C128.144 388.279 135.478 444.428 200.981 478.864C282.86 521.91 367.418 490.428 451.754 518.602C514.001 539.397 653.153 620.849 673.403 722.07" stroke="#D4E8F6" stroke-width="1.45842"/>
<path opacity="0.736842" d="M142.766 333.338C135.785 356.505 137.21 413.113 198.755 454.208C275.685 505.577 363.071 483.106 444 519.941C503.732 547.128 633.608 642.68 643.167 745.464" stroke="#D4E8F6" stroke-width="1.45842"/>
<path opacity="0.789474" d="M155.631 304.392C146.268 326.703 141.768 383.15 198.68 430.453C269.819 489.581 359.075 476.368 435.71 521.461C492.273 554.743 611.45 663.346 610.213 766.566" stroke="#D4E8F6" stroke-width="1.45842"/>
<path opacity="0.842105" d="M171.014 277.949C159.369 299.159 148.994 354.826 200.649 407.819C265.219 474.059 355.366 470.248 426.869 523.105C479.643 562.116 586.815 682.583 574.794 785.108" stroke="#D4E8F6" stroke-width="1.45842"/>
<path opacity="0.894737" d="M188.638 254.257C174.84 274.133 158.702 328.411 204.536 386.513C261.827 459.14 351.879 464.773 417.465 524.814C465.872 569.128 559.865 700.137 537.194 800.844" stroke="#D4E8F6" stroke-width="1.45842"/>
<path opacity="0.947368" d="M208.203 233.535C192.403 251.861 170.681 304.154 210.189 366.729C259.575 444.947 348.545 459.962 407.496 526.529C451.006 575.661 530.789 715.777 497.716 813.562" stroke="#D4E8F6" stroke-width="1.45842"/>
<path d="M229.389 215.972C211.761 232.545 184.691 282.281 217.443 348.643C258.382 431.595 345.295 455.827 396.965 528.192C435.101 581.603 499.801 729.291 456.687 823.083" stroke="#D4E8F6" stroke-width="1.45842"/>
<path opacity="0.0526316" d="M778.674 752.9C799.883 764.544 855.551 774.92 908.543 723.264C974.784 658.695 970.973 568.548 1023.83 497.045C1062.84 444.271 1183.31 337.099 1285.83 349.119" stroke="#D4E8F6" stroke-width="1.45842"/>
<path opacity="0.105263" d="M748.918 721.847C768.794 735.644 823.072 751.782 881.174 705.949C953.801 648.657 959.434 558.605 1019.47 493.019C1063.79 444.612 1194.8 350.619 1295.5 373.291" stroke="#D4E8F6" stroke-width="1.45842"/>
<path opacity="0.157895" d="M722.132 688.852C740.458 704.652 792.751 726.375 855.326 686.866C933.544 637.48 948.559 548.51 1015.13 489.559C1064.26 446.049 1204.37 366.266 1302.16 399.34" stroke="#D4E8F6" stroke-width="1.45842"/>
<path opacity="0.210526" d="M698.504 654.238C715.078 671.866 764.814 698.936 831.176 666.184C914.127 625.245 938.36 538.332 1010.72 486.662C1064.14 448.526 1211.82 383.826 1305.62 426.94" stroke="#D4E8F6" stroke-width="1.45842"/>
<path opacity="0.263158" d="M678.185 618.341C692.825 637.605 739.46 669.725 808.881 644.09C895.658 612.045 928.842 528.142 1006.21 484.319C1063.32 451.975 1216.96 403.067 1305.73 455.749" stroke="#D4E8F6" stroke-width="1.45842"/>
<path opacity="0.315789" d="M661.292 581.515C673.838 602.204 716.859 639.023 788.58 620.785C878.231 597.987 920.004 518.011 1001.53 482.516C1061.7 456.318 1219.62 423.738 1302.39 485.41" stroke="#D4E8F6" stroke-width="1.45842"/>
<path opacity="0.368421" d="M647.901 544.124C658.216 566.011 697.153 607.125 770.387 596.483C861.93 583.181 911.834 508.01 996.624 481.232C1059.21 461.467 1219.66 445.571 1295.54 515.559" stroke="#D4E8F6" stroke-width="1.45842"/>
<path opacity="0.421053" d="M638.055 506.537C646.025 529.383 680.452 574.342 754.397 571.413C846.829 567.753 904.317 498.21 991.442 480.441C1055.75 467.326 1216.98 468.29 1285.13 545.825" stroke="#D4E8F6" stroke-width="1.45842"/>
<path opacity="0.473684" d="M631.754 469.126C637.292 492.679 666.83 540.99 740.677 545.807C832.985 551.829 897.427 488.676 985.932 480.111C1051.25 473.79 1211.51 491.602 1271.18 575.836" stroke="#D4E8F6" stroke-width="1.45842"/>
<path opacity="0.526316" d="M628.958 432.259C632.004 456.262 656.33 507.396 729.269 519.906C820.442 535.543 891.132 479.472 980.047 480.206C1045.67 480.747 1203.19 515.212 1253.72 605.222" stroke="#D4E8F6" stroke-width="1.45842"/>
<path opacity="0.578947" d="M629.593 396.3C630.113 420.49 648.962 473.887 720.193 493.952C809.232 519.034 885.397 470.66 973.748 480.683C1038.96 488.082 1192 538.822 1232.86 633.622" stroke="#D4E8F6" stroke-width="1.45842"/>
<path opacity="0.631579" d="M633.546 361.603C631.534 385.716 644.698 440.79 713.442 468.191C799.371 502.443 880.175 462.295 966.994 481.499C1031.07 495.673 1177.98 562.133 1208.7 660.684" stroke="#D4E8F6" stroke-width="1.45842"/>
<path opacity="0.684211" d="M640.664 328.509C636.144 352.279 643.478 408.428 708.981 442.864C790.86 485.91 875.418 454.428 959.754 482.602C1022 503.397 1161.15 584.849 1181.4 686.07" stroke="#D4E8F6" stroke-width="1.45842"/>
<path opacity="0.736842" d="M650.766 297.338C643.785 320.505 645.21 377.113 706.755 418.208C783.685 469.577 871.071 447.106 952 483.941C1011.73 511.128 1141.61 606.68 1151.17 709.464" stroke="#D4E8F6" stroke-width="1.45842"/>
<path opacity="0.789474" d="M663.631 268.392C654.268 290.703 649.768 347.15 706.68 394.453C777.819 453.581 867.075 440.368 943.71 485.461C1000.27 518.743 1119.45 627.346 1118.21 730.566" stroke="#D4E8F6" stroke-width="1.45842"/>
<path opacity="0.842105" d="M679.014 241.949C667.369 263.159 656.994 318.826 708.649 371.819C773.219 438.059 863.366 434.248 934.869 487.105C987.643 526.116 1094.81 646.583 1082.79 749.108" stroke="#D4E8F6" stroke-width="1.45842"/>
<path opacity="0.894737" d="M696.638 218.257C682.84 238.133 666.702 292.411 712.536 350.513C769.827 423.14 859.879 428.773 925.465 488.814C973.872 533.128 1067.86 664.137 1045.19 764.844" stroke="#D4E8F6" stroke-width="1.45842"/>
<path opacity="0.947368" d="M716.203 197.535C700.403 215.861 678.681 268.154 718.189 330.729C767.575 408.947 856.545 423.962 915.496 490.529C959.006 539.661 1038.79 679.777 1005.72 777.562" stroke="#D4E8F6" stroke-width="1.45842"/>
<path d="M737.389 179.972C719.761 196.545 692.691 246.281 725.443 312.643C766.382 395.595 853.295 419.827 904.965 492.192C943.101 545.603 1007.8 693.291 964.687 787.083" stroke="#D4E8F6" stroke-width="1.45842"/>
</svg>
