<svg width="67" height="66" viewBox="0 0 67 66" fill="none" xmlns="http://www.w3.org/2000/svg">
<g clip-path="url(#clip0_782_1095)">
<path d="M27.426 40.4523L23.633 44.6809C23.4654 44.8677 23.1778 44.8833 22.9909 44.7157C22.8041 44.5481 22.7885 44.2605 22.9561 44.0737L26.7491 39.8451C26.9173 39.6576 27.2043 39.6427 27.3912 39.8103C27.578 39.9779 27.5942 40.2648 27.426 40.4523ZM29.0485 41.9077L26.5719 44.6688C26.4043 44.8556 26.1166 44.8712 25.9298 44.7036C25.743 44.536 25.7274 44.2484 25.895 44.0616L28.3716 41.3005C28.5398 41.113 28.8269 41.0981 29.0137 41.2657C29.2005 41.4333 29.2167 41.7202 29.0485 41.9077ZM31.8866 42.008L29.2909 44.9017C29.1234 45.0885 28.8357 45.1042 28.6489 44.9366C28.4621 44.769 28.4465 44.4814 28.614 44.2945L31.2097 41.4008C31.3779 41.2133 31.665 41.1984 31.8518 41.366C32.0386 41.5335 32.0548 41.8205 31.8866 42.008ZM25.3966 36.1863L22.8009 39.0801C22.6333 39.2669 22.3457 39.2825 22.1588 39.1149C21.972 38.9473 21.9564 38.6597 22.124 38.4729L24.7197 35.5792C24.8879 35.3917 25.1749 35.3767 25.3617 35.5443C25.5485 35.7119 25.5648 35.9989 25.3966 36.1863ZM25.8035 38.9969L23.3268 41.758C23.1592 41.9448 22.8716 41.9604 22.6848 41.7928C22.498 41.6252 22.4824 41.3376 22.6499 41.1508L25.1266 38.3897C25.2948 38.2022 25.5818 38.1873 25.7687 38.3549C25.9555 38.5224 25.9717 38.8094 25.8035 38.9969Z" fill="white"/>
<path d="M39.7624 42.4092C39.7583 42.4055 39.7562 42.4011 39.7528 42.3981L38.9047 41.6373C39.5028 40.8778 39.981 40.0669 40.3361 39.2054C41.2441 37.0015 41.1114 35.0074 40.9051 33.8756C45.3762 30.0513 47.1747 25.5911 47.8937 22.5017C48.6444 19.2735 48.3931 16.9581 48.3821 16.8615C48.3812 16.8583 48.3811 16.8557 48.3803 16.8525C48.3801 16.8487 48.3786 16.8449 48.3778 16.8417C48.3764 16.8283 48.3731 16.8156 48.3698 16.8016C48.3674 16.7933 48.3663 16.7838 48.3639 16.7755C48.3609 16.7679 48.358 16.7617 48.3557 16.7547C48.3512 16.7434 48.3467 16.732 48.3416 16.7213C48.3373 16.7126 48.3336 16.7044 48.3299 16.6962C48.3257 16.6887 48.3208 16.6819 48.3165 16.6744C48.3109 16.6657 48.3053 16.657 48.2984 16.6483C48.2928 16.6409 48.2885 16.6334 48.2824 16.6267C48.2768 16.6193 48.27 16.6119 48.2638 16.6051C48.257 16.5978 48.2508 16.591 48.2434 16.5844L48.2238 16.5668C48.2156 16.5595 48.2076 16.5535 48.1995 16.5475C48.1921 16.5421 48.1848 16.5367 48.1775 16.5326C48.1701 16.5272 48.1628 16.5231 48.1548 16.5183C48.1449 16.5131 48.1349 16.5078 48.1244 16.5033C48.1171 16.4991 48.1104 16.4956 48.1025 16.4922C48.094 16.4894 48.0861 16.4873 48.0776 16.4845C48.0658 16.48 48.0533 16.4762 48.041 16.4737C48.0344 16.4714 48.0272 16.4686 48.0207 16.4677C48.0116 16.4656 48.0032 16.4654 47.9941 16.4646C47.9805 16.4621 47.9669 16.4609 47.952 16.4598C47.9494 16.4599 47.9462 16.4595 47.9429 16.459C47.9391 16.4592 47.9365 16.4581 47.9326 16.4583C47.8353 16.4578 45.5063 16.4587 42.3783 17.5544C39.385 18.6036 35.1457 20.8744 31.8279 25.7333C30.6805 25.6507 28.6831 25.7354 26.5911 26.876C25.7712 27.323 25.015 27.8882 24.3229 28.5671C21.262 25.9998 16.679 26.3059 13.9917 29.3019C11.2478 32.3607 11.5041 37.081 14.563 39.8248C15.0023 40.2189 15.4823 40.5567 15.9932 40.8341C15.4175 44.0947 16.569 47.4547 19.0437 49.6745C22.3219 52.6151 27.2023 52.9361 30.8233 50.5077C31.0673 50.8389 31.346 51.1464 31.6554 51.4239C34.1436 53.6559 37.9837 53.448 40.2163 50.9591C42.4446 48.4749 42.2398 44.6424 39.7624 42.4092ZM39.495 38.8589C39.1275 39.752 38.612 40.5881 37.9517 41.3664C37.9469 41.3719 37.9413 41.3754 37.937 41.3801C37.9297 41.3882 37.9257 41.3968 37.9184 41.405C36.8491 42.6543 35.4045 43.7527 33.595 44.69C34.554 43.0081 35.8619 40.0684 35.0278 37.6565C36.8903 36.7607 38.5864 35.7169 40.0869 34.5453C40.2126 35.6022 40.1948 37.1609 39.495 38.8589ZM43.1125 18.2667C43.2118 18.2349 43.3093 18.2038 43.4069 18.1741C43.4245 18.168 43.4429 18.1625 43.46 18.157C43.574 18.1225 43.6856 18.0894 43.7959 18.0577L43.8549 18.0409C43.9475 18.0153 44.0388 17.9897 44.129 17.9655C44.1531 17.9591 44.1772 17.9526 44.2007 17.9468C44.4147 17.8908 44.6212 17.8403 44.8209 17.7947C44.8444 17.7889 44.8667 17.7832 44.8896 17.7781C44.9761 17.7592 45.062 17.7397 45.146 17.7223L45.1823 17.7145C45.2785 17.6945 45.3734 17.6758 45.4652 17.6579C45.4817 17.6545 45.4977 17.6517 45.5142 17.6482C45.592 17.6337 45.6679 17.6199 45.7419 17.6069C45.7597 17.6033 45.7775 17.5998 45.7948 17.5969C45.8828 17.5818 45.9683 17.5669 46.0519 17.554L46.0525 17.5533C46.1349 17.5405 46.2141 17.5284 46.2914 17.5171C46.3074 17.5143 46.324 17.5122 46.3406 17.51C46.4109 17.4997 46.4805 17.4901 46.5483 17.4813C46.5528 17.4804 46.5579 17.4801 46.5624 17.4793C46.6372 17.4694 46.7075 17.4604 46.7767 17.4528L46.808 17.4492C46.8669 17.4421 46.9232 17.4365 46.9776 17.4303C46.9872 17.4291 46.9981 17.4279 47.0084 17.4273C47.1313 17.4142 47.2435 17.4049 47.3441 17.3962L47.3711 17.3948C47.4185 17.3909 47.4647 17.3884 47.507 17.3848C47.5334 17.9887 47.5386 19.2003 47.3026 20.7585C47.3021 20.7618 47.301 20.7657 47.3005 20.7689C47.2836 20.8832 47.2654 20.9988 47.2454 21.1164C47.2437 21.1223 47.2428 21.1288 47.2419 21.1353C47.2219 21.2529 47.2006 21.3719 47.1776 21.4929L47.1669 21.5457C47.1478 21.6433 47.1287 21.7422 47.1077 21.8419C47.1035 21.8601 47.1 21.8777 47.0958 21.896C46.1504 21.7393 45.2796 21.321 44.5574 20.6732C43.8351 20.0253 43.325 19.205 43.0669 18.282C43.0821 18.2774 43.0973 18.2714 43.1125 18.2667ZM42.2089 18.5849C42.5179 19.6512 43.1129 20.599 43.9502 21.3501C44.3685 21.7253 44.8303 22.0357 45.3224 22.2756C45.818 22.5164 46.3448 22.6868 46.8876 22.7817C46.116 25.7554 44.3137 29.8482 40.1163 33.3537C38.4321 34.76 36.4604 35.9927 34.2557 37.0152C33.7365 37.2556 33.2112 37.4825 32.6802 37.6957L28.9208 34.3234C29.0784 33.7636 29.2481 33.2122 29.4267 32.6835C30.2052 30.3817 31.2164 28.2875 32.4322 26.461C35.4626 21.9087 39.3356 19.6746 42.2089 18.5849ZM27.5921 34.9126L27.8702 34.6026L28.1017 34.8103C28.1024 34.8109 28.1025 34.8121 28.1025 34.8121C28.1038 34.8134 28.1051 34.8133 28.1058 34.8139L32.2808 38.559C32.2815 38.5596 32.2816 38.5609 32.2829 38.5621C32.2829 38.5621 32.2842 38.562 32.2849 38.5626L32.5164 38.7703L32.2383 39.0803L27.5921 34.9126ZM30.5908 38.824L29.8263 39.6762L27.2609 37.375L28.0253 36.5228L30.5908 38.824ZM24.6662 29.5176C24.6729 29.5101 24.6816 29.5045 24.6889 29.4964C24.6937 29.491 24.6966 29.485 24.7009 29.4803C25.4031 28.7396 26.1785 28.1367 27.0266 27.6746C28.6383 26.7958 30.1858 26.6094 31.2508 26.6192C30.2485 28.2377 29.3951 30.0374 28.7056 31.9854C26.2175 31.4173 23.4367 33.0358 21.8685 34.1712C22.6044 32.2709 23.5394 30.7166 24.6662 29.5176ZM32.2626 50.747C31.897 50.4191 31.5817 50.0434 31.3255 49.6291C30.7731 48.7415 30.5075 47.7166 30.5573 46.6643C30.5601 46.6047 30.5512 46.5451 30.531 46.489C30.5108 46.4328 30.4797 46.3812 30.4395 46.3371C30.3993 46.2929 30.3508 46.2572 30.2967 46.2319C30.2427 46.2065 30.1842 46.1921 30.1245 46.1894C30.0042 46.1837 29.8865 46.2261 29.7973 46.3071C29.7082 46.3881 29.6548 46.5012 29.649 46.6216C29.5969 47.7146 29.8358 48.7827 30.3403 49.7373C27.0594 51.9529 22.6258 51.6662 19.6509 48.9976C17.3312 46.9168 16.2953 43.7302 16.9495 40.6805C17.264 39.2036 17.9677 37.8254 18.9823 36.6943C19.046 36.6232 19.1105 36.5541 19.1757 36.4855C19.2585 36.3978 19.3031 36.2808 19.2997 36.1603C19.2963 36.0397 19.2452 35.9254 19.1575 35.8425L19.1487 35.8346C18.9653 35.6701 18.6839 35.6815 18.5146 35.8607C18.444 35.9354 18.374 36.0106 18.3054 36.0871C17.3193 37.1864 16.5998 38.4979 16.2037 39.9077C15.8377 39.6906 15.4917 39.4364 15.1701 39.1479C12.4849 36.7393 12.2593 32.595 14.6685 29.909C17.0165 27.2915 21.0118 27.0128 23.7001 29.23C22.3443 30.7892 21.2703 32.8417 20.4913 35.3715C20.4619 35.4669 20.4647 35.5693 20.4993 35.6629C20.534 35.7564 20.5985 35.836 20.683 35.8892C20.7671 35.9425 20.8665 35.9667 20.9658 35.9579C21.0651 35.9491 21.1587 35.9079 21.2322 35.8407C21.2739 35.8023 25.2504 32.2123 28.4139 32.8512C28.329 33.1134 28.2482 33.3805 28.1687 33.6488L28.1389 33.6221C27.9521 33.4545 27.6645 33.4702 27.4969 33.657L26.6116 34.6439C26.4441 34.8307 26.4597 35.1183 26.6465 35.2859L27.3484 35.9156L26.2804 37.1062C26.1122 37.2937 26.1284 37.5807 26.3153 37.7483L29.5576 40.6567C29.7444 40.8242 30.0314 40.8093 30.1996 40.6218L31.2676 39.4311L31.9696 40.0608C32.1564 40.2284 32.444 40.2128 32.6116 40.0259L33.4969 39.039C33.6645 38.8522 33.6489 38.5646 33.462 38.397L33.4322 38.3703C33.6904 38.2622 33.9478 38.1523 34.1986 38.0402C35.1729 41.1116 32.0379 45.4577 32.0043 45.5033C31.9376 45.5942 31.9072 45.7066 31.9189 45.8187C31.9305 45.9308 31.9835 46.0345 32.0675 46.1097C32.1981 46.2269 32.3867 46.2604 32.5509 46.1891C34.9839 45.1394 36.91 43.8474 38.3144 42.3294L39.1368 43.0671C39.1395 43.0695 39.1416 43.0726 39.1443 43.0751C41.2596 44.9725 41.4362 48.2373 39.5394 50.3519C37.642 52.4672 34.3778 52.6444 32.2626 50.747Z" fill="#23130D"/>
<path d="M32.5164 38.7702L32.2383 39.0802L27.5921 34.9126L27.8702 34.6025L28.1017 34.8102C28.1024 34.8108 28.1025 34.8121 28.1025 34.8121C28.1038 34.8133 28.1051 34.8132 28.1058 34.8138L32.2808 38.5589C32.2815 38.5595 32.2816 38.5608 32.2829 38.562C32.2829 38.562 32.2842 38.562 32.2849 38.5626L32.5164 38.7702ZM28.0253 36.5227L30.5908 38.8239L29.8263 39.6761L27.2609 37.3749L28.0253 36.5227Z" fill="#636368"/>
<path d="M47.0958 21.8958C46.1504 21.7391 45.2796 21.3208 44.5574 20.673C43.8351 20.0251 43.325 19.2047 43.0669 18.2818C43.0821 18.2771 43.0972 18.2712 43.1124 18.2665C43.2118 18.2347 43.3093 18.2036 43.4068 18.1739C43.4245 18.1678 43.4429 18.1622 43.46 18.1568C43.574 18.1223 43.6856 18.0892 43.7959 18.0574L43.8549 18.0407C43.9475 18.0151 44.0388 17.9895 44.129 17.9653C44.1531 17.9588 44.1772 17.9524 44.2007 17.9466C44.4147 17.8906 44.6212 17.8401 44.8209 17.7944C44.8444 17.7887 44.8667 17.7829 44.8896 17.7778C44.9761 17.759 45.062 17.7395 45.146 17.7221L45.1823 17.7143C45.2785 17.6943 45.3734 17.6756 45.4652 17.6577C45.4817 17.6543 45.4977 17.6515 45.5142 17.648C45.592 17.6335 45.6679 17.6197 45.7418 17.6066C45.7597 17.6031 45.7775 17.5996 45.7948 17.5967C45.8828 17.5816 45.9683 17.5667 46.0519 17.5538L46.0525 17.5531C46.1349 17.5402 46.2141 17.5282 46.2914 17.5169C46.3073 17.5141 46.324 17.5119 46.3406 17.5097C46.4109 17.4995 46.4805 17.4899 46.5483 17.4811C46.5528 17.4802 46.5579 17.4799 46.5624 17.479C46.6372 17.4692 46.7075 17.4602 46.7766 17.4526L46.808 17.449C46.8669 17.4419 46.9232 17.4363 46.9776 17.4301C46.9872 17.4289 46.9981 17.4277 47.0084 17.4271C47.1313 17.414 47.2435 17.4047 47.3441 17.396L47.3711 17.3946C47.4185 17.3907 47.4647 17.3882 47.507 17.3846C47.5334 17.9885 47.5386 19.2001 47.3026 20.7583C47.3021 20.7616 47.301 20.7655 47.3005 20.7687C47.2836 20.883 47.2654 20.9986 47.2454 21.1162C47.2437 21.1221 47.2428 21.1286 47.2419 21.1351C47.2219 21.2527 47.2006 21.3717 47.1776 21.4927L47.1669 21.5455C47.1478 21.6431 47.1287 21.742 47.1077 21.8417C47.1035 21.8599 47.0999 21.8775 47.0958 21.8958Z" fill="#CB69DA"/>
<path d="M39.1443 43.075C39.1416 43.0726 39.1395 43.0695 39.1368 43.067L38.3144 42.3293C36.91 43.8473 34.9839 45.1393 32.5508 46.189C32.4592 46.2286 32.3572 46.2368 32.2604 46.2125C32.1636 46.1882 32.0775 46.1327 32.0155 46.0545C31.9534 45.9766 31.9186 45.8804 31.9166 45.7808C31.9145 45.6811 31.9454 45.5836 32.0043 45.5032C32.0379 45.4576 35.1729 41.1116 34.1986 38.0401C33.9445 38.1532 33.689 38.2632 33.4322 38.3702L33.462 38.3969C33.6488 38.5645 33.6645 38.8521 33.4969 39.0389L32.6116 40.0258C32.444 40.2127 32.1564 40.2283 31.9696 40.0607L31.2676 39.4311L30.1996 40.6217C30.0314 40.8092 29.7444 40.8242 29.5576 40.6566L26.3153 37.7482C26.1284 37.5806 26.1122 37.2936 26.2804 37.1061L27.3484 35.9155L26.6465 35.2858C26.4597 35.1183 26.444 34.8306 26.6116 34.6438L27.4969 33.6569C27.6645 33.4701 27.9521 33.4545 28.1389 33.622L28.1687 33.6488C28.2482 33.3804 28.329 33.1133 28.4139 32.8511C25.2504 32.2122 21.2739 35.8023 21.2322 35.8406C21.1491 35.9167 21.0406 35.9591 20.9279 35.9596C20.8152 35.9602 20.7064 35.9187 20.6225 35.8434C20.4919 35.7262 20.4381 35.5424 20.4913 35.3715C21.2703 32.8417 22.3443 30.7891 23.7001 29.23C21.0118 27.0127 17.0165 27.2914 14.6685 29.909C12.2592 32.5949 12.4849 36.7392 15.1701 39.1479C15.4917 39.4363 15.8377 39.6905 16.2037 39.9076C16.5998 38.4978 17.3193 37.1863 18.3054 36.0871C18.374 36.0106 18.444 35.9353 18.5146 35.8606C18.5961 35.7745 18.7079 35.7236 18.8264 35.7187C18.9448 35.7138 19.0605 35.7554 19.1487 35.8346L19.1575 35.8425C19.3401 36.0148 19.348 36.3028 19.1757 36.4854C19.1105 36.554 19.046 36.6232 18.9823 36.6942C17.9677 37.8253 17.264 39.2035 16.9494 40.6804C16.2953 43.7302 17.3312 46.9167 19.6509 48.9976C22.6258 51.6661 27.0594 51.9528 30.3403 49.7373C29.8358 48.7827 29.5969 47.7145 29.649 46.6215C29.6548 46.5011 29.7082 46.388 29.7973 46.307C29.8865 46.226 30.0042 46.1837 30.1245 46.1893C30.1842 46.192 30.2427 46.2064 30.2967 46.2318C30.3508 46.2571 30.3993 46.2929 30.4395 46.337C30.4797 46.3811 30.5108 46.4327 30.531 46.4889C30.5512 46.545 30.5601 46.6046 30.5573 46.6642C30.5075 47.7166 30.7731 48.7414 31.3255 49.629C31.5829 50.0445 31.8984 50.4209 32.2625 50.7469C34.3778 52.6443 37.642 52.4671 39.5394 50.3518C41.4362 48.2372 41.2596 44.9724 39.1443 43.075ZM20.9168 41.1804C20.7486 41.3679 20.4616 41.3829 20.2748 41.2153C20.0879 41.0477 20.0717 40.7607 20.2399 40.5732L21.0274 39.6953C21.195 39.5085 21.4826 39.4929 21.6694 39.6605C21.8563 39.828 21.8719 40.1157 21.7043 40.3025L20.9168 41.1804ZM22.8009 39.08C22.6333 39.2668 22.3457 39.2825 22.1588 39.1149C21.972 38.9473 21.9564 38.6597 22.124 38.4728L24.7197 35.5791C24.8879 35.3916 25.1749 35.3767 25.3617 35.5443C25.5485 35.7118 25.5648 35.9988 25.3966 36.1863L22.8009 39.08ZM23.3268 41.7579C23.1592 41.9447 22.8716 41.9603 22.6848 41.7928C22.498 41.6252 22.4823 41.3375 22.6499 41.1507L25.1266 38.3897C25.2948 38.2022 25.5818 38.1872 25.7687 38.3548C25.9555 38.5224 25.9717 38.8094 25.8035 38.9969L23.3268 41.7579ZM23.633 44.6808C23.4654 44.8676 23.1778 44.8833 22.9909 44.7157C22.8041 44.5481 22.7885 44.2605 22.9561 44.0736L26.7491 39.8451C26.9173 39.6576 27.2043 39.6426 27.3912 39.8102C27.578 39.9778 27.5942 40.2648 27.426 40.4523L23.633 44.6808ZM26.5718 44.6687C26.4043 44.8555 26.1166 44.8712 25.9298 44.7036C25.743 44.536 25.7274 44.2484 25.895 44.0615L28.3716 41.3005C28.5398 41.113 28.8269 41.0981 29.0137 41.2656C29.2005 41.4332 29.2167 41.7202 29.0485 41.9077L26.5718 44.6687ZM27.4069 47.0021C27.2387 47.1896 26.9516 47.2045 26.7648 47.0369C26.578 46.8693 26.5618 46.5824 26.73 46.3949L27.5175 45.517C27.6851 45.3301 27.9727 45.3145 28.1595 45.4821C28.3463 45.6497 28.3619 45.9373 28.1944 46.1241L27.4069 47.0021ZM29.2909 44.9017C29.1233 45.0885 28.8357 45.1041 28.6489 44.9365C28.4621 44.7689 28.4465 44.4813 28.614 44.2945L31.2097 41.4008C31.3779 41.2133 31.6649 41.1983 31.8518 41.3659C32.0386 41.5335 32.0548 41.8204 31.8866 42.0079L29.2909 44.9017Z" fill="#FF9500"/>
<path d="M33.595 44.6898C34.554 43.008 35.8619 40.0683 35.0278 37.6563C36.8903 36.7606 38.5864 35.7168 40.0869 34.5451C40.2126 35.6021 40.1948 37.1607 39.495 38.8588C39.1275 39.7519 38.612 40.588 37.9517 41.3663C37.9469 41.3717 37.9413 41.3752 37.937 41.38C37.9297 41.3881 37.9257 41.3967 37.9184 41.4048C36.8491 42.6541 35.4045 43.7526 33.595 44.6898ZM28.7056 31.9853C26.2175 31.4172 23.4367 33.0357 21.8685 34.171C22.6044 32.2708 23.5394 30.7164 24.6662 29.5174C24.6729 29.51 24.6816 29.5044 24.6889 29.4963C24.6937 29.4908 24.6966 29.4849 24.7009 29.4801C25.4031 28.7395 26.1785 28.1365 27.0266 27.6745C28.6383 26.7956 30.1858 26.6092 31.2508 26.619C30.2485 28.2375 29.3951 30.0373 28.7056 31.9853Z" fill="#CB69DA"/>
<path opacity="0.2" d="M28.7056 31.9853C26.2175 31.4172 23.4367 33.0357 21.8685 34.1711C22.1211 33.5205 22.3957 32.9106 22.6946 32.3419C24.2101 31.5062 26.1061 30.8237 27.8561 31.2233C28.4261 29.6128 29.1085 28.1031 29.8947 26.7146C30.398 26.6383 30.8578 26.6159 31.2508 26.619C30.2485 28.2376 29.3951 30.0373 28.7056 31.9853ZM35.0278 37.6563C35.8619 40.0683 34.554 43.008 33.595 44.6899C34.2144 44.3684 34.791 44.0293 35.324 43.6707C35.9907 42.0736 36.4639 40.1148 35.8773 38.4184C37.4166 37.6773 38.8436 36.8355 40.1388 35.9036C40.1574 35.4501 40.14 34.9959 40.0869 34.5452C38.5864 35.7168 36.8897 36.76 35.0278 37.6563Z" fill="#23130D"/>
<path d="M46.8876 22.7817C46.3448 22.6868 45.818 22.5164 45.3224 22.2756C44.8243 22.0322 44.3625 21.7207 43.9502 21.35C43.1129 20.599 42.5179 19.6512 42.2089 18.5849C39.3356 19.6746 35.4626 21.9087 32.4322 26.461C31.2164 28.2875 30.2052 30.3817 29.4267 32.6835C29.2481 33.2122 29.0784 33.7636 28.9208 34.3234L32.6802 37.6957C33.2112 37.4825 33.7365 37.2556 34.2557 37.0152C36.4604 35.9927 38.4321 34.76 40.1163 33.3537C44.3137 29.8482 46.116 25.7554 46.8876 22.7817ZM38.1868 27.7751C37.0991 26.7994 37.0086 25.1204 37.9837 24.0333C38.9594 22.9456 40.6377 22.8544 41.7255 23.8302C42.8132 24.8059 42.9044 26.4842 41.9286 27.572C40.9535 28.6591 39.2746 28.7509 38.1868 27.7751Z" fill="#E1E1E5"/>
<path opacity="0.2" d="M44.106 19.214C44.2995 19.9092 44.6416 20.5541 45.1088 21.1042C44.917 20.9749 44.7327 20.8303 44.5574 20.6731C43.8351 20.0252 43.325 19.2049 43.0669 18.2819C43.0821 18.2773 43.0973 18.2713 43.1125 18.2666C43.2118 18.2348 43.3093 18.2037 43.4069 18.174C43.4246 18.1679 43.4429 18.1624 43.46 18.1569C43.5741 18.1224 43.6856 18.0893 43.7959 18.0576L43.8549 18.0408C43.9475 18.0152 44.0388 17.9896 44.129 17.9654C44.1531 17.959 44.1772 17.9525 44.2007 17.9467C44.4147 17.8907 44.6212 17.8402 44.8209 17.7946C44.8444 17.7888 44.8667 17.7831 44.8896 17.778C44.9761 17.7591 45.062 17.7396 45.146 17.7222L45.1823 17.7144C45.2785 17.6944 45.3734 17.6757 45.4652 17.6578C45.4817 17.6544 45.4977 17.6516 45.5142 17.6481C45.592 17.6336 45.6679 17.6198 45.7419 17.6068C45.7597 17.6032 45.7775 17.5997 45.7948 17.5968C45.8828 17.5817 45.9683 17.5668 46.0519 17.5539L46.0525 17.5532C46.1349 17.5404 46.2141 17.5283 46.2914 17.517C46.3074 17.5142 46.324 17.5121 46.3406 17.5099C46.4109 17.4996 46.4805 17.49 46.5483 17.4812C46.5528 17.4803 46.5579 17.48 46.5624 17.4792C46.6372 17.4693 46.7075 17.4603 46.7767 17.4527L46.808 17.4491C46.8669 17.442 46.9232 17.4364 46.9776 17.4302C46.9872 17.429 46.9981 17.4278 47.0084 17.4273C47.1313 17.4141 47.2435 17.4048 47.3441 17.3961L47.3711 17.3947C47.4185 17.3908 47.4647 17.3883 47.507 17.3847C47.5179 17.6327 47.5255 17.9852 47.5138 18.423C47.4697 18.4286 47.425 18.4349 47.3796 18.4419C47.363 18.4441 47.3464 18.4463 47.3304 18.4491C47.2531 18.4603 47.1739 18.4724 47.0916 18.4852L47.091 18.4859C47.0073 18.4988 46.9218 18.5138 46.8338 18.5288C46.8166 18.5317 46.7987 18.5352 46.7809 18.5388C46.7069 18.5518 46.631 18.5656 46.5532 18.5801C46.5367 18.5836 46.5207 18.5864 46.5042 18.5899C46.4124 18.6077 46.3175 18.6264 46.2214 18.6464L46.1851 18.6542C46.101 18.6716 46.0152 18.6911 45.9286 18.71C45.9057 18.7151 45.8835 18.7208 45.86 18.7266C45.6602 18.7722 45.4537 18.8227 45.2397 18.8787C45.2162 18.8845 45.1921 18.891 45.168 18.8974C45.0779 18.9217 44.9865 18.9472 44.8939 18.9729L44.8349 18.9896C44.7246 19.0213 44.6131 19.0544 44.499 19.089C44.482 19.0944 44.4636 19.0999 44.4459 19.106C44.3483 19.1358 44.2509 19.1668 44.1515 19.1986C44.1363 19.2033 44.1212 19.2093 44.106 19.214ZM30.4657 33.6155C31.2442 31.3137 32.2555 29.2194 33.4712 27.3929C36.307 23.1339 39.8795 20.9039 42.6813 19.7427C42.4844 19.3767 42.3262 18.9893 42.2089 18.5848C39.3356 19.6745 35.4626 21.9086 32.4322 26.4609C31.2164 28.2874 30.2052 30.3816 29.4267 32.6834C29.2481 33.2122 29.0784 33.7636 28.9208 34.3233L29.9598 35.2553C30.1174 34.6956 30.2871 34.1442 30.4657 33.6155Z" fill="#23130D"/>
<path d="M41.7255 23.8301C40.6377 22.8544 38.9594 22.9455 37.9837 24.0333C37.0086 25.1204 37.0991 26.7993 38.1868 27.7751C39.2746 28.7508 40.9535 28.659 41.9286 27.5719C42.9044 26.4841 42.8132 24.8059 41.7255 23.8301ZM38.794 27.0982C38.0799 26.4576 38.02 25.3546 38.6606 24.6404C39.3012 23.9263 40.4042 23.8664 41.1183 24.507C41.8324 25.1476 41.8923 26.2506 41.2517 26.9647C40.6112 27.6788 39.5081 27.7387 38.794 27.0982Z" fill="#23130D"/>
<path d="M41.2517 26.9646C41.1473 27.081 41.0303 27.1801 40.9047 27.2616C40.7324 27.3733 40.5441 27.4525 40.3482 27.4966C40.2318 27.5242 40.1135 27.5389 39.9939 27.5416C39.8788 27.5446 39.7637 27.5354 39.6499 27.5152C39.5907 27.5049 39.532 27.4913 39.4738 27.4745C39.3148 27.4284 39.1611 27.3601 39.017 27.2675C38.939 27.2183 38.8651 27.1618 38.794 27.098C38.0799 26.4574 38.02 25.3544 38.6606 24.6403C38.7237 24.5699 38.7917 24.505 38.8639 24.4477C38.9965 24.3407 39.1426 24.2555 39.2956 24.1924C39.3517 24.1694 39.4086 24.1496 39.4663 24.1329C39.5772 24.1005 39.6906 24.0789 39.8054 24.0694C39.924 24.0598 40.0438 24.061 40.1625 24.0758C40.362 24.0985 40.5577 24.1567 40.7411 24.2492C40.8749 24.3166 41.0019 24.4024 41.1183 24.5069C41.8324 25.1474 41.8923 26.2505 41.2517 26.9646Z" fill="#1782CF"/>
<path d="M21.7043 40.3026L20.9168 41.1805C20.7486 41.368 20.4616 41.3829 20.2748 41.2153C20.0879 41.0478 20.0717 40.7608 20.2399 40.5733L21.0274 39.6954C21.195 39.5086 21.4826 39.4929 21.6695 39.6605C21.8563 39.8281 21.8719 40.1157 21.7043 40.3026ZM28.1944 46.1242L27.4069 47.0021C27.2387 47.1896 26.9516 47.2046 26.7648 47.037C26.578 46.8694 26.5618 46.5825 26.73 46.395L27.5175 45.517C27.6851 45.3302 27.9727 45.3146 28.1595 45.4822C28.3463 45.6497 28.362 45.9374 28.1944 46.1242Z" fill="white"/>
<path opacity="0.3" d="M28.0253 36.5227L28.1681 36.6508L27.4037 37.503L27.2609 37.3749L28.0253 36.5227ZM28.4078 36.8658L28.6528 37.0856L27.8884 37.9378L27.6433 37.718L28.4078 36.8658ZM28.8924 37.3005L29.1375 37.5203L28.373 38.3725L28.128 38.1527L28.8924 37.3005ZM29.3777 37.7359L29.6228 37.9556L28.8583 38.8079L28.6133 38.5881L29.3777 37.7359ZM29.8624 38.1706L30.1074 38.3904L29.343 39.2426L29.098 39.0228L29.8624 38.1706ZM30.3471 38.6053L30.5907 38.8239L29.8263 39.6761L29.5826 39.4575L30.3471 38.6053Z" fill="white"/>
<path opacity="0.4" d="M39.4738 27.4747C39.3148 27.4286 39.1611 27.3603 39.017 27.2677L38.8639 24.4479C38.9965 24.3409 39.1426 24.2557 39.2956 24.1926L39.4738 27.4747ZM39.9939 27.5418C39.8788 27.5448 39.7637 27.5356 39.6499 27.5154L39.4663 24.1331C39.5772 24.1007 39.6906 24.0791 39.8054 24.0696L39.9939 27.5418ZM40.9047 27.2618C40.7324 27.3735 40.5441 27.4527 40.3482 27.4968L40.1625 24.076C40.362 24.0987 40.5577 24.1569 40.7411 24.2494L40.9047 27.2618Z" fill="white"/>
</g>
<defs>
<clipPath id="clip0_782_1095">
<rect width="46.5569" height="46.5569" fill="white" transform="translate(31.7153 0.127686) rotate(41.8924)"/>
</clipPath>
</defs>
</svg>
