<svg width="243" height="219" viewBox="0 0 243 219" fill="none" xmlns="http://www.w3.org/2000/svg">
<path d="M85 0.666665C82.0545 0.666665 79.6667 3.05448 79.6667 6C79.6667 8.94552 82.0545 11.3333 85 11.3333C87.9455 11.3333 90.3333 8.94552 90.3333 6C90.3333 3.05448 87.9455 0.666666 85 0.666665ZM122 47L122 22L120 22L120 47L122 47ZM105 5L85 5L85 7L105 7L105 5ZM122 22C122 12.6112 114.389 5 105 5L105 7C113.284 7 120 13.7157 120 22L122 22Z" fill="#1782CF"/>
<path d="M157.69 126.801C160.636 126.801 163.024 124.413 163.024 121.467C163.024 118.522 160.636 116.134 157.69 116.134C154.745 116.134 152.357 118.522 152.357 121.467C152.357 124.413 154.745 126.801 157.69 126.801ZM120.69 80.4673L120.69 105.467H122.69L122.69 80.4673H120.69ZM137.69 122.467L157.69 122.467V120.467L137.69 120.467V122.467ZM120.69 105.467C120.69 114.856 128.302 122.467 137.69 122.467V120.467C129.406 120.467 122.69 113.752 122.69 105.467H120.69Z" fill="#1782CF"/>
<path d="M158 179.333C160.946 179.333 163.333 176.946 163.333 174C163.333 171.054 160.946 168.667 158 168.667C155.054 168.667 152.667 171.054 152.667 174C152.667 176.946 155.054 179.333 158 179.333ZM122 158L121 158L122 158ZM121 97L121 158L123 158L123 97L121 97ZM138 175L158 175L158 173L138 173L138 175ZM121 158C121 167.389 128.611 175 138 175L138 173C129.716 173 123 166.284 123 158L121 158Z" fill="#1782CF"/>
<path d="M84 208.333C86.9455 208.333 89.3333 205.946 89.3333 203C89.3333 200.054 86.9455 197.667 84 197.667C81.0545 197.667 78.6667 200.054 78.6667 203C78.6667 205.946 81.0545 208.333 84 208.333ZM121 121V185H123V121H121ZM104 202H84V204H104V202ZM121 185C121 194.389 113.389 202 104 202V204C114.493 204 123 195.493 123 185H121Z" fill="#1782CF" fill-opacity="0.6"/>
<rect x="74.5" y="47.5" width="93" height="31" rx="7.5" stroke="#FF9500"/>
<path d="M103.636 68.5V58.7H105.736V66.694H109.628V68.5H103.636ZM110.106 64.916C110.106 64.1693 110.256 63.5207 110.554 62.97C110.862 62.41 111.287 61.9807 111.828 61.682C112.379 61.374 113.014 61.22 113.732 61.22C114.46 61.22 115.1 61.3647 115.65 61.654C116.21 61.934 116.644 62.3353 116.952 62.858C117.27 63.3713 117.433 63.978 117.442 64.678C117.442 64.93 117.424 65.154 117.386 65.35H112.164V65.406C112.211 65.9287 112.379 66.3393 112.668 66.638C112.958 66.9367 113.354 67.086 113.858 67.086C114.26 67.086 114.591 67.002 114.852 66.834C115.123 66.6567 115.3 66.4 115.384 66.064H117.33C117.256 66.54 117.074 66.9693 116.784 67.352C116.495 67.7347 116.112 68.038 115.636 68.262C115.16 68.4767 114.614 68.584 113.998 68.584C113.196 68.584 112.5 68.4347 111.912 68.136C111.334 67.8373 110.886 67.4127 110.568 66.862C110.26 66.302 110.106 65.6533 110.106 64.916ZM115.468 64.062C115.403 63.6233 115.221 63.2873 114.922 63.054C114.633 62.8113 114.264 62.69 113.816 62.69C113.387 62.69 113.023 62.816 112.724 63.068C112.435 63.3107 112.262 63.642 112.206 64.062H115.468ZM125.605 66.834V68.5H124.597C123.692 68.5 123.248 68.108 123.267 67.324C123.006 67.7347 122.684 68.0473 122.301 68.262C121.918 68.4767 121.456 68.584 120.915 68.584C120.112 68.584 119.464 68.402 118.969 68.038C118.484 67.6647 118.241 67.142 118.241 66.47C118.241 65.7047 118.521 65.1167 119.081 64.706C119.65 64.286 120.472 64.076 121.545 64.076H122.973V63.726C122.973 63.3993 122.852 63.1427 122.609 62.956C122.366 62.76 122.04 62.662 121.629 62.662C121.265 62.662 120.966 62.7413 120.733 62.9C120.5 63.0587 120.36 63.2733 120.313 63.544H118.409C118.474 62.8067 118.801 62.2373 119.389 61.836C119.977 61.4253 120.756 61.22 121.727 61.22C122.744 61.22 123.528 61.444 124.079 61.892C124.639 62.34 124.919 62.9887 124.919 63.838V66.372C124.919 66.5493 124.956 66.6707 125.031 66.736C125.106 66.8013 125.222 66.834 125.381 66.834H125.605ZM122.973 65.392H121.531C121.12 65.392 120.798 65.476 120.565 65.644C120.341 65.8027 120.229 66.0313 120.229 66.33C120.229 66.582 120.322 66.7827 120.509 66.932C120.705 67.0813 120.966 67.156 121.293 67.156C121.806 67.156 122.212 67.0113 122.511 66.722C122.81 66.4233 122.964 66.0267 122.973 65.532V65.392ZM130.751 61.304V63.096H129.967C129.407 63.096 128.996 63.264 128.735 63.6C128.473 63.936 128.343 64.3933 128.343 64.972V68.5H126.369V61.304H128.161L128.343 62.382C128.557 62.0273 128.823 61.7613 129.141 61.584C129.458 61.3973 129.883 61.304 130.415 61.304H130.751ZM135.762 61.22C136.602 61.22 137.293 61.4813 137.834 62.004C138.376 62.5267 138.646 63.39 138.646 64.594V68.5H136.672V64.706C136.672 63.4647 136.187 62.844 135.216 62.844C134.703 62.844 134.306 63.0167 134.026 63.362C133.746 63.7073 133.606 64.1927 133.606 64.818V68.5H131.632V61.304H133.354L133.536 62.2C133.788 61.892 134.092 61.654 134.446 61.486C134.801 61.3087 135.24 61.22 135.762 61.22Z" fill="black"/>
<rect x="149.5" y="105.5" width="93" height="31" rx="7.5" stroke="#34C759"/>
<path d="M183.08 116.7H185.18V126.5H183.08V116.7ZM190.816 119.22C191.656 119.22 192.347 119.481 192.888 120.004C193.429 120.527 193.7 121.39 193.7 122.594V126.5H191.726V122.706C191.726 121.465 191.241 120.844 190.27 120.844C189.757 120.844 189.36 121.017 189.08 121.362C188.8 121.707 188.66 122.193 188.66 122.818V126.5H186.686V119.304H188.408L188.59 120.2C188.842 119.892 189.145 119.654 189.5 119.486C189.855 119.309 190.293 119.22 190.816 119.22ZM199.074 119.22C199.914 119.22 200.604 119.481 201.146 120.004C201.687 120.527 201.958 121.39 201.958 122.594V126.5H199.984V122.706C199.984 121.465 199.498 120.844 198.528 120.844C198.014 120.844 197.618 121.017 197.338 121.362C197.058 121.707 196.918 122.193 196.918 122.818V126.5H194.944V119.304H196.666L196.848 120.2C197.1 119.892 197.403 119.654 197.758 119.486C198.112 119.309 198.551 119.22 199.074 119.22ZM206.716 126.584C205.96 126.584 205.292 126.435 204.714 126.136C204.144 125.828 203.701 125.394 203.384 124.834C203.076 124.274 202.922 123.63 202.922 122.902C202.922 122.174 203.076 121.53 203.384 120.97C203.701 120.41 204.144 119.981 204.714 119.682C205.292 119.374 205.96 119.22 206.716 119.22C207.472 119.22 208.134 119.374 208.704 119.682C209.282 119.981 209.726 120.41 210.034 120.97C210.351 121.53 210.51 122.174 210.51 122.902C210.51 123.639 210.351 124.288 210.034 124.848C209.726 125.399 209.282 125.828 208.704 126.136C208.134 126.435 207.472 126.584 206.716 126.584ZM206.716 124.974C207.266 124.974 207.7 124.783 208.018 124.4C208.344 124.017 208.508 123.518 208.508 122.902C208.508 122.286 208.344 121.787 208.018 121.404C207.7 121.021 207.266 120.83 206.716 120.83C206.174 120.83 205.74 121.021 205.414 121.404C205.096 121.787 204.938 122.286 204.938 122.902C204.938 123.518 205.096 124.017 205.414 124.4C205.74 124.783 206.174 124.974 206.716 124.974ZM210.623 119.304H212.737L214.473 124.484L216.181 119.304H218.253L215.663 126.5H213.213L210.623 119.304ZM225.666 124.834V126.5H224.658C223.753 126.5 223.31 126.108 223.328 125.324C223.067 125.735 222.745 126.047 222.362 126.262C221.98 126.477 221.518 126.584 220.976 126.584C220.174 126.584 219.525 126.402 219.03 126.038C218.545 125.665 218.302 125.142 218.302 124.47C218.302 123.705 218.582 123.117 219.142 122.706C219.712 122.286 220.533 122.076 221.606 122.076H223.034V121.726C223.034 121.399 222.913 121.143 222.67 120.956C222.428 120.76 222.101 120.662 221.69 120.662C221.326 120.662 221.028 120.741 220.794 120.9C220.561 121.059 220.421 121.273 220.374 121.544H218.47C218.536 120.807 218.862 120.237 219.45 119.836C220.038 119.425 220.818 119.22 221.788 119.22C222.806 119.22 223.59 119.444 224.14 119.892C224.7 120.34 224.98 120.989 224.98 121.838V124.372C224.98 124.549 225.018 124.671 225.092 124.736C225.167 124.801 225.284 124.834 225.442 124.834H225.666ZM223.034 123.392H221.592C221.182 123.392 220.86 123.476 220.626 123.644C220.402 123.803 220.29 124.031 220.29 124.33C220.29 124.582 220.384 124.783 220.57 124.932C220.766 125.081 221.028 125.156 221.354 125.156C221.868 125.156 222.274 125.011 222.572 124.722C222.871 124.423 223.025 124.027 223.034 123.532V123.392ZM226.892 120.97H225.702V119.304H226.892V117.288H228.866V119.304H230.504V120.97H228.866V124.12C228.866 124.372 228.917 124.554 229.02 124.666C229.132 124.778 229.314 124.834 229.566 124.834H230.588V126.5H228.95C227.578 126.5 226.892 125.814 226.892 124.442V120.97ZM231.031 122.916C231.031 122.169 231.18 121.521 231.479 120.97C231.787 120.41 232.212 119.981 232.753 119.682C233.304 119.374 233.938 119.22 234.657 119.22C235.385 119.22 236.024 119.365 236.575 119.654C237.135 119.934 237.569 120.335 237.877 120.858C238.194 121.371 238.358 121.978 238.367 122.678C238.367 122.93 238.348 123.154 238.311 123.35H233.089V123.406C233.136 123.929 233.304 124.339 233.593 124.638C233.882 124.937 234.279 125.086 234.783 125.086C235.184 125.086 235.516 125.002 235.777 124.834C236.048 124.657 236.225 124.4 236.309 124.064H238.255C238.18 124.54 237.998 124.969 237.709 125.352C237.42 125.735 237.037 126.038 236.561 126.262C236.085 126.477 235.539 126.584 234.923 126.584C234.12 126.584 233.425 126.435 232.837 126.136C232.258 125.837 231.81 125.413 231.493 124.862C231.185 124.302 231.031 123.653 231.031 122.916ZM236.393 122.062C236.328 121.623 236.146 121.287 235.847 121.054C235.558 120.811 235.189 120.69 234.741 120.69C234.312 120.69 233.948 120.816 233.649 121.068C233.36 121.311 233.187 121.642 233.131 122.062H236.393Z" fill="black"/>
<rect x="149.5" y="158.5" width="93" height="31" rx="7.5" stroke="#00C7BE"/>
<path d="M183.523 174.6C183.523 173.601 183.715 172.729 184.097 171.982C184.489 171.226 185.045 170.643 185.763 170.232C186.491 169.821 187.345 169.616 188.325 169.616C189.091 169.616 189.777 169.765 190.383 170.064C190.99 170.363 191.48 170.783 191.853 171.324C192.227 171.865 192.451 172.491 192.525 173.2H190.425C190.304 172.64 190.047 172.201 189.655 171.884C189.273 171.557 188.792 171.394 188.213 171.394C187.429 171.394 186.809 171.688 186.351 172.276C185.894 172.864 185.665 173.639 185.665 174.6C185.665 175.552 185.894 176.327 186.351 176.924C186.809 177.512 187.429 177.806 188.213 177.806C188.792 177.806 189.273 177.647 189.655 177.33C190.047 177.003 190.304 176.56 190.425 176H192.525C192.451 176.709 192.227 177.335 191.853 177.876C191.48 178.417 190.99 178.837 190.383 179.136C189.777 179.435 189.091 179.584 188.325 179.584C187.345 179.584 186.491 179.379 185.763 178.968C185.045 178.557 184.489 177.979 184.097 177.232C183.715 176.476 183.523 175.599 183.523 174.6ZM197.105 179.584C196.349 179.584 195.682 179.435 195.103 179.136C194.534 178.828 194.091 178.394 193.773 177.834C193.465 177.274 193.311 176.63 193.311 175.902C193.311 175.174 193.465 174.53 193.773 173.97C194.091 173.41 194.534 172.981 195.103 172.682C195.682 172.374 196.349 172.22 197.105 172.22C197.861 172.22 198.524 172.374 199.093 172.682C199.672 172.981 200.115 173.41 200.423 173.97C200.741 174.53 200.899 175.174 200.899 175.902C200.899 176.639 200.741 177.288 200.423 177.848C200.115 178.399 199.672 178.828 199.093 179.136C198.524 179.435 197.861 179.584 197.105 179.584ZM197.105 177.974C197.656 177.974 198.09 177.783 198.407 177.4C198.734 177.017 198.897 176.518 198.897 175.902C198.897 175.286 198.734 174.787 198.407 174.404C198.09 174.021 197.656 173.83 197.105 173.83C196.564 173.83 196.13 174.021 195.803 174.404C195.486 174.787 195.327 175.286 195.327 175.902C195.327 176.518 195.486 177.017 195.803 177.4C196.13 177.783 196.564 177.974 197.105 177.974ZM206.116 172.22C206.956 172.22 207.646 172.481 208.188 173.004C208.729 173.527 209 174.39 209 175.594V179.5H207.026V175.706C207.026 174.465 206.54 173.844 205.57 173.844C205.056 173.844 204.66 174.017 204.38 174.362C204.1 174.707 203.96 175.193 203.96 175.818V179.5H201.986V172.304H203.708L203.89 173.2C204.142 172.892 204.445 172.654 204.8 172.486C205.154 172.309 205.593 172.22 206.116 172.22ZM214.374 172.22C215.214 172.22 215.904 172.481 216.446 173.004C216.987 173.527 217.258 174.39 217.258 175.594V179.5H215.284V175.706C215.284 174.465 214.798 173.844 213.828 173.844C213.314 173.844 212.918 174.017 212.638 174.362C212.358 174.707 212.218 175.193 212.218 175.818V179.5H210.244V172.304H211.966L212.148 173.2C212.4 172.892 212.703 172.654 213.058 172.486C213.412 172.309 213.851 172.22 214.374 172.22ZM218.221 175.916C218.221 175.169 218.371 174.521 218.669 173.97C218.977 173.41 219.402 172.981 219.943 172.682C220.494 172.374 221.129 172.22 221.847 172.22C222.575 172.22 223.215 172.365 223.765 172.654C224.325 172.934 224.759 173.335 225.067 173.858C225.385 174.371 225.548 174.978 225.557 175.678C225.557 175.93 225.539 176.154 225.501 176.35H220.279V176.406C220.326 176.929 220.494 177.339 220.783 177.638C221.073 177.937 221.469 178.086 221.973 178.086C222.375 178.086 222.706 178.002 222.967 177.834C223.238 177.657 223.415 177.4 223.499 177.064H225.445C225.371 177.54 225.189 177.969 224.899 178.352C224.61 178.735 224.227 179.038 223.751 179.262C223.275 179.477 222.729 179.584 222.113 179.584C221.311 179.584 220.615 179.435 220.027 179.136C219.449 178.837 219.001 178.413 218.683 177.862C218.375 177.302 218.221 176.653 218.221 175.916ZM223.583 175.062C223.518 174.623 223.336 174.287 223.037 174.054C222.748 173.811 222.379 173.69 221.931 173.69C221.502 173.69 221.138 173.816 220.839 174.068C220.55 174.311 220.377 174.642 220.321 175.062H223.583ZM233.552 176.77C233.422 177.647 233.048 178.338 232.432 178.842C231.826 179.337 231.037 179.584 230.066 179.584C229.32 179.584 228.666 179.435 228.106 179.136C227.546 178.828 227.112 178.394 226.804 177.834C226.506 177.274 226.356 176.63 226.356 175.902C226.356 175.165 226.506 174.521 226.804 173.97C227.112 173.41 227.546 172.981 228.106 172.682C228.676 172.374 229.334 172.22 230.08 172.22C231.042 172.22 231.826 172.467 232.432 172.962C233.039 173.447 233.412 174.124 233.552 174.992H231.508C231.424 174.637 231.256 174.357 231.004 174.152C230.752 173.937 230.44 173.83 230.066 173.83C229.553 173.83 229.142 174.021 228.834 174.404C228.526 174.787 228.372 175.286 228.372 175.902C228.372 176.518 228.526 177.017 228.834 177.4C229.142 177.783 229.553 177.974 230.066 177.974C230.449 177.974 230.766 177.867 231.018 177.652C231.28 177.437 231.448 177.143 231.522 176.77H233.552ZM235.083 173.97H233.893V172.304H235.083V170.288H237.057V172.304H238.695V173.97H237.057V177.12C237.057 177.372 237.108 177.554 237.211 177.666C237.323 177.778 237.505 177.834 237.757 177.834H238.779V179.5H237.141C235.769 179.5 235.083 178.814 235.083 177.442V173.97Z" fill="black"/>
<rect x="0.5" y="187.5" width="93" height="31" rx="7.5" stroke="#00C7BE"/>
<path d="M12.6359 205.308C12.6732 205.793 12.8692 206.185 13.2239 206.484C13.5879 206.773 14.0685 206.918 14.6659 206.918C15.1605 206.918 15.5619 206.815 15.8699 206.61C16.1872 206.395 16.3459 206.101 16.3459 205.728C16.3459 205.467 16.2572 205.261 16.0799 205.112C15.9119 204.953 15.6692 204.832 15.3519 204.748C15.0439 204.655 14.5632 204.543 13.9099 204.412C13.2659 204.291 12.7245 204.137 12.2859 203.95C11.8472 203.754 11.4879 203.469 11.2079 203.096C10.9372 202.713 10.8019 202.209 10.8019 201.584C10.8019 201.015 10.9559 200.506 11.2639 200.058C11.5812 199.61 12.0152 199.26 12.5659 199.008C13.1259 198.747 13.7559 198.616 14.4559 198.616C15.1745 198.616 15.8185 198.751 16.3879 199.022C16.9665 199.283 17.4192 199.647 17.7459 200.114C18.0819 200.581 18.2546 201.108 18.2639 201.696H16.2059C16.1592 201.276 15.9819 200.94 15.6739 200.688C15.3659 200.427 14.9599 200.296 14.4559 200.296C13.9892 200.296 13.6159 200.394 13.3359 200.59C13.0559 200.786 12.9159 201.066 12.9159 201.43C12.9159 201.691 12.9999 201.897 13.1679 202.046C13.3359 202.186 13.5739 202.303 13.8819 202.396C14.1899 202.48 14.6659 202.583 15.3099 202.704C15.9632 202.825 16.5139 202.979 16.9619 203.166C17.4099 203.343 17.7692 203.619 18.0399 203.992C18.3199 204.356 18.4599 204.846 18.4599 205.462C18.4599 206.059 18.2965 206.596 17.9699 207.072C17.6432 207.539 17.1859 207.907 16.5979 208.178C16.0192 208.449 15.3659 208.584 14.6379 208.584C13.8539 208.584 13.1539 208.444 12.5379 208.164C11.9312 207.875 11.4552 207.478 11.1099 206.974C10.7645 206.47 10.5872 205.905 10.5779 205.28L12.6359 205.308ZM26.3419 201.304V208.5H24.5919L24.4099 207.632C24.1579 207.931 23.8639 208.164 23.5279 208.332C23.1919 208.5 22.7812 208.584 22.2959 208.584C21.4559 208.584 20.7699 208.327 20.2379 207.814C19.7059 207.291 19.4399 206.423 19.4399 205.21V201.304H21.4139V204.972C21.4139 205.625 21.5259 206.12 21.7499 206.456C21.9832 206.783 22.3379 206.946 22.8139 206.946C23.3085 206.946 23.6912 206.764 23.9619 206.4C24.2325 206.027 24.3679 205.509 24.3679 204.846V201.304H26.3419ZM34.6303 205.77C34.4997 206.647 34.1263 207.338 33.5103 207.842C32.9037 208.337 32.115 208.584 31.1443 208.584C30.3977 208.584 29.7443 208.435 29.1843 208.136C28.6243 207.828 28.1903 207.394 27.8823 206.834C27.5837 206.274 27.4343 205.63 27.4343 204.902C27.4343 204.165 27.5837 203.521 27.8823 202.97C28.1903 202.41 28.6243 201.981 29.1843 201.682C29.7537 201.374 30.4117 201.22 31.1583 201.22C32.1197 201.22 32.9037 201.467 33.5103 201.962C34.117 202.447 34.4903 203.124 34.6303 203.992H32.5863C32.5023 203.637 32.3343 203.357 32.0823 203.152C31.8303 202.937 31.5177 202.83 31.1443 202.83C30.631 202.83 30.2203 203.021 29.9123 203.404C29.6043 203.787 29.4503 204.286 29.4503 204.902C29.4503 205.518 29.6043 206.017 29.9123 206.4C30.2203 206.783 30.631 206.974 31.1443 206.974C31.527 206.974 31.8443 206.867 32.0963 206.652C32.3577 206.437 32.5257 206.143 32.6003 205.77H34.6303ZM42.519 205.77C42.3883 206.647 42.015 207.338 41.399 207.842C40.7923 208.337 40.0037 208.584 39.033 208.584C38.2863 208.584 37.633 208.435 37.073 208.136C36.513 207.828 36.079 207.394 35.771 206.834C35.4723 206.274 35.323 205.63 35.323 204.902C35.323 204.165 35.4723 203.521 35.771 202.97C36.079 202.41 36.513 201.981 37.073 201.682C37.6423 201.374 38.3003 201.22 39.047 201.22C40.0083 201.22 40.7923 201.467 41.399 201.962C42.0057 202.447 42.379 203.124 42.519 203.992H40.475C40.391 203.637 40.223 203.357 39.971 203.152C39.719 202.937 39.4063 202.83 39.033 202.83C38.5197 202.83 38.109 203.021 37.801 203.404C37.493 203.787 37.339 204.286 37.339 204.902C37.339 205.518 37.493 206.017 37.801 206.4C38.109 206.783 38.5197 206.974 39.033 206.974C39.4157 206.974 39.733 206.867 39.985 206.652C40.2463 206.437 40.4143 206.143 40.489 205.77H42.519ZM43.2117 204.916C43.2117 204.169 43.361 203.521 43.6597 202.97C43.9677 202.41 44.3923 201.981 44.9337 201.682C45.4843 201.374 46.119 201.22 46.8377 201.22C47.5657 201.22 48.205 201.365 48.7557 201.654C49.3157 201.934 49.7497 202.335 50.0577 202.858C50.375 203.371 50.5383 203.978 50.5477 204.678C50.5477 204.93 50.529 205.154 50.4917 205.35H45.2697V205.406C45.3163 205.929 45.4843 206.339 45.7737 206.638C46.063 206.937 46.4597 207.086 46.9637 207.086C47.365 207.086 47.6963 207.002 47.9577 206.834C48.2283 206.657 48.4057 206.4 48.4897 206.064H50.4357C50.361 206.54 50.179 206.969 49.8897 207.352C49.6003 207.735 49.2177 208.038 48.7417 208.262C48.2657 208.477 47.7197 208.584 47.1037 208.584C46.301 208.584 45.6057 208.435 45.0177 208.136C44.439 207.837 43.991 207.413 43.6737 206.862C43.3657 206.302 43.2117 205.653 43.2117 204.916ZM48.5737 204.062C48.5083 203.623 48.3263 203.287 48.0277 203.054C47.7383 202.811 47.3697 202.69 46.9217 202.69C46.4923 202.69 46.1283 202.816 45.8297 203.068C45.5403 203.311 45.3677 203.642 45.3117 204.062H48.5737ZM53.1817 206.106C53.2097 206.423 53.3637 206.68 53.6437 206.876C53.9237 207.072 54.2831 207.17 54.7217 207.17C55.1417 207.17 55.4731 207.105 55.7157 206.974C55.9584 206.834 56.0797 206.638 56.0797 206.386C56.0797 206.199 56.0237 206.059 55.9117 205.966C55.7997 205.873 55.6411 205.807 55.4357 205.77C55.2304 205.723 54.8944 205.672 54.4277 205.616C53.7931 205.532 53.2657 205.425 52.8457 205.294C52.4257 205.163 52.0897 204.958 51.8377 204.678C51.5857 204.398 51.4597 204.025 51.4597 203.558C51.4597 203.091 51.5857 202.681 51.8377 202.326C52.0991 201.962 52.4631 201.682 52.9297 201.486C53.3964 201.29 53.9331 201.192 54.5397 201.192C55.5197 201.201 56.3084 201.411 56.9057 201.822C57.5124 202.233 57.8391 202.802 57.8857 203.53H56.0097C55.9817 203.259 55.8371 203.04 55.5757 202.872C55.3237 202.695 54.9971 202.606 54.5957 202.606C54.2224 202.606 53.9191 202.676 53.6857 202.816C53.4617 202.956 53.3497 203.143 53.3497 203.376C53.3497 203.544 53.4104 203.67 53.5317 203.754C53.6531 203.838 53.8117 203.899 54.0077 203.936C54.2037 203.973 54.5304 204.015 54.9877 204.062C55.9584 204.174 56.7004 204.384 57.2137 204.692C57.7364 204.991 57.9977 205.509 57.9977 206.246C57.9977 206.713 57.8577 207.123 57.5777 207.478C57.3071 207.833 56.9244 208.108 56.4297 208.304C55.9444 208.491 55.3797 208.584 54.7357 208.584C53.7371 208.584 52.9251 208.365 52.2997 207.926C51.6744 207.478 51.3431 206.871 51.3057 206.106H53.1817ZM60.6056 206.106C60.6336 206.423 60.7876 206.68 61.0676 206.876C61.3476 207.072 61.7069 207.17 62.1456 207.17C62.5656 207.17 62.8969 207.105 63.1396 206.974C63.3822 206.834 63.5036 206.638 63.5036 206.386C63.5036 206.199 63.4476 206.059 63.3356 205.966C63.2236 205.873 63.0649 205.807 62.8596 205.77C62.6542 205.723 62.3182 205.672 61.8516 205.616C61.2169 205.532 60.6896 205.425 60.2696 205.294C59.8496 205.163 59.5136 204.958 59.2616 204.678C59.0096 204.398 58.8836 204.025 58.8836 203.558C58.8836 203.091 59.0096 202.681 59.2616 202.326C59.5229 201.962 59.8869 201.682 60.3536 201.486C60.8202 201.29 61.3569 201.192 61.9636 201.192C62.9436 201.201 63.7322 201.411 64.3296 201.822C64.9362 202.233 65.2629 202.802 65.3096 203.53H63.4336C63.4056 203.259 63.2609 203.04 62.9996 202.872C62.7476 202.695 62.4209 202.606 62.0196 202.606C61.6462 202.606 61.3429 202.676 61.1096 202.816C60.8856 202.956 60.7736 203.143 60.7736 203.376C60.7736 203.544 60.8342 203.67 60.9556 203.754C61.0769 203.838 61.2356 203.899 61.4316 203.936C61.6276 203.973 61.9542 204.015 62.4116 204.062C63.3822 204.174 64.1242 204.384 64.6376 204.692C65.1602 204.991 65.4216 205.509 65.4216 206.246C65.4216 206.713 65.2816 207.123 65.0016 207.478C64.7309 207.833 64.3482 208.108 63.8536 208.304C63.3682 208.491 62.8036 208.584 62.1596 208.584C61.1609 208.584 60.3489 208.365 59.7236 207.926C59.0982 207.478 58.7669 206.871 58.7296 206.106H60.6056Z" fill="#34C759"/>
</svg>
