<svg width="281" height="213" viewBox="0 0 281 213" fill="none" xmlns="http://www.w3.org/2000/svg">
<path d="M177.558 60.5273H172.09V76.3248H177.558C180.595 76.3248 183.227 74.5498 183.227 72.2423V64.4323C183.227 62.3023 180.798 60.5273 177.558 60.5273Z" fill="#448FFC"/>
<path d="M97.57 64.4323V72.2423C97.57 74.3723 100 76.3248 103.24 76.3248H108.708V60.5273H103.24C100 60.5273 97.57 62.3023 97.57 64.4323Z" fill="#448FFC"/>
<path d="M212.59 182.292H68.2075V131.35C68.2075 123.185 74.89 115.907 84.8125 113.245L126.325 102.24C135.64 99.755 145.36 99.755 154.27 102.24L195.783 113.245C205.705 115.907 212.388 123.185 212.388 131.35L212.59 182.292Z" fill="#F99653"/>
<path d="M174.115 138.45H150.018V143.065H174.115V138.45Z" fill="#FFD551"/>
<path d="M155.688 80.0525H125.11V117.327H155.688V80.0525Z" fill="#EDBF9A"/>
<path d="M175.128 61.5924C175.128 82.1824 159.535 103.127 140.5 103.127C121.465 103.127 105.67 82.0049 105.67 61.5924C105.67 41.1799 121.263 28.5774 140.5 28.5774C159.738 28.5774 175.128 41.0024 175.128 61.5924Z" fill="#FFD9B6"/>
<path d="M101.418 145.373H100.405C99.3925 145.373 98.38 146.083 98.38 147.148V182.115H103.645V147.325C103.442 146.26 102.43 145.373 101.418 145.373Z" fill="#E08344"/>
<path d="M180.595 145.373H179.582C178.57 145.373 177.557 146.083 177.557 147.148V182.115H182.822V147.325C182.62 146.26 181.81 145.373 180.595 145.373Z" fill="#E08344"/>
<path d="M155.687 104.902L140.5 116.972L125.11 104.902L122.882 103.127L106.682 107.387L130.78 126.557L140.5 117.327L150.017 126.557L174.317 107.387L157.915 103.127L155.687 104.902Z" fill="#E08344"/>
<path d="M154.27 89.2824C151.84 89.2824 151.233 89.2824 148.195 89.1049H145.158V86.9749H148.195C162.168 87.3299 166.825 87.5074 171.078 84.3124C175.533 81.1174 174.723 72.9524 174.723 72.7749L177.153 72.5974C177.153 72.9524 178.165 82.0049 172.698 85.9099C168.648 88.9274 163.383 89.2824 154.27 89.2824Z" fill="#448FFC"/>
<path d="M150.827 91.7675H142.525C141.31 91.7675 140.297 90.88 140.297 89.815V87.1524C140.297 86.0874 141.31 85.2 142.525 85.2H150.827C152.042 85.2 153.055 86.0874 153.055 87.1524V89.815C153.257 90.7025 152.245 91.7675 150.827 91.7675Z" fill="#F99653"/>
<path d="M175.127 42.0674C175.127 32.6599 169.66 32.3049 169.66 32.3049L161.155 31.4174C159.535 31.2399 158.32 30.1749 158.117 28.7549C157.105 23.9624 153.055 24.4949 153.055 24.4949C153.055 24.4949 124.907 24.4949 115.997 27.5124C105.67 31.0624 103.24 37.2749 103.24 42.4224C103.24 52.8949 106.277 71.7099 108.1 75.9699C108.505 76.8574 110.327 76.6799 110.327 75.6149V61.5924C110.327 60.7049 111.137 59.9949 112.15 59.9949H151.435C152.447 59.9949 153.258 59.2849 153.258 58.3974V55.0249C153.258 54.1374 154.067 53.4274 155.08 53.4274C156.092 53.4274 156.7 54.1374 156.7 55.0249V58.3974C156.7 59.2849 157.51 59.9949 158.522 59.9949H168.647C169.66 59.9949 170.47 60.7049 170.47 61.5924V75.0824C170.47 76.1474 172.697 76.1474 173.102 75.2599C174.52 70.8224 175.33 66.3849 175.33 61.7699C175.33 59.8174 175.127 47.5699 175.127 42.0674Z" fill="#3F3F3F"/>
<path d="M84.8125 123.007H195.985C199.832 123.007 202.87 125.847 202.465 129.22L198.415 184.245H82.585L78.535 129.22C78.13 125.847 80.965 123.007 84.8125 123.007Z" fill="#EFEEED"/>
<path d="M147.79 170.4C147.79 167.56 145.765 165.252 142.93 164.365V169.335C142.93 170.4 142.12 171.465 140.703 171.465C139.285 171.642 137.868 170.577 137.868 169.335V164.365C134.83 165.252 132.805 167.915 133.008 170.932C133.21 173.417 135.235 175.547 137.868 176.435V183.002H142.728V176.435C145.765 175.725 147.79 173.24 147.79 170.4Z" fill="#80B2F9"/>
<path d="M161.763 175.547H166.623V165.962H161.763C161.155 164.187 160.548 162.412 159.333 160.992L162.775 157.975L155.08 151.052L151.638 154.07C149.815 153.182 147.993 152.472 145.968 151.94V147.68H135.033V151.94C133.008 152.472 131.185 153.005 129.363 154.07L125.92 151.052L118.225 157.797L121.668 160.815C120.655 162.412 119.845 164.01 119.238 165.785H114.378V175.37H119.238C119.643 176.967 120.453 178.387 121.263 179.807C121.263 179.985 121.465 180.162 121.668 180.34L118.225 183.357L124.098 188.505H127.743L129.363 187.085C130.375 187.617 131.59 188.15 132.603 188.505H148.398C149.613 188.15 150.625 187.617 151.638 187.085L153.258 188.505H156.902L162.977 183.357L159.535 180.34C159.738 180.162 159.737 179.985 159.94 179.63C160.75 178.387 161.358 176.967 161.763 175.547ZM142.93 181.05C142.12 181.227 141.31 181.227 140.5 181.227C139.69 181.227 138.88 181.227 138.07 181.05C136.855 180.872 135.64 180.34 134.425 179.807C130.78 178.032 128.35 174.482 128.35 170.577C128.35 164.72 133.818 159.927 140.5 159.927C147.183 159.927 152.65 164.72 152.65 170.577C152.65 174.482 150.22 177.855 146.575 179.807C145.563 180.34 144.145 180.872 142.93 181.05Z" fill="#80B2F9"/>
<path d="M224.132 184.245C224.132 185.487 223.525 186.552 222.715 187.44C221.905 188.327 220.487 188.682 219.07 188.682H61.93C59.095 188.682 56.8675 186.73 56.8675 184.245C56.8675 183.002 57.475 181.937 58.285 181.05C59.095 180.162 60.5125 179.807 61.93 179.807H219.07C221.905 179.807 224.132 181.76 224.132 184.245Z" fill="#448FFC"/>
</svg>
