<svg width="243" height="213" viewBox="0 0 243 213" fill="none" xmlns="http://www.w3.org/2000/svg">
<path d="M92.7075 11.5988H116.009C124.836 11.5988 132.192 17.1662 133.873 24.5198H147.166C145.379 10.7405 132.087 0 116.009 0H92.7075C76.6301 0 63.3374 10.7405 61.5508 24.5198H74.8438C76.525 17.143 83.8807 11.5988 92.7075 11.5988Z" fill="#1782CF" fill-opacity="0.6"/>
<path d="M33.416 74.0001C52.2781 84.7638 77.4712 90.7023 104.372 90.7023C131.273 90.7023 156.439 84.7638 175.328 74.0001C192.298 64.3267 202.15 51.8232 203.358 38.5774C198.813 33.5435 191.825 30.3191 183.944 30.3191H147.376H134.241H74.5027H61.3675H24.7994C16.9446 30.3191 9.93047 33.5435 5.38573 38.5774C6.59416 51.8232 16.4455 64.3035 33.416 74.0001Z" fill="#1782CF" fill-opacity="0.6"/>
<path d="M95.3875 106.175C95.3875 109.794 98.7238 112.74 102.822 112.74H105.896C109.994 112.74 113.33 109.794 113.33 106.175V100.933H95.3875V106.175Z" fill="#1782CF" fill-opacity="0.6"/>
<path d="M24.7991 142.387H135.003V127.61C135.003 125.824 135.817 124.13 137.262 122.877L162.402 101.049C163.821 99.819 165.712 99.1463 167.683 99.1463H208.717V55.5813C207.613 57.5763 206.352 59.5481 204.908 61.4967C199.26 69.1287 191.195 75.9488 181.002 81.7713C165.161 90.8184 145.327 96.7106 123.838 98.9607V100.909V106.152C123.838 114.898 115.799 121.996 105.895 121.996H102.822C92.9177 121.996 84.8788 114.897 84.8788 106.152V100.909V98.9607C63.3897 96.7335 43.5557 90.8182 27.7148 81.7713C17.522 75.9488 9.45701 69.1287 3.80892 61.4967C2.36432 59.5481 1.10335 57.5763 0 55.5813V120.488C0 132.574 11.1123 142.387 24.7991 142.387Z" fill="#1782CF" fill-opacity="0.6"/>
<path d="M173.279 104.435C169.759 104.435 166.317 105.711 163.822 107.915L145.669 124.061C143.173 126.288 141.807 129.211 141.807 132.342V142.387V145.287V148.186V201.239C141.807 201.795 141.86 202.352 141.939 202.886C142.832 208.592 148.401 213 155.126 213H229.681C237.011 213 243 207.734 243 201.239V116.173C243 110.49 238.429 105.758 232.361 104.667C231.494 104.505 230.601 104.435 229.707 104.435H215.285H212.001H208.718H173.279ZM215.285 116.034H229.681C229.786 116.034 229.865 116.104 229.865 116.197V201.262C229.865 201.285 229.865 201.285 229.865 201.309C229.839 201.378 229.786 201.425 229.707 201.425C229.707 201.425 229.707 201.425 229.681 201.425H155.126C155.021 201.425 154.942 201.355 154.942 201.262V148.186V145.286V142.387V134.732H164.584C170.599 134.732 175.486 130.416 175.486 125.105V116.034H208.718H212.001H215.285Z" fill="#FF9500" fill-opacity="0.6"/>
<path d="M197.027 142.41H168.419C166.002 142.41 163.901 143.57 162.744 145.286C162.166 146.144 161.851 147.119 161.851 148.186V148.209C161.851 151.41 164.793 154.009 168.419 154.009H216.414C220.04 154.009 222.982 151.41 222.982 148.209C222.982 145.008 220.04 142.41 216.414 142.41H203.095H197.027Z" fill="#FF9500" fill-opacity="0.6"/>
<path d="M216.414 178.946H168.419C164.793 178.946 161.851 181.544 161.851 184.745C161.851 187.946 164.793 190.545 168.419 190.545H216.414C220.04 190.545 222.982 187.946 222.982 184.745C222.982 181.544 220.04 178.946 216.414 178.946Z" fill="#FF9500" fill-opacity="0.6"/>
<path d="M216.414 160.689H168.419C164.793 160.689 161.851 163.288 161.851 166.489C161.851 169.69 164.793 172.288 168.419 172.288H216.414C220.04 172.288 222.982 169.69 222.982 166.489C222.982 163.288 220.04 160.689 216.414 160.689Z" fill="#FF9500" fill-opacity="0.6"/>
</svg>
