<svg width="15" height="16" viewBox="0 0 15 16" fill="none" xmlns="http://www.w3.org/2000/svg">
<g clip-path="url(#clip0_759_761)">
<path d="M15 5V1C15 0.867393 14.9473 0.740216 14.8536 0.646447C14.7598 0.552679 14.6326 0.500001 14.5 0.500001L10.5 0.500001C10.401 0.499824 10.3041 0.529052 10.2217 0.583981C10.1394 0.638909 10.0751 0.717064 10.0372 0.808538C9.9993 0.900011 9.98939 1.00068 10.0088 1.09779C10.0281 1.1949 10.0759 1.28407 10.146 1.354L11.793 3L0.145999 14.646L0.853999 15.354L12.5 3.707L14.146 5.354C14.2159 5.42411 14.3051 5.47187 14.4022 5.49124C14.4993 5.51061 14.6 5.5007 14.6915 5.46279C14.7829 5.42487 14.8611 5.36064 14.916 5.27825C14.9709 5.19586 15.0002 5.09902 15 5Z" fill="white"/>
</g>
<defs>
<clipPath id="clip0_759_761">
<rect width="15" height="15" fill="white" transform="matrix(0 1 -1 0 15 0.5)"/>
</clipPath>
</defs>
</svg>
