<svg width="52" height="50" viewBox="0 0 52 50" fill="none" xmlns="http://www.w3.org/2000/svg">
<path d="M49.3883 8.33241L26.8883 0.832405C26.3121 0.637896 25.6879 0.637896 25.1117 0.832405L2.6117 8.33241C2.07483 8.51022 1.60404 8.84575 1.26077 9.29522C0.917507 9.74468 0.717718 10.2872 0.687486 10.8519C0.6849 10.9011 0.6849 10.9504 0.687486 10.9996V29.7496C0.687486 30.4955 0.983802 31.2109 1.51125 31.7383C2.03869 32.2658 2.75406 32.5621 3.49999 32.5621C4.24591 32.5621 4.96128 32.2658 5.48872 31.7383C6.01617 31.2109 6.31249 30.4955 6.31249 29.7496V14.9019L11.8695 16.7535C10.1449 20.0547 9.63238 23.8561 10.4212 27.4961C11.21 31.1361 13.2502 34.3843 16.1867 36.6754C12.344 38.5703 9.09177 41.4789 6.78124 45.0871C6.57317 45.3963 6.42864 45.7439 6.35606 46.1095C6.28348 46.4751 6.28429 46.8514 6.35845 47.2167C6.43261 47.582 6.57863 47.9289 6.78804 48.2372C6.99744 48.5456 7.26605 48.8092 7.57824 49.0128C7.89043 49.2165 8.23998 49.356 8.60658 49.4233C8.97317 49.4907 9.3495 49.4845 9.71367 49.4051C10.0779 49.3257 10.4226 49.1748 10.7279 48.961C11.0333 48.7472 11.293 48.4748 11.4922 48.1598C14.8367 43.0129 20.1406 40.0621 26 40.0621C31.8594 40.0621 37.1633 43.0129 40.5195 48.1598C40.7187 48.4748 40.9784 48.7472 41.2837 48.961C41.5891 49.1748 41.9338 49.3257 42.298 49.4051C42.6622 49.4845 43.0385 49.4907 43.4051 49.4233C43.7717 49.356 44.1213 49.2165 44.4335 49.0128C44.7456 48.8092 45.0142 48.5456 45.2237 48.2372C45.4331 47.9289 45.5791 47.582 45.6532 47.2167C45.7274 46.8514 45.7282 46.4751 45.6556 46.1095C45.583 45.7439 45.4385 45.3963 45.2305 45.0871C42.9177 41.4747 39.6612 38.5635 35.8133 36.6683C38.7498 34.3773 40.79 31.1291 41.5788 27.489C42.3676 23.849 41.8551 20.0476 40.1305 16.7465L49.3883 13.6597C49.9476 13.4726 50.4339 13.1144 50.7785 12.6358C51.123 12.1572 51.3084 11.5823 51.3084 10.9926C51.3084 10.4028 51.123 9.82796 50.7785 9.34933C50.4339 8.87069 49.9476 8.51249 49.3883 8.32537V8.33241ZM26 6.45741L39.6055 10.9996L26 15.5347L12.4062 10.9996L26 6.45741ZM36.3125 24.1246C36.3128 25.7264 35.9399 27.3062 35.2235 28.7389C34.5071 30.1715 33.4668 31.4176 32.1851 32.3783C30.9034 33.339 29.4155 33.988 27.8394 34.2737C26.2633 34.5594 24.6423 34.474 23.1049 34.0243C21.5675 33.5746 20.156 32.773 18.9823 31.683C17.8086 30.593 16.9049 29.2445 16.343 27.7445C15.781 26.2445 15.5762 24.6343 15.7447 23.0414C15.9133 21.4485 16.4506 19.9167 17.3141 18.5676L25.1117 21.1668C25.6881 21.3604 26.3119 21.3604 26.8883 21.1668L34.6859 18.5676C35.7495 20.2257 36.3141 22.1546 36.3125 24.1246Z" fill="#FF9500"/>
</svg>
