<svg width="67" height="66" viewBox="0 0 67 66" fill="none" xmlns="http://www.w3.org/2000/svg">
<g clip-path="url(#clip0_782_737)">
<path d="M33.1124 24.6469C36.6752 27.8427 42.1451 27.5457 45.3409 23.983L51.1232 17.5368L44.677 11.7545C41.1143 8.55866 35.6443 8.85563 32.4485 12.4184C29.2527 15.9811 29.5497 21.451 33.1124 24.6469Z" fill="#00C7BE"/>
<path d="M59.4925 31.8986L52.0897 25.2583C50.1836 23.5485 47.2182 23.7029 45.5021 25.616L42.8224 28.6034L42.8147 28.584L39.3951 32.3963C38.7144 30.9101 37.7231 29.533 36.4269 28.3704L28.9826 21.6927C23.9504 17.1788 16.2057 17.5993 11.6918 22.6315L8.90008 25.7437C4.37995 30.7828 4.80041 38.5275 9.8326 43.0414L17.2769 49.7191C22.3091 54.233 30.0538 53.8125 34.5677 48.7803L37.3594 45.6681C40.0454 42.6738 40.985 38.7258 40.246 35.0734L42.6741 35.5877L50.153 42.2964C52.0592 44.0063 55.0246 43.8519 56.7406 41.9388L59.837 38.487C61.5661 36.5732 61.4055 33.6147 59.4925 31.8986ZM30.3199 31.023L19.0314 39.6473L26.3898 27.4976L26.4522 27.5536L31.4735 25.916L30.3893 31.0851L30.3199 31.023ZM46.2052 31.4002C45.4913 30.7598 45.432 29.6684 46.0724 28.9545C46.7128 28.2405 47.8042 28.1813 48.5181 28.8217C49.232 29.4621 49.2913 30.5535 48.6509 31.2674C48.0105 31.9813 46.9191 32.0406 46.2052 31.4002ZM50.2878 35.0623C49.5739 34.4219 49.5146 33.3305 50.155 32.6166C50.7954 31.9027 51.8868 31.8434 52.6007 32.4838C53.3146 33.1242 53.3739 34.2156 52.7335 34.9295C52.0931 35.6434 51.0017 35.7027 50.2878 35.0623ZM54.3704 38.7244C53.6564 38.084 53.5972 36.9926 54.2376 36.2787C54.878 35.5648 55.9694 35.5055 56.6833 36.1459C57.3972 36.7863 57.4565 37.8777 56.8161 38.5916C56.1757 39.3056 55.0774 39.3586 54.3704 38.7244Z" fill="#1782CF"/>
</g>
<defs>
<clipPath id="clip0_782_737">
<rect width="46.5569" height="46.5569" fill="white" transform="translate(31.7153 0.127686) rotate(41.8924)"/>
</clipPath>
</defs>
</svg>
