<svg width="67" height="66" viewBox="0 0 67 66" fill="none" xmlns="http://www.w3.org/2000/svg">
<g clip-path="url(#clip0_782_1113)">
<path d="M24.1989 32.4747C24.9429 33.1421 25.7948 34.0313 26.678 34.9838L28.8153 37.3075C29.6984 38.2599 30.5503 39.1492 31.2944 39.8166L33.1897 41.5167C33.937 42.187 33.9994 43.3376 33.3291 44.0849L33.2611 44.1607C32.9376 44.5212 32.4992 44.7586 32.0204 44.8323C31.5417 44.906 31.0521 44.8115 30.6352 44.5649L30.3223 44.38L29.1933 43.6449L28.8253 43.3949L28.5435 43.1949C28.5098 43.1701 28.4765 43.1448 28.4436 43.1189L28.3799 43.0657L24.7077 40.6121C24.5399 40.5001 24.3374 40.4523 24.1373 40.4773C23.9372 40.5024 23.7528 40.5986 23.6178 40.7485C23.3438 41.0539 23.3567 41.5189 23.6444 41.8083L24.6346 42.7961L25.5284 43.6604L26.0691 44.1689L26.3249 44.4023L26.8015 44.8297L27.2379 45.2017L27.6291 45.5194L27.8088 45.659L28.1368 45.8947C28.2375 45.9654 28.3325 46.0252 28.4208 46.0771L28.5472 46.1475C28.9916 46.3819 29.3913 46.6075 29.7584 46.8235L30.4525 47.235L30.7752 47.4287C31.0787 47.6585 31.4017 47.8612 31.7405 48.0347C32.8013 48.5953 34.0337 48.9971 35.2614 49.3323L36.482 49.6493L37.6602 49.9439C38.6148 50.1826 39.4828 50.4198 40.166 50.7062C42.2156 51.5675 40.7936 54.2009 39.2649 53.8069C39.0372 53.753 38.8069 53.7108 38.5749 53.6805L37.9369 53.5987L37.1877 53.5189L34.0306 53.2101L33.0771 53.1074L32.1448 52.9942C30.7761 52.8161 29.565 52.5974 28.8818 52.311L27.8101 51.852L26.3928 51.2315L24.7832 50.5049L23.9536 50.1224L22.7334 49.5457L21.966 49.1701L21.2531 48.8101L20.6188 48.4757C20.0285 48.1533 19.5829 47.8787 19.3674 47.6854L19.136 47.4662L18.8385 47.166L18.4821 46.7877L18.0736 46.3431L17.6226 45.835L17.1367 45.272L16.3555 44.3387L16.0851 44.0083L15.5357 43.32L14.9798 42.6063L14.4288 41.8697C14.1539 41.4971 13.8844 41.1205 13.6205 40.7401L13.1075 39.9829C12.7821 39.4917 12.4711 38.9912 12.175 38.4819L11.9665 38.1151C10.958 36.2957 9.96611 34.9721 8.992 34.1472C8.70935 33.9078 8.53333 33.566 8.50267 33.1969C8.472 32.8278 8.5892 32.4616 8.82848 32.1789L13.6305 26.8255C14.1454 26.2515 15.0289 26.2035 15.6029 26.7184L16.6469 27.6549C17.1993 28.1504 18.0431 28.663 18.9944 29.2017L20.4808 30.0308L21.4951 30.6083C22.5006 31.1956 23.4624 31.8141 24.1989 32.4747ZM51.2499 23.5138L49.3004 29.0513L51.838 34.3452L46.543 36.8818L44.5945 42.4203L39.056 40.4698L36.5497 41.6733C36.3163 40.7764 35.8233 39.9685 35.1326 39.3506L33.0868 37.5155L32.7806 37.2272L32.2797 36.731L31.8967 36.3366L30.9542 35.3348L28.4985 32.6688L27.6962 31.8201L27.2402 31.3524L27.6365 30.2264L25.1 24.9335L30.3939 22.3959L32.3434 16.8584L37.8809 18.8079L43.1748 16.2704L45.7124 21.5643L51.2499 23.5138ZM46.2054 29.9807L46.023 29.9793L35.0035 30.5765L34.7197 25.3674C34.699 24.9983 34.5386 24.6509 34.2711 24.3958C34.0036 24.1407 33.649 23.997 33.2794 23.9938C32.9098 23.9907 32.5528 24.1284 32.281 24.3789C32.0092 24.6294 31.8429 24.974 31.816 25.3426L31.8136 25.5262L32.1763 32.1879C32.1952 32.5417 32.3426 32.8764 32.5908 33.1292C32.839 33.3821 33.1709 33.5357 33.5243 33.5612L33.7077 33.5616L46.1797 32.8855C46.5346 32.8673 46.8706 32.7198 47.1242 32.4709C47.3779 32.2219 47.5316 31.8888 47.5565 31.5343C47.5814 31.1798 47.4756 30.8284 47.2592 30.5465C47.0428 30.2646 46.7307 30.0717 46.3818 30.0041L46.2054 29.9807Z" fill="#34C759"/>
</g>
<defs>
<clipPath id="clip0_782_1113">
<rect width="46.5569" height="46.5569" fill="white" transform="translate(31.7153 0.127686) rotate(41.8924)"/>
</clipPath>
</defs>
</svg>
