<svg width="129" height="148" viewBox="0 0 129 148" fill="none" xmlns="http://www.w3.org/2000/svg">
<path fill-rule="evenodd" clip-rule="evenodd" d="M64.5 43.1663V12.333H53.75C38.5495 12.333 30.9439 12.333 26.2246 17.7535C21.5 23.1678 21.5 31.8937 21.5 49.333V98.6663C21.5 116.106 21.5 124.832 26.2246 130.246C30.9439 135.666 38.5495 135.666 53.75 135.666H75.25C90.4505 135.666 98.0561 135.666 102.775 130.246C107.5 124.832 107.5 116.106 107.5 98.6663V61.6663H80.3348C78.0504 61.6663 75.8359 61.6663 74.0138 61.3827C71.9498 61.0682 69.6009 60.2912 67.6498 58.0527C65.6986 55.8142 65.0214 53.1193 64.7472 50.7575C64.5 48.6547 64.5 46.114 64.5 43.4993V43.1663ZM75.25 43.1663V12.3638C77.4645 12.4255 78.9265 12.6228 80.2864 13.2703C82.2644 14.2077 83.8178 15.996 86.9245 19.5603L101.2 35.939C104.313 39.5033 105.861 41.2917 106.683 43.5548C107.247 45.115 107.419 46.7923 107.473 49.333H80.625C77.9375 49.333 76.4648 49.3207 75.4435 49.1603H75.4059L75.4005 49.111C75.2607 47.9393 75.25 46.2497 75.25 43.1663ZM58.2543 74.7643L77.0452 85.3587C81.8182 88.0473 81.8182 96.952 77.0452 99.6407L58.2543 110.235C53.578 112.874 48.375 108.36 48.375 101.663V83.3298C48.375 76.639 53.578 72.1312 58.2543 74.7643Z" fill="#D4E8F6"/>
</svg>
