<svg xmlns="http://www.w3.org/2000/svg" xmlns:xlink="http://www.w3.org/1999/xlink" viewBox="0 0 500 500" width="500" height="500" preserveAspectRatio="xMidYMid meet" style="width: 100%; height: 100%; transform: translate3d(0px, 0px, 0px); content-visibility: visible;"><defs><clipPath id="__lottie_element_678"><rect width="500" height="500" x="0" y="0"></rect></clipPath></defs><g clip-path="url(#__lottie_element_678)"><g transform="matrix(1.440000057220459,0,0,1.440000057220459,-180.99954223632812,-100.99954223632812)" opacity="1" style="display: block;"><g opacity="1" transform="matrix(1,0,0,1,217.0659942626953,172.7760009765625)"><path fill="rgb(56,57,69)" fill-opacity="1" d=" M-17.59000015258789,0 C-17.59000015258789,9.71399974822998 -9.71500015258789,17.589000701904297 -0.0010000000474974513,17.589000701904297 C9.71399974822998,17.589000701904297 17.589000701904297,9.71399974822998 17.589000701904297,0 C17.589000701904297,-9.71399974822998 9.71399974822998,-17.589000701904297 -0.0010000000474974513,-17.589000701904297 C-9.71500015258789,-17.589000701904297 -17.59000015258789,-9.71399974822998 -17.59000015258789,0z"></path></g><g opacity="1" transform="matrix(1,0,0,1,296.79998779296875,172.7760009765625)"><path fill="rgb(56,57,69)" fill-opacity="1" d=" M-17.59000015258789,0 C-17.59000015258789,9.71399974822998 -9.71500015258789,17.589000701904297 -0.0010000000474974513,17.589000701904297 C9.71399974822998,17.589000701904297 17.589000701904297,9.71399974822998 17.589000701904297,0 C17.589000701904297,-9.71399974822998 9.71399974822998,-17.589000701904297 -0.0010000000474974513,-17.589000701904297 C-9.71500015258789,-17.589000701904297 -17.59000015258789,-9.71399974822998 -17.59000015258789,0z"></path></g><g opacity="1" transform="matrix(1,0,0,1,257.14898681640625,243.4550018310547)"><path fill="rgb(246,187,159)" fill-opacity="1" d=" M-5.195000171661377,63.16699981689453 C-5.195000171661377,63.16699981689453 -97.08899688720703,62.90299987792969 -48.233001708984375,48.24700164794922 C0.6240000128746033,33.59000015258789 -5.951000213623047,5.290999889373779 -30.645000457763672,-26.81599998474121 C-74.72000122070312,-84.12300109863281 9.880000114440918,-143.0279998779297 28.959999084472656,-107.11699676513672 C67.82099914550781,-33.97700119018555 30.5310001373291,-29.235000610351562 22.062000274658203,-4.480000019073486 C13.708000183105469,19.93899917602539 16.75200080871582,29.2189998626709 35.645999908447266,37.487998962402344 C39.82099914550781,39.314998626708984 35.20500183105469,47.19200134277344 39.547000885009766,51.244998931884766 C47.840999603271484,58.987998962402344 37.3390007019043,49.862998962402344 38.17599868774414,52.237998962402344 C40.95100021362305,60.111000061035156 30.086999893188477,61.77799987792969 30.086999893188477,61.77799987792969 C30.086999893188477,61.77799987792969 -5.195000171661377,63.16699981689453 -5.195000171661377,63.16699981689453z"></path></g><g opacity="1" transform="matrix(1,0,0,1,210.31900024414062,196.79299926757812)"><path fill="rgb(246,187,159)" fill-opacity="1" d=" M9.609999656677246,-3.4210000038146973 C11.23799991607666,3.8340001106262207 11.227999687194824,13.843000411987305 5.4720001220703125,13.843000411987305 C-0.2849999964237213,13.843000411987305 -11.237000465393066,2.3359999656677246 -11.237000465393066,-3.4210000038146973 C-11.237000465393066,-9.177000045776367 -6.570000171661377,-13.843000411987305 -0.8130000233650208,-13.843000411987305 C4.942999839782715,-13.843000411987305 8.348999977111816,-9.038000106811523 9.609999656677246,-3.4210000038146973z"></path></g><g opacity="1" transform="matrix(1,0,0,1,307.34100341796875,196.79299926757812)"><path fill="rgb(246,187,159)" fill-opacity="1" d=" M-9.609000205993652,-3.4210000038146973 C-11.237000465393066,3.8340001106262207 -11.22700023651123,13.843000411987305 -5.46999979019165,13.843000411987305 C0.28700000047683716,13.843000411987305 11.23799991607666,2.3359999656677246 11.23799991607666,-3.4210000038146973 C11.23799991607666,-9.177000045776367 6.572000026702881,-13.843000411987305 0.8149999976158142,-13.843000411987305 C-4.941999912261963,-13.843000411987305 -8.347000122070312,-9.038000106811523 -9.609000205993652,-3.4210000038146973z"></path></g><g opacity="1" transform="matrix(1,0,0,1,259.0150146484375,250.5189971923828)"><path fill="rgb(233,147,110)" fill-opacity="1" d=" M-13.722999572753906,10.185999870300293 C-13.722999572753906,10.185999870300293 6.086999893188477,16.32200050354004 16.465999603271484,1.5540000200271606 C16.465999603271484,1.5540000200271606 19.54400062561035,-12.847000122070312 20.41200065612793,-14.583999633789062 C21.2810001373291,-16.320999145507812 19.54400062561035,-12.847000122070312 19.54400062561035,-12.847000122070312 C19.54400062561035,-12.847000122070312 -21.2810001373291,-12.847000122070312 -21.2810001373291,-12.847000122070312 C-21.2810001373291,-12.847000122070312 -12.680000305175781,-2.828000068664551 -13.722999572753906,10.185999870300293z"></path></g><g opacity="1" transform="matrix(1,0,0,1,261.4320068359375,203.88499450683594)"><path fill="rgb(56,57,69)" fill-opacity="1" d=" M-37.595001220703125,-44.38800048828125 C-37.595001220703125,-44.38800048828125 -47.474998474121094,3.49399995803833 -31.406999588012695,17.826000213623047 C-15.336999893188477,32.15800094604492 -16.7189998626709,0.8859999775886536 -0.13699999451637268,0.24799999594688416 C11.154999732971191,-0.1860000044107437 16.091999053955078,29.13800048828125 32.9640007019043,10.732999801635742 C44.00299835205078,-1.3079999685287476 32.71099853515625,-48.69900131225586 32.71099853515625,-48.69900131225586 C32.71099853515625,-48.69900131225586 42.20000076293945,-42.43299865722656 42.20000076293945,-42.43299865722656 C42.20000076293945,-42.43299865722656 53.516998291015625,40.9900016784668 0.5270000100135803,44.823001861572266 C-53.516998291015625,48.73099899291992 -52.244998931884766,-34.48099899291992 -47.59600067138672,-44.0620002746582 C-47.59600067138672,-44.0620002746582 -41.50400161743164,-48.73099899291992 -37.595001220703125,-44.38800048828125z"></path></g><g opacity="1" transform="matrix(1,0,0,1,240.99200439453125,183.58299255371094)"><path fill="rgb(56,57,69)" fill-opacity="1" d=" M3.690999984741211,0 C3.690999984741211,2.0390000343322754 2.0390000343322754,3.690999984741211 0,3.690999984741211 C-2.0390000343322754,3.690999984741211 -3.691999912261963,2.0390000343322754 -3.691999912261963,0 C-3.691999912261963,-2.0390000343322754 -2.0390000343322754,-3.690999984741211 0,-3.690999984741211 C2.0390000343322754,-3.690999984741211 3.690999984741211,-2.0390000343322754 3.690999984741211,0z"></path></g><g opacity="1" transform="matrix(1,0,0,1,283.3630065917969,178.9499969482422)"><path fill="rgb(56,57,69)" fill-opacity="1" d=" M3.691999912261963,-0.0010000000474974513 C3.691999912261963,2.0380001068115234 2.0390000343322754,3.690999984741211 0,3.690999984741211 C-2.0380001068115234,3.690999984741211 -3.691999912261963,2.0380001068115234 -3.691999912261963,-0.0010000000474974513 C-3.691999912261963,-2.0399999618530273 -2.0380001068115234,-3.690999984741211 0,-3.690999984741211 C2.0390000343322754,-3.690999984741211 3.691999912261963,-2.0399999618530273 3.691999912261963,-0.0010000000474974513z"></path></g><g opacity="1" transform="matrix(1,0,0,1,260.65301513671875,192.7729949951172)"><path fill="rgb(56,57,69)" fill-opacity="1" d=" M1.2039999961853027,11.225000381469727 C1.1030000448226929,11.225000381469727 1.0019999742507935,11.21399974822998 0.8999999761581421,11.192000389099121 C-2.190000057220459,10.529999732971191 -3.8550000190734863,3.684999942779541 -4.1570000648498535,2.319999933242798 C-4.1570000648498535,2.319999933242798 -2.2039999961853027,1.8869999647140503 -2.2039999961853027,1.8869999647140503 C-1.5379999876022339,4.88700008392334 -0.18700000643730164,8.21500015258789 0.9419999718666077,9.050999641418457 C1.5850000381469727,6.822000026702881 0.8370000123977661,-2.7170000076293945 -0.3109999895095825,-10.947999954223633 C-0.3109999895095825,-10.947999954223633 1.6710000038146973,-11.225000381469727 1.6710000038146973,-11.225000381469727 C2.7090001106262207,-3.7739999294281006 4.1570000648498535,8.99899959564209 2.186000108718872,10.831000328063965 C1.909999966621399,11.088000297546387 1.562999963760376,11.223999977111816 1.2039999961853027,11.225000381469727z"></path></g><g opacity="1" transform="matrix(1,0,0,1,233.82699584960938,202.00399780273438)"><path fill="rgb(233,147,110)" fill-opacity="1" d=" M5.211999893188477,0 C5.211999893188477,2.878000020980835 2.878000020980835,5.210999965667725 -0.0010000000474974513,5.210999965667725 C-2.878999948501587,5.210999965667725 -5.211999893188477,2.878000020980835 -5.211999893188477,0 C-5.211999893188477,-2.878000020980835 -2.878999948501587,-5.210999965667725 -0.0010000000474974513,-5.210999965667725 C2.878000020980835,-5.210999965667725 5.211999893188477,-2.878000020980835 5.211999893188477,0z"></path></g><g opacity="1" transform="matrix(1,0,0,1,286.35400390625,202.00399780273438)"><path fill="rgb(233,147,110)" fill-opacity="1" d=" M5.211999893188477,0 C5.211999893188477,2.878000020980835 2.878000020980835,5.210999965667725 0,5.210999965667725 C-2.878000020980835,5.210999965667725 -5.211999893188477,2.878000020980835 -5.211999893188477,0 C-5.211999893188477,-2.878000020980835 -2.878000020980835,-5.210999965667725 0,-5.210999965667725 C2.878000020980835,-5.210999965667725 5.211999893188477,-2.878000020980835 5.211999893188477,0z"></path></g><g opacity="1" transform="matrix(1,0,0,1,208.98199462890625,197.80099487304688)"><path fill="rgb(56,57,69)" fill-opacity="1" d=" M1.9709999561309814,6.64300012588501 C1.4119999408721924,-2.061000108718872 -0.45100000500679016,-3.806999921798706 -1.2259999513626099,-4.1529998779296875 C-1.9730000495910645,-4.485000133514404 -2.6730000972747803,-3.947000026702881 -2.703000068664551,-3.9240000247955322 C-2.703000068664551,-3.9240000247955322 -3.9670000076293945,-5.4730000495910645 -3.9670000076293945,-5.4730000495910645 C-3.364000082015991,-5.9720001220703125 -1.9450000524520874,-6.64300012588501 -0.44699999690055847,-5.995999813079834 C2.052000045776367,-4.914999961853027 3.494999885559082,-0.8230000138282776 3.9670000076293945,6.513999938964844 C3.9670000076293945,6.513999938964844 1.9709999561309814,6.64300012588501 1.9709999561309814,6.64300012588501z"></path></g><g opacity="1" transform="matrix(1,0,0,1,307.5090026855469,197.80099487304688)"><path fill="rgb(56,57,69)" fill-opacity="1" d=" M-1.9700000286102295,6.64300012588501 C-1.9700000286102295,6.64300012588501 -3.9660000801086426,6.513999938964844 -3.9660000801086426,6.513999938964844 C-3.49399995803833,-0.8230000138282776 -2.0510001182556152,-4.914999961853027 0.4480000138282776,-5.995999813079834 C1.940000057220459,-6.64300012588501 3.36299991607666,-5.9720001220703125 3.9660000801086426,-5.4730000495910645 C3.9660000801086426,-5.4730000495910645 2.7019999027252197,-3.9240000247955322 2.7019999027252197,-3.9240000247955322 C2.6730000972747803,-3.947000026702881 1.9709999561309814,-4.486000061035156 1.2269999980926514,-4.1529998779296875 C0.4519999921321869,-3.806999921798706 -1.409999966621399,-2.061000108718872 -1.9700000286102295,6.64300012588501z"></path></g><g opacity="1" transform="matrix(1,0,0,1,259.9909973144531,146.38499450683594)"><path fill="rgb(233,147,110)" fill-opacity="1" d=" M-36.15399932861328,13.112000465393066 C-36.15399932861328,13.112000465393066 -23.4950008392334,-0.21899999678134918 -11.050000190734863,1.9450000524520874 C1.3960000276565552,4.110000133514404 5.434999942779541,25.232999801635742 36.15399932861328,18.5939998626709 C36.15399932861328,18.5939998626709 18.197999954223633,11.73900032043457 8.065999984741211,3.680999994277954 C-2.065999984741211,-4.376999855041504 -12.82699966430664,-25.232999801635742 -36.15399932861328,13.112000465393066z"></path></g><g opacity="1" transform="matrix(1,0,0,1,256.6499938964844,145.4409942626953)"><path fill="rgb(56,57,69)" fill-opacity="1" d=" M-32.8129997253418,14.055999755859375 C-32.8129997253418,14.055999755859375 -18.155000686645508,-10.697999954223633 -5.125999927520752,-6.789999961853027 C7.9019999504089355,-2.88100004196167 28.20599937438965,27.10300064086914 45.25299835205078,17.81100082397461 C45.25299835205078,17.81100082397461 44.064998626708984,-29.368000030517578 0.09300000220537186,-27.413999557495117 C-43.880001068115234,-25.459999084472656 -45.25299835205078,29.367000579833984 -32.8129997253418,14.055999755859375z"></path></g><g opacity="1" transform="matrix(1,0,0,1,211.88800048828125,168.75100708007812)"><path fill="rgb(83,121,132)" fill-opacity="1" d=" M-7.8429999351501465,11.006999969482422 C-7.8429999351501465,11.006999969482422 -7.877999782562256,10.008000373840332 -7.877999782562256,10.008000373840332 C-7.811999797821045,10.005999565124512 -1.2640000581741333,9.720999717712402 2.8399999141693115,4.741000175476074 C5.853000164031982,1.0839999914169312 6.8429999351501465,-4.160999774932861 5.781000137329102,-10.848999977111816 C5.781000137329102,-10.848999977111816 6.76800012588501,-11.006999969482422 6.76800012588501,-11.006999969482422 C7.877999782562256,-4.01800012588501 6.813000202178955,1.4980000257492065 3.6040000915527344,5.386000156402588 C-0.7940000295639038,10.71399974822998 -7.557000160217285,10.998000144958496 -7.8429999351501465,11.006999969482422z"></path></g><g opacity="1" transform="matrix(1,0,0,1,208.5189971923828,164.22999572753906)"><path fill="rgb(83,121,132)" fill-opacity="1" d=" M-9.038000106811523,9.045000076293945 C-9.038000106811523,9.045000076293945 -9.045999526977539,8.045000076293945 -9.045999526977539,8.045000076293945 C-9.003000259399414,8.045000076293945 -4.703999996185303,7.98199987411499 -0.4690000116825104,5.834000110626221 C5.1529998779296875,2.9820001125335693 8.019000053405762,-2.0230000019073486 8.04699993133545,-9.045000076293945 C8.04699993133545,-9.045000076293945 9.04699993133545,-9.041000366210938 9.04699993133545,-9.041000366210938 C8.975000381469727,8.70199966430664 -8.857999801635742,9.043999671936035 -9.038000106811523,9.045000076293945z"></path></g><g opacity="1" transform="matrix(1,0,0,1,306.43798828125,167.9290008544922)"><path fill="rgb(83,121,132)" fill-opacity="1" d=" M0.7829999923706055,8.939000129699707 C0.3199999928474426,8.939000129699707 -0.1289999932050705,8.862000465393066 -0.5640000104904175,8.704999923706055 C-6.22599983215332,6.660999774932861 -6.96999979019165,-8.260000228881836 -6.998000144958496,-8.892999649047852 C-6.998000144958496,-8.892999649047852 -6,-8.939000129699707 -6,-8.939000129699707 C-5.993000030517578,-8.789999961853027 -5.26200008392334,5.946000099182129 -0.2240000069141388,7.763999938964844 C1.5390000343322754,8.39900016784668 3.7179999351501465,7.302999973297119 6.257999897003174,4.511000156402588 C6.257999897003174,4.511000156402588 6.998000144958496,5.184000015258789 6.998000144958496,5.184000015258789 C4.7230000495910645,7.682000160217285 2.640000104904175,8.939000129699707 0.7829999923706055,8.939000129699707z"></path></g><g opacity="1" transform="matrix(0.9848077297210693,-0.1736481785774231,0.1736481785774231,0.9848077297210693,236.73399353027344,173.23399353027344)"><path fill="rgb(56,57,69)" fill-opacity="1" d=" M13.402000427246094,2.385999917984009 C13.402000427246094,2.385999917984009 10.095999717712402,4.743000030517578 5.808000087738037,5.335999965667725 C1.5199999809265137,5.927999973297119 -10.95199966430664,5.484000205993652 -12.177000045776367,5.6539998054504395 C-13.402000427246094,5.822999954223633 -2.1070001125335693,-5.928999900817871 13.402000427246094,2.385999917984009z"></path></g><g opacity="1" transform="matrix(1,0,0,1,281.3630065917969,168.2100067138672)"><path fill="rgb(56,57,69)" fill-opacity="1" d=" M-10.947999954223633,3.135999917984009 C-10.947999954223633,3.135999917984009 -10.15999984741211,2.5250000953674316 -8.906999588012695,1.6660000085830688 C-5.316999912261963,-0.7950000166893005 2.0889999866485596,-5.289000034332275 5.698999881744385,-3.259000062942505 C10.947999954223633,-0.3070000112056732 10.498000144958496,3.135999917984009 10.498000144958496,3.135999917984009 C10.498000144958496,3.135999917984009 3.0429999828338623,1.2089999914169312 2.0999999046325684,1.6260000467300415 C-2.1419999599456787,3.496999979019165 -7.335000038146973,5.997000217437744 -10.947999954223633,3.135999917984009z"></path></g><g opacity="1" transform="matrix(1,0,0,1,260.6199951171875,224.17799377441406)"><path fill="rgb(246,187,159)" fill-opacity="1" d=" M12.821999549865723,5.681000232696533 C12.821999549865723,5.681000232696533 6.585999965667725,-16.143999099731445 -0.47200000286102295,-14.701000213623047 C-7.53000020980835,-13.258000373840332 -13.151000022888184,2.253999948501587 -10.970999717712402,9.107999801635742 C-8.791999816894531,15.963000297546387 13.151000022888184,16.14299964904785 12.821999549865723,5.681000232696533z"></path></g><g opacity="1" transform="matrix(1,0,0,1,260.5920104980469,219.36199951171875)"><path fill="rgb(56,57,69)" fill-opacity="1" d=" M-6.215000152587891,3.990000009536743 C-6.215000152587891,3.990000009536743 -7.705999851226807,2.6570000648498535 -7.705999851226807,2.6570000648498535 C-7.461999893188477,2.384000062942505 -1.6640000343322754,-3.990000009536743 3.4519999027252197,-3.9059998989105225 C5.150000095367432,-3.865000009536743 6.581999778747559,-3.140000104904175 7.705999851226807,-1.75 C7.705999851226807,-1.75 6.151000022888184,-0.492000013589859 6.151000022888184,-0.492000013589859 C5.4029998779296875,-1.4170000553131104 3.3350000381469727,-1.9079999923706055 3.3010001182556152,-1.9079999923706055 C1.5,-1.9079999923706055 -0.5960000157356262,-0.7639999985694885 -2.4030001163482666,0.5669999718666077 C-4.077000141143799,1.8009999990463257 -5.502999782562256,3.194999933242798 -6.215000152587891,3.990000009536743z"></path></g><g opacity="1" transform="matrix(1,0,0,1,261.92498779296875,221.98899841308594)"><path fill="rgb(56,57,69)" fill-opacity="1" d=" M3.249000072479248,1.6449999809265137 C-0.27900001406669617,0.4830000102519989 -3.0869998931884766,1.6100000143051147 -3.114000082015991,1.621999979019165 C-3.114000082015991,1.621999979019165 -3.875999927520752,-0.2290000021457672 -3.875999927520752,-0.2290000021457672 C-3.7330000400543213,-0.2879999876022339 -0.3479999899864197,-1.6449999809265137 3.875,-0.25200000405311584 C3.875,-0.25200000405311584 3.249000072479248,1.6449999809265137 3.249000072479248,1.6449999809265137z"></path></g><g opacity="1" transform="matrix(1,0,0,1,267.00201416015625,136.0489959716797)"><path fill="rgb(74,108,121)" fill-opacity="1" d=" M-32.34700012207031,-10.6850004196167 C-32.34700012207031,-10.6850004196167 -21.667999267578125,-17.660999298095703 -10.845000267028809,-9.725000381469727 C-0.023000000044703484,-1.7879999876022339 21.066999435424805,29.461999893188477 32.34700012207031,12.845000267028809 C32.34700012207031,12.845000267028809 27.214000701904297,-7.754000186920166 11.340999603271484,-13.519000053405762 C-4.5329999923706055,-19.28499984741211 -16.33099937438965,-19.582000732421875 -32.34700012207031,-10.6850004196167z"></path></g><g opacity="1" transform="matrix(1,0,0,1,260.177001953125,143.4409942626953)"><path fill="rgb(83,121,132)" fill-opacity="1" d=" M32.832000732421875,19.743999481201172 C29.020000457763672,19.743999481201172 24.680999755859375,15.130999565124512 19.270999908447266,9.380999565124512 C13.956000328063965,3.7309999465942383 7.341000080108643,-3.299999952316284 -0.5889999866485596,-7.659999847412109 C-20.097999572753906,-18.382999420166016 -37.678001403808594,12.930000305175781 -37.85300064086914,13.248000144958496 C-37.85300064086914,13.248000144958496 -38.729000091552734,12.765000343322754 -38.729000091552734,12.765000343322754 C-38.54899978637695,12.437999725341797 -20.488000869750977,-19.743999481201172 -0.10700000077486038,-8.53600025177002 C7.960999965667725,-4.10099983215332 14.63700008392334,2.994999885559082 20,8.696000099182129 C25.54599952697754,14.59000015258789 29.906999588012695,19.246000289916992 33.38399887084961,18.701000213623047 C35.04100036621094,18.44099998474121 36.494998931884766,16.950000762939453 37.82600021362305,14.145000457763672 C37.82600021362305,14.145000457763672 38.729000091552734,14.574000358581543 38.729000091552734,14.574000358581543 C37.244998931884766,17.700000762939453 35.54800033569336,19.37299919128418 33.53900146484375,19.68899917602539 C33.30500030517578,19.72599983215332 33.06999969482422,19.743999481201172 32.832000732421875,19.743999481201172z"></path></g><g opacity="1" transform="matrix(1,0,0,1,259.7309875488281,141.2790069580078)"><path fill="rgb(83,121,132)" fill-opacity="1" d=" M33.68000030517578,17.05500030517578 C29.37700080871582,17.05500030517578 26.554000854492188,13.185999870300293 22.45199966430664,7.564000129699707 C18.759000778198242,2.5 14.161999702453613,-3.8010001182556152 6.4730000495910645,-10.427000045776367 C0.25699999928474426,-15.782999992370605 -6.056000232696533,-17.736000061035156 -12.300999641418457,-16.236000061035156 C-28.593000411987305,-12.317999839782715 -39.4379997253418,13.833000183105469 -39.54600143432617,14.097000122070312 C-39.54600143432617,14.097000122070312 -40.472999572753906,13.718999862670898 -40.472999572753906,13.718999862670898 C-40.44599914550781,13.652000427246094 -37.685001373291016,6.938000202178955 -32.90599822998047,-0.17599999904632568 C-28.472000122070312,-6.7769999504089355 -21.33799934387207,-15.09000015258789 -12.53600025177002,-17.20800018310547 C-5.960999965667725,-18.788000106811523 0.6520000100135803,-16.76300048828125 7.124000072479248,-11.185999870300293 C14.902000427246094,-4.484000205993652 19.535999298095703,1.8700000047683716 23.26099967956543,6.97599983215332 C29.17799949645996,15.088000297546387 31.881999969482422,18.788999557495117 39.94300079345703,13.767999649047852 C39.94300079345703,13.767999649047852 40.472999572753906,14.616999626159668 40.472999572753906,14.616999626159668 C37.76300048828125,16.304000854492188 35.57699966430664,17.05500030517578 33.68000030517578,17.05500030517578z"></path></g><g opacity="1" transform="matrix(1,0,0,1,274.9339904785156,134.9530029296875)"><path fill="rgb(83,121,132)" fill-opacity="1" d=" M22.833999633789062,18.135000228881836 C22.76099967956543,18.135000228881836 22.68600082397461,18.134000778198242 22.608999252319336,18.1299991607666 C19.94499969482422,17.993000030517578 15.24899959564209,15.319000244140625 8.001999855041504,3.3550000190734863 C-4.341000080108643,-17.023000717163086 -21.792999267578125,-14.005000114440918 -25.16699981689453,-13.192000389099121 C-25.16699981689453,-13.192000389099121 -25.402000427246094,-14.164999961853027 -25.402000427246094,-14.164999961853027 C-21.90999984741211,-15.003999710083008 -3.8469998836517334,-18.135000228881836 8.857000350952148,2.8369998931884766 C16.21299934387207,14.980999946594238 20.63599967956543,17.003999710083008 22.618000030517578,17.128999710083008 C23.969999313354492,17.211999893188477 24.583999633789062,16.472000122070312 24.607999801635742,16.440000534057617 C24.607999801635742,16.440000534057617 25.402000427246094,17.047000885009766 25.402000427246094,17.047000885009766 C25.367000579833984,17.0939998626709 24.559999465942383,18.135000228881836 22.833999633789062,18.135000228881836z"></path></g><g opacity="1" transform="matrix(1,0,0,1,228.656005859375,190.49200439453125)"><path fill="rgb(233,147,110)" fill-opacity="1" d=" M3.88100004196167,-37.90399932861328 C3.88100004196167,-37.90399932861328 -4.760000228881836,-30.716999053955078 -4.817999839782715,-16.14699935913086 C-4.875,-1.5779999494552612 -4,35.659000396728516 12.336999893188477,33.27399826049805 C12.336999893188477,33.27399826049805 6.875999927520752,39.86899948120117 -0.4880000054836273,28.344999313354492 C-7.853000164031982,16.820999145507812 -12.336000442504883,-4.677000045776367 -4.817999839782715,-30.9950008392334 C-4.817999839782715,-30.9950008392334 2.0859999656677246,-39.86899948120117 3.88100004196167,-37.90399932861328z"></path></g></g><g transform="matrix(1.440000057220459,0,0,1.440000057220459,-181.75,-100.5)" opacity="1" style="display: block;"><g opacity="1" transform="matrix(1,0,0,1,269.2640075683594,330.8900146484375)"><path fill="rgb(255,249,238)" fill-opacity="1" d=" M-31.530000686645508,-54.49399948120117 C-31.530000686645508,-54.49399948120117 -31.964000701904297,-23.297000885009766 -7.13700008392334,-26.770000457763672 C13.557999610900879,-29.66699981689453 14.097000122070312,-55.59400177001953 14.097000122070312,-55.59400177001953 C14.097000122070312,-55.59400177001953 39.724998474121094,-47.404998779296875 49.3129997253418,-42.249000549316406 C58.9010009765625,-37.09199905395508 106.6760025024414,-12.645999908447266 85.31400299072266,55.59299850463867 C85.31400299072266,55.59299850463867 -91.61699676513672,55.59299850463867 -91.61699676513672,55.59299850463867 C-91.61699676513672,55.59299850463867 -106.677001953125,19.284000396728516 -91.61699676513672,-13.307000160217285 C-74.65299987792969,-50.01900100708008 -41.09700012207031,-46.573001861572266 -31.530000686645508,-54.49399948120117z"></path></g></g><g transform="matrix(1.440000057220459,0,0,1.440000057220459,-163.75,40)" opacity="1" style="display: block;"><g opacity="1" transform="matrix(1,0,0,1,257.2449951171875,232.65699768066406)"><path fill="rgb(255,249,238)" fill-opacity="1" d=" M-31.52899932861328,-54.49300003051758 C-31.52899932861328,-54.49300003051758 -31.96299934387207,-23.29599952697754 -7.135000228881836,-26.770000457763672 C13.5600004196167,-29.666000366210938 14.097999572753906,-55.59400177001953 14.097999572753906,-55.59400177001953 C14.097999572753906,-55.59400177001953 39.72600173950195,-47.404998779296875 49.31399917602539,-42.24800109863281 C58.902000427246094,-37.090999603271484 106.6760025024414,-12.645999908447266 85.31400299072266,55.59400177001953 C85.31400299072266,55.59400177001953 -91.61699676513672,55.59400177001953 -91.61699676513672,55.59400177001953 C-91.61699676513672,55.59400177001953 -106.677001953125,19.284000396728516 -91.61699676513672,-13.307000160217285 C-74.65299987792969,-50.01900100708008 -41.09600067138672,-46.573001861572266 -31.52899932861328,-54.49300003051758z"></path></g><g opacity="1" transform="matrix(1,0,0,1,262.47100830078125,284.8190002441406)"><path fill="rgb(213,235,224)" fill-opacity="1" d=" M-52.845001220703125,-65.3270034790039 C-52.845001220703125,-65.3270034790039 -26.06999969482422,27.992000579833984 52.84400177001953,-34.00699996948242 C52.84400177001953,-34.00699996948242 52.84400177001953,65.3270034790039 52.84400177001953,65.3270034790039 C52.84400177001953,65.3270034790039 -50.770999908447266,65.3270034790039 -50.770999908447266,65.3270034790039 C-50.770999908447266,65.3270034790039 -52.845001220703125,-65.3270034790039 -52.845001220703125,-65.3270034790039z"></path></g><g opacity="1" transform="matrix(1,0,0,1,317.9259948730469,265.9939880371094)"><path fill="rgb(56,57,69)" fill-opacity="1" d=" M-32.45600128173828,-84.1520004272461 C-32.45600128173828,-84.1520004272461 -35.06800079345703,70.28500366210938 -33.80099868774414,84.1510009765625 C-33.80099868774414,84.1510009765625 18.29400062561035,84.1510009765625 18.29400062561035,84.1510009765625 C18.29400062561035,84.1510009765625 35.06700134277344,-14.642999649047852 29.44499969482422,-38.16899871826172 C21.565000534057617,-71.13800048828125 -32.45600128173828,-84.1520004272461 -32.45600128173828,-84.1520004272461z"></path></g><g opacity="1" transform="matrix(1,0,0,1,185.46299743652344,266.5559997558594)"><path fill="rgb(56,57,69)" fill-opacity="1" d=" M29.084999084472656,-83.58899688720703 C29.084999084472656,-83.58899688720703 38.439998626708984,69.7229995727539 37.17300033569336,83.58899688720703 C37.17300033569336,83.58899688720703 -14.387999534606934,83.58899688720703 -14.387999534606934,83.58899688720703 C-14.387999534606934,83.58899688720703 -38.439998626708984,-15.206000328063965 -32.81700134277344,-38.731998443603516 C-24.937000274658203,-71.70099639892578 29.084999084472656,-83.58899688720703 29.084999084472656,-83.58899688720703z"></path></g><g opacity="1" transform="matrix(1,0,0,1,248.93899536132812,199.38800048828125)"><path fill="rgb(146,152,149)" fill-opacity="1" d=" M-0.6399999856948853,16.922000885009766 C-28.56800079345703,16.922000885009766 -31.638999938964844,-12.29699993133545 -31.66699981689453,-12.595000267028809 C-31.66699981689453,-12.595000267028809 -30.672000885009766,-12.687999725341797 -30.672000885009766,-12.687999725341797 C-30.643999099731445,-12.395999908447266 -27.586000442504883,16.490999221801758 0.11299999803304672,15.914999961853027 C27.832000732421875,15.388999938964844 30.645999908447266,-16.599000930786133 30.672000885009766,-16.922000885009766 C30.672000885009766,-16.922000885009766 31.667999267578125,-16.8439998626709 31.667999267578125,-16.8439998626709 C31.642000198364258,-16.511999130249023 28.76300048828125,16.371999740600586 0.13099999725818634,16.915000915527344 C-0.12600000202655792,16.920000076293945 -0.38499999046325684,16.922000885009766 -0.6399999856948853,16.922000885009766z"></path></g></g><g transform="matrix(1.440000057220459,0,0,1.440000057220459,-162,36.000335693359375)" opacity="1" style="display: block;"><g opacity="1" transform="matrix(1,0,0,1,181.3979949951172,298.3789978027344)"><path fill="rgb(83,121,132)" fill-opacity="1" d=" M-18.398000717163086,18.805999755859375 C-18.398000717163086,18.805999755859375 -18.27899932861328,17.08799934387207 -18.27899932861328,17.08799934387207 C-18.263999938964844,16.8700008392334 -16.457000732421875,-4.895999908447266 9.246999740600586,-18.805999755859375 C9.246999740600586,-18.805999755859375 9.722000122070312,-17.927000045776367 9.722000122070312,-17.927000045776367 C-11.253999710083008,-6.574999809265137 -16.006000518798828,10.01099967956543 -17.020999908447266,15.39900016784668 C-8.732999801635742,5.994999885559082 16.729000091552734,-10.119999885559082 17.864999771118164,-10.836999893188477 C17.864999771118164,-10.836999893188477 18.398000717163086,-9.991000175476074 18.398000717163086,-9.991000175476074 C18.10700035095215,-9.807000160217285 -10.791999816894531,8.482000350952148 -17.378000259399414,17.420000076293945 C-17.378000259399414,17.420000076293945 -18.398000717163086,18.805999755859375 -18.398000717163086,18.805999755859375z"></path></g><g opacity="1" transform="matrix(1,0,0,1,201.08399963378906,260.42401123046875)"><path fill="rgb(83,121,132)" fill-opacity="1" d=" M9.784000396728516,30.767000198364258 C-3.0299999713897705,3.5179998874664307 -10.61299991607666,-30.21299934387207 -10.689000129699707,-30.551000595092773 C-10.689000129699707,-30.551000595092773 -9.711999893188477,-30.767000198364258 -9.711999893188477,-30.767000198364258 C-9.63700008392334,-30.430999755859375 -2.078000068664551,3.194999933242798 10.689000129699707,30.340999603271484 C10.689000129699707,30.340999603271484 9.784000396728516,30.767000198364258 9.784000396728516,30.767000198364258z"></path></g><g opacity="1" transform="matrix(0.9945219159126282,0.10452846437692642,-0.10452846437692642,0.9945219159126282,36.43280029296875,-16.9813232421875)"><g opacity="1" transform="matrix(1,0,0,1,236.38699340820312,312.73699951171875)"><path fill="rgb(246,187,159)" fill-opacity="1" d=" M63.44499969482422,-11.932000160217285 C63.44499969482422,-11.932000160217285 -13.309000015258789,30.1560001373291 -41.2599983215332,32.21699905395508 C-69.21099853515625,34.27899932861328 -72.76799774169922,2.7660000324249268 -72.76799774169922,2.7660000324249268 C-72.76799774169922,2.7660000324249268 -38.000999450683594,-14.633000373840332 -19.770999908447266,-22.562999725341797 C-19.770999908447266,-22.562999725341797 21.299999237060547,-34.27799987792969 67.04499816894531,-32.7239990234375 C67.04499816894531,-32.7239990234375 72.76799774169922,-19.694000244140625 63.44499969482422,-11.932000160217285z"></path></g><g opacity="1" transform="matrix(1,0,0,1,233.52499389648438,337.1929931640625)"><path fill="rgb(233,147,110)" fill-opacity="1" d=" M-37.020999908447266,-37.75299835205078 C-37.020999908447266,-37.75299835205078 -62.60499954223633,-26.26099967956543 -61.23500061035156,-14.845000267028809 C-59.8650016784668,-3.427999973297119 -52.553001403808594,8.593000411987305 -30.63800048828125,2.4779999256134033 C-8.723999977111816,-3.63700008392334 53.27399826049805,-38.84700012207031 69.08200073242188,-39.435001373291016 C69.08200073242188,-39.435001373291016 69.90599822998047,-36.369998931884766 69.90599822998047,-36.369998931884766 C69.90599822998047,-36.369998931884766 35.801998138427734,-20.125 20.33300018310547,-13.152000427246094 C4.861999988555908,-6.179999828338623 -57.130001068115234,39.43600082397461 -69.90599822998047,-21.690000534057617 C-69.90599822998047,-21.690000534057617 -64.40499877929688,-24.06599998474121 -37.020999908447266,-37.75299835205078z"></path></g></g></g><g transform="matrix(1.440000057220459,0,0,1.440000057220459,-85.00003051757812,48.999969482421875)" opacity="1" style="display: block;"><g opacity="1" transform="matrix(1,0,0,1,243.27499389648438,234.4510040283203)"><path fill="rgb(246,187,159)" fill-opacity="1" d=" M16.415000915527344,-74.28399658203125 C16.415000915527344,-74.28399658203125 -3.2230000495910645,-108.43499755859375 -12.284000396728516,-112.19499969482422 C-21.344999313354492,-115.95500183105469 -42.268001556396484,-108.15599822998047 -42.268001556396484,-108.15599822998047 C-42.268001556396484,-108.15599822998047 -39.51100158691406,-101.16500091552734 -39.51100158691406,-101.16500091552734 C-39.51100158691406,-101.16500091552734 -12.774999618530273,-114.31700134277344 -7.964000225067139,-94.13300323486328 C-7.964000225067139,-94.13300323486328 -23.177000045776367,-97.77200317382812 -29.7549991607666,-90.46499633789062 C-36.61199951171875,-82.8479995727539 -36.1609992980957,-71.04299926757812 -36.1609992980957,-71.04299926757812 C-36.1609992980957,-71.04299926757812 -28.077999114990234,-69.39800262451172 -28.077999114990234,-69.39800262451172 C-28.077999114990234,-69.39800262451172 -31.048999786376953,-87.8280029296875 -12.925999641418457,-88.52200317382812 C-12.925999641418457,-88.52200317382812 -28.26799964904785,-86.74099731445312 -24.389999389648438,-66.33200073242188 C-24.389999389648438,-66.33200073242188 -17.22599983215332,-64.31400299072266 -17.22599983215332,-64.31400299072266 C-17.22599983215332,-64.31400299072266 -19.569000244140625,-84.99299621582031 -7.056000232696533,-84.34600067138672 C-7.056000232696533,-84.34600067138672 -20.332000732421875,-80.82499694824219 -13.187000274658203,-63.981998443603516 C-13.187000274658203,-63.981998443603516 -6.554999828338623,-64.57599639892578 -6.554999828338623,-64.57599639892578 C-6.554999828338623,-64.57599639892578 -12.064000129699707,-76.93299865722656 -4.728000164031982,-79.05999755859375 C-4.728000164031982,-79.05999755859375 -5.703999996185303,-64.57499694824219 4.265999794006348,-56.051998138427734 C4.265999794006348,-56.051998138427734 0,-17.548999786376953 -1.9620000123977661,6.943999767303467 C-4.382999897003174,37.15800094604492 -17.87700080871582,115.95500183105469 42.268001556396484,81.95099639892578 C42.268001556396484,81.95099639892578 33.492000579833984,-46.4379997253418 16.415000915527344,-74.28399658203125z"></path></g><g opacity="1" transform="matrix(0.9396926164627075,-0.3420201539993286,0.3420201539993286,0.9396926164627075,206.9290008544922,129.0260009765625)"><path fill="rgb(56,57,69)" fill-opacity="1" d=" M-2.2230000495910645,2.8949999809265137 C-2.2230000495910645,2.8949999809265137 -2.680000066757202,2.006999969482422 -2.680000066757202,2.006999969482422 C-0.42500001192092896,0.8450000286102295 2.0880000591278076,-0.7269999980926514 2.4639999866485596,-1.3420000076293945 C1.9110000133514404,-1.6540000438690186 -1.2200000286102295,-1.8600000143051147 -3.9000000953674316,-1.815999984741211 C-3.9000000953674316,-1.815999984741211 -3.9149999618530273,-2.815999984741211 -3.9149999618530273,-2.815999984741211 C0.6880000233650208,-2.8949999809265137 3.1730000972747803,-2.492000102996826 3.4609999656677246,-1.6260000467300415 C3.572999954223633,-1.2899999618530273 3.9149999618530273,-0.26600000262260437 -2.2230000495910645,2.8949999809265137z"></path></g><g opacity="1" transform="matrix(1,0,0,1,0,0)"><g opacity="1" transform="matrix(1,0,0,1,218.8769989013672,124.85299682617188)"><path fill="rgb(56,57,69)" fill-opacity="1" d=" M-0.23199999332427979,2.6489999294281006 C-0.23199999332427979,2.6489999294281006 -0.7620000243186951,-2.5480000972747803 -0.7620000243186951,-2.5480000972747803 C-0.7620000243186951,-2.5480000972747803 0.23199999332427979,-2.6489999294281006 0.23199999332427979,-2.6489999294281006 C0.23199999332427979,-2.6489999294281006 0.7620000243186951,2.5480000972747803 0.7620000243186951,2.5480000972747803 C0.7620000243186951,2.5480000972747803 -0.23199999332427979,2.6489999294281006 -0.23199999332427979,2.6489999294281006z"></path></g><g opacity="1" transform="matrix(1,0,0,1,221.052001953125,125.11799621582031)"><path fill="rgb(56,57,69)" fill-opacity="1" d=" M-0.28700000047683716,2.9010000228881836 C-0.28700000047683716,2.9010000228881836 -0.7110000252723694,-2.8269999027252197 -0.7110000252723694,-2.8269999027252197 C-0.7110000252723694,-2.8269999027252197 0.28700000047683716,-2.9010000228881836 0.28700000047683716,-2.9010000228881836 C0.28700000047683716,-2.9010000228881836 0.7110000252723694,2.8269999027252197 0.7110000252723694,2.8269999027252197 C0.7110000252723694,2.8269999027252197 -0.28700000047683716,2.9010000228881836 -0.28700000047683716,2.9010000228881836z"></path></g><g opacity="1" transform="matrix(1,0,0,1,223.43800354003906,124.85299682617188)"><path fill="rgb(56,57,69)" fill-opacity="1" d=" M0.23199999332427979,2.6489999294281006 C0.23199999332427979,2.6489999294281006 -0.7620000243186951,2.5480000972747803 -0.7620000243186951,2.5480000972747803 C-0.7620000243186951,2.5480000972747803 -0.23199999332427979,-2.6489999294281006 -0.23199999332427979,-2.6489999294281006 C-0.23199999332427979,-2.6489999294281006 0.7620000243186951,-2.5480000972747803 0.7620000243186951,-2.5480000972747803 C0.7620000243186951,-2.5480000972747803 0.23199999332427979,2.6489999294281006 0.23199999332427979,2.6489999294281006z"></path></g></g><g opacity="1" transform="matrix(1,0,0,1,210.99400329589844,158.5570068359375)"><path fill="rgb(56,57,69)" fill-opacity="1" d=" M2.7100000381469727,4.546000003814697 C2.7100000381469727,4.546000003814697 1.7100000381469727,4.51800012588501 1.7100000381469727,4.51800012588501 C1.7890000343322754,1.8660000562667847 1.534000039100647,-2.6429998874664307 0.5180000066757202,-3.4560000896453857 C-0.0860000029206276,-3.372999906539917 -1.2050000429153442,-0.2160000056028366 -1.8589999675750732,3.1429998874664307 C-1.8589999675750732,3.1429998874664307 -2.8420000076293945,2.9509999752044678 -2.8420000076293945,2.9509999752044678 C-2.5320000648498535,1.3660000562667847 -1.4040000438690186,-3.8519999980926514 0.14100000262260437,-4.419000148773193 C0.4819999933242798,-4.546999931335449 0.8389999866485596,-4.480000019073486 1.1430000066757202,-4.23799991607666 C2.8420000076293945,-2.878999948501587 2.746000051498413,3.316999912261963 2.7100000381469727,4.546000003814697z"></path></g><g opacity="1" transform="matrix(1,0,0,1,221.85699462890625,164.0679931640625)"><path fill="rgb(56,57,69)" fill-opacity="1" d=" M2.3459999561309814,3.5899999141693115 C2.3459999561309814,3.5899999141693115 1.3459999561309814,3.572000026702881 1.3459999561309814,3.572000026702881 C1.3860000371932983,1.2869999408721924 0.9879999756813049,-2.2269999980926514 0.00800000037997961,-2.515000104904175 C-0.08500000089406967,-2.5420000553131104 -0.14300000667572021,-2.5299999713897705 -0.2199999988079071,-2.4749999046325684 C-0.9079999923706055,-1.9809999465942383 -1.3040000200271606,0.6309999823570251 -1.3660000562667847,2.3269999027252197 C-1.3660000562667847,2.3269999027252197 -2.365999937057495,2.2899999618530273 -2.365999937057495,2.2899999618530273 C-2.3380000591278076,1.5269999504089355 -2.132999897003174,-2.3310000896453857 -0.8050000071525574,-3.2869999408721924 C-0.4749999940395355,-3.5230000019073486 -0.09600000083446503,-3.5899999141693115 0.289000004529953,-3.4739999771118164 C2.3550000190734863,-2.868000030517578 2.365000009536743,2.5169999599456787 2.3459999561309814,3.5899999141693115z"></path></g><g opacity="1" transform="matrix(1,0,0,1,232.93299865722656,166.0540008544922)"><path fill="rgb(56,57,69)" fill-opacity="1" d=" M-2.197999954223633,3.0810000896453857 C-2.3459999561309814,0.4970000088214874 -2.259999990463257,-2.6429998874664307 -1.0089999437332153,-2.9260001182556152 C-0.31299999356269836,-3.0810000896453857 0.578000009059906,-2.630000114440918 2.3459999561309814,1.7000000476837158 C2.3459999561309814,1.7000000476837158 1.4199999570846558,2.0789999961853027 1.4199999570846558,2.0789999961853027 C-0.10999999940395355,-1.6710000038146973 -0.7620000243186951,-1.930999994277954 -0.8320000171661377,-1.9479999542236328 C-1.1269999742507935,-1.6829999685287476 -1.3359999656677246,0.6480000019073486 -1.2000000476837158,3.0239999294281006 C-1.2000000476837158,3.0239999294281006 -2.197999954223633,3.0810000896453857 -2.197999954223633,3.0810000896453857z"></path></g><g opacity="1" transform="matrix(1,0,0,1,218.9010009765625,145.01300048828125)"><path fill="rgb(56,57,69)" fill-opacity="1" d=" M0.6380000114440918,1.934000015258789 C0.09799999743700027,0.7829999923706055 -1.5269999504089355,-1.2960000038146973 -1.5440000295639038,-1.3170000314712524 C-1.5440000295639038,-1.3170000314712524 -0.7570000290870667,-1.934000015258789 -0.7570000290870667,-1.934000015258789 C-0.6869999766349792,-1.8450000286102295 0.9549999833106995,0.25600001215934753 1.5440000295639038,1.5110000371932983 C1.5440000295639038,1.5110000371932983 0.6380000114440918,1.934000015258789 0.6380000114440918,1.934000015258789z"></path></g><g opacity="1" transform="matrix(1,0,0,1,217.03799438476562,145.84100341796875)"><path fill="rgb(56,57,69)" fill-opacity="1" d=" M0.8029999732971191,1.8140000104904175 C0.6990000009536743,1.3480000495910645 -0.6179999709129333,-0.04100000113248825 -1.7790000438690186,-1.0640000104904175 C-1.7790000438690186,-1.0640000104904175 -1.1200000047683716,-1.8140000104904175 -1.1200000047683716,-1.8140000104904175 C-0.4959999918937683,-1.2649999856948853 1.5570000410079956,0.6029999852180481 1.7790000438690186,1.5980000495910645 C1.7790000438690186,1.5980000495910645 0.8029999732971191,1.8140000104904175 0.8029999732971191,1.8140000104904175z"></path></g><g opacity="1" transform="matrix(1,0,0,1,225.45700073242188,151.322998046875)"><path fill="rgb(56,57,69)" fill-opacity="1" d=" M1.6449999809265137,1.0789999961853027 C0.5040000081062317,0.5149999856948853 -2.062000036239624,-0.10100000351667404 -2.0880000591278076,-0.10700000077486038 C-2.0880000591278076,-0.10700000077486038 -1.8559999465942383,-1.0789999961853027 -1.8559999465942383,-1.0789999961853027 C-1.746999979019165,-1.0529999732971191 0.8460000157356262,-0.4320000112056732 2.0880000591278076,0.18299999833106995 C2.0880000591278076,0.18299999833106995 1.6449999809265137,1.0789999961853027 1.6449999809265137,1.0789999961853027z"></path></g><g opacity="1" transform="matrix(1,0,0,1,224.6230010986328,153.19200134277344)"><path fill="rgb(56,57,69)" fill-opacity="1" d=" M1.5920000076293945,0.8209999799728394 C1.2209999561309814,0.5220000147819519 -0.6769999861717224,0.2540000081062317 -2.2209999561309814,0.1770000010728836 C-2.2209999561309814,0.1770000010728836 -2.1730000972747803,-0.8209999799728394 -2.1730000972747803,-0.8209999799728394 C-1.343000054359436,-0.781000018119812 1.4270000457763672,-0.597000002861023 2.2209999561309814,0.04399999976158142 C2.2209999561309814,0.04399999976158142 1.5920000076293945,0.8209999799728394 1.5920000076293945,0.8209999799728394z"></path></g><g opacity="1" transform="matrix(1,0,0,1,233.08299255371094,155.2429962158203)"><path fill="rgb(56,57,69)" fill-opacity="1" d=" M1.5369999408721924,0.9169999957084656 C0.49399998784065247,0.4729999899864197 -1.906000018119812,0.07199999690055847 -1.9299999475479126,0.06800000369548798 C-1.9299999475479126,0.06800000369548798 -1.7680000066757202,-0.9169999957084656 -1.7680000066757202,-0.9169999957084656 C-1.6640000343322754,-0.8999999761581421 0.7760000228881836,-0.49300000071525574 1.9299999475479126,-0.0020000000949949026 C1.9299999475479126,-0.0020000000949949026 1.5369999408721924,0.9169999957084656 1.5369999408721924,0.9169999957084656z"></path></g><g opacity="1" transform="matrix(1,0,0,1,232.1649932861328,157.01600646972656)"><path fill="rgb(56,57,69)" fill-opacity="1" d=" M1.4839999675750732,0.6769999861717224 C1.1740000247955322,0.4440000057220459 -0.6000000238418579,0.3190000057220459 -2.069000005722046,0.3490000069141388 C-2.069000005722046,0.3490000069141388 -2.0880000591278076,-0.6510000228881836 -2.0880000591278076,-0.6510000228881836 C-1.2970000505447388,-0.6710000038146973 1.3489999771118164,-0.6779999732971191 2.0880000591278076,-0.11999999731779099 C2.0880000591278076,-0.11999999731779099 1.4839999675750732,0.6769999861717224 1.4839999675750732,0.6769999861717224z"></path></g><g opacity="1" transform="matrix(1,0,0,1,259.28399658203125,266.2569885253906)"><path fill="rgb(233,147,110)" fill-opacity="1" d=" M-12.901000022888184,-77.1729965209961 C-12.901000022888184,-77.1729965209961 -24.41900062561035,30.798999786376953 -8.718999862670898,44.36399841308594 C6.980000019073486,57.926998138427734 25.832000732421875,44.36399841308594 25.832000732421875,44.36399841308594 C25.832000732421875,44.36399841308594 26.259000778198242,50.145999908447266 26.259000778198242,50.145999908447266 C26.259000778198242,50.145999908447266 -8.081000328063965,77.1729965209961 -18.361000061035156,40.72700119018555 C-26.259000778198242,12.72700023651123 -12.901000022888184,-77.1729965209961 -12.901000022888184,-77.1729965209961z"></path></g></g><g transform="matrix(1.518595576286316,-0.18646009266376495,0.18646009266376495,1.518595576286316,432,171)" opacity="1" style="display: block;"><g opacity="1" transform="matrix(1,0,0,1,0,0)"><path fill="rgb(236,17,70)" fill-opacity="1" d=" M-2.5139999389648438,-83.13899993896484 C-4.01200008392334,-83.13899993896484 -5.368000030517578,-82.94200134277344 -6.579999923706055,-82.5510025024414 C-7.794000148773193,-82.15799713134766 -8.86400032043457,-81.71099853515625 -9.789999961853027,-81.21299743652344 C-10.645999908447266,-80.78500366210938 -11.340999603271484,-80.39199829101562 -11.87600040435791,-80.03600311279297 C-12.41100025177002,-79.6780014038086 -12.715999603271484,-79.46399688720703 -12.78600025177002,-79.39399719238281 C-13.21399974822998,-79.53600311279297 -13.802000045776367,-79.6780014038086 -14.550999641418457,-79.8219985961914 C-15.300000190734863,-79.96399688720703 -16.06800079345703,-80.03600311279297 -16.851999282836914,-80.03600311279297 C-16.923999786376953,-80.03600311279297 -16.996000289916992,-80.03600311279297 -17.06599998474121,-80.03600311279297 C-17.13800048828125,-80.03600311279297 -17.19099998474121,-80.03600311279297 -17.22599983215332,-80.03600311279297 C-17.26300048828125,-80.03600311279297 -17.316999435424805,-80.03600311279297 -17.386999130249023,-80.03600311279297 C-17.815000534057617,-80.03600311279297 -18.26099967956543,-79.6969985961914 -18.724000930786133,-79.0199966430664 C-19.18899917602539,-78.34100341796875 -19.67099952697754,-77.46800231933594 -20.16900062561035,-76.39800262451172 C-20.66900062561035,-75.18399810791016 -21.184999465942383,-73.75800323486328 -21.719999313354492,-72.11799621582031 C-22.2549991607666,-70.47599792480469 -22.73699951171875,-68.83599853515625 -23.165000915527344,-67.19599914550781 C-23.80699920654297,-64.91200256347656 -24.30699920654297,-62.73699951171875 -24.663000106811523,-60.66899871826172 C-25.020999908447266,-58.5989990234375 -25.197999954223633,-56.99399948120117 -25.197999954223633,-55.854000091552734 C-25.128000259399414,-55.709999084472656 -25.090999603271484,-55.56800079345703 -25.090999603271484,-55.42599868774414 C-25.090999603271484,-55.28200149536133 -25.090999603271484,-55.13999938964844 -25.090999603271484,-54.99800109863281 C-25.020999908447266,-54.63999938964844 -24.860000610351562,-54.26599884033203 -24.608999252319336,-53.875 C-24.360000610351562,-53.481998443603516 -24.020999908447266,-53.071998596191406 -23.593000411987305,-52.64400100708008 C-22.951000213623047,-52.00199890136719 -22.148000717163086,-51.375999450683594 -21.184999465942383,-50.770999908447266 C-20.222000122070312,-50.16400146484375 -19.20599937438965,-49.68299865722656 -18.13599967956543,-49.32699966430664 C-17.70800018310547,-49.112998962402344 -17.26300048828125,-48.96900177001953 -16.79800033569336,-48.89899826049805 C-16.334999084472656,-48.82699966430664 -15.888999938964844,-48.79199981689453 -15.461000442504883,-48.79199981689453 C-15.319000244140625,-48.79199981689453 -15.192999839782715,-48.79199981689453 -15.086000442504883,-48.79199981689453 C-14.979000091552734,-48.79199981689453 -14.890999794006348,-48.79199981689453 -14.819000244140625,-48.79199981689453 C-14.604999542236328,-48.86199951171875 -14.37399959564209,-48.933998107910156 -14.123000144958496,-49.00600051879883 C-13.87399959564209,-49.07600021362305 -13.678999900817871,-49.14799880981445 -13.53499984741211,-49.220001220703125 C-12.75100040435791,-49.57600021362305 -12.234000205993652,-50.02299880981445 -11.982999801635742,-50.55799865722656 C-11.734000205993652,-51.09299850463867 -11.609000205993652,-51.715999603271484 -11.609000205993652,-52.43000030517578 C-11.609000205993652,-52.858001708984375 -11.645999908447266,-53.2859992980957 -11.715999603271484,-53.7140007019043 C-11.788000106811523,-54.141998291015625 -11.859999656677246,-54.56999969482422 -11.930000305175781,-54.99800109863281 C-12.001999855041504,-55.21200180053711 -12.055000305175781,-55.44200134277344 -12.09000015258789,-55.69300079345703 C-12.126999855041504,-55.94200134277344 -12.144000053405762,-56.17499923706055 -12.144000053405762,-56.388999938964844 C-12.144000053405762,-56.60300064086914 -12.161999702453613,-56.83399963378906 -12.196999549865723,-57.084999084472656 C-12.234000205993652,-57.33399963378906 -12.25100040435791,-57.566001892089844 -12.25100040435791,-57.779998779296875 C-12.25100040435791,-57.849998474121094 -12.25100040435791,-57.941001892089844 -12.25100040435791,-58.04800033569336 C-12.25100040435791,-58.154998779296875 -12.25100040435791,-58.24300003051758 -12.25100040435791,-58.314998626708984 C-12.25100040435791,-58.3849983215332 -12.234000205993652,-58.47600173950195 -12.196999549865723,-58.58300018310547 C-12.161999702453613,-58.689998626708984 -12.144000053405762,-58.77799987792969 -12.144000053405762,-58.849998474121094 C-12.001999855041504,-59.7760009765625 -11.822999954223633,-60.7760009765625 -11.609000205993652,-61.84600067138672 C-11.395000457763672,-62.91600036621094 -11.111000061035156,-64.02100372314453 -10.753000259399414,-65.16300201416016 C-10.041000366210938,-67.73100280761719 -8.970999717712402,-70.08499908447266 -7.543000221252441,-72.2249984741211 C-6.117000102996826,-74.36499786376953 -4.156000137329102,-75.39800262451172 -1.6579999923706055,-75.3280029296875 C0.19599999487400055,-75.25599670410156 1.5870000123977661,-74.66799926757812 2.515000104904175,-73.56300354003906 C3.440999984741211,-72.45600128173828 4.083000183105469,-71.2249984741211 4.440999984741211,-69.87100219726562 C4.583000183105469,-69.29900360107422 4.671999931335449,-68.74800109863281 4.709000110626221,-68.21299743652344 C4.74399995803833,-67.6780014038086 4.76200008392334,-67.19599914550781 4.76200008392334,-66.76799774169922 C4.76200008392334,-66.69599914550781 4.76200008392334,-66.6240005493164 4.76200008392334,-66.55400085449219 C4.76200008392334,-66.48200225830078 4.76200008392334,-66.41000366210938 4.76200008392334,-66.33999633789062 C4.76200008392334,-65.05599975585938 4.709000110626221,-63.895999908447266 4.6020002365112305,-62.862998962402344 C4.494999885559082,-61.827999114990234 4.26200008392334,-60.81100082397461 3.9059998989105225,-59.8129997253418 C3.691999912261963,-59.3129997253418 3.4779999256134033,-58.8129997253418 3.2639999389648438,-58.314998626708984 C3.049999952316284,-57.814998626708984 2.7639999389648438,-57.279998779296875 2.4079999923706055,-56.709999084472656 C2.4079999923706055,-56.709999084472656 -4.333000183105469,-45.474998474121094 -4.333000183105469,-45.474998474121094 C-5.11899995803833,-44.26100158691406 -5.814000129699707,-42.92399978637695 -6.419000148773193,-41.4630012512207 C-7.026000022888184,-40 -7.543000221252441,-38.55500030517578 -7.9710001945495605,-37.12900161743164 C-8.470999717712402,-35.27299880981445 -8.86400032043457,-33.49100112915039 -9.14799976348877,-31.77899932861328 C-9.434000015258789,-30.066999435424805 -9.576000213623047,-28.496999740600586 -9.576000213623047,-27.070999145507812 C-9.576000213623047,-26.28499984741211 -9.522000312805176,-25.572999954223633 -9.414999961853027,-24.930999755859375 C-9.307999610900879,-24.288999557495117 -9.14799976348877,-23.753999710083008 -8.934000015258789,-23.326000213623047 C-8.720000267028809,-22.968000411987305 -8.39900016784668,-22.700000762939453 -7.9710001945495605,-22.523000717163086 C-7.543000221252441,-22.3439998626709 -7.114999771118164,-22.2189998626709 -6.686999797821045,-22.14900016784668 C-6.617000102996826,-22.14900016784668 -6.545000076293945,-22.14900016784668 -6.4730000495910645,-22.14900016784668 C-6.4029998779296875,-22.14900016784668 -6.330999851226807,-22.14900016784668 -6.258999824523926,-22.14900016784668 C-5.9029998779296875,-22.14900016784668 -5.5279998779296875,-22.165000915527344 -5.135000228881836,-22.20199966430664 C-4.74399995803833,-22.23699951171875 -4.40500020980835,-22.291000366210938 -4.11899995803833,-22.363000869750977 C-3.9769999980926514,-22.433000564575195 -3.8350000381469727,-22.486000061035156 -3.690999984741211,-22.523000717163086 C-3.5490000247955322,-22.558000564575195 -3.441999912261963,-22.57699966430664 -3.369999885559082,-22.57699966430664 C-3.299999952316284,-22.57699966430664 -3.1740000247955322,-22.52400016784668 -2.994999885559082,-22.41699981689453 C-2.818000078201294,-22.309999465942383 -2.621000051498413,-22.18400001525879 -2.4070000648498535,-22.04199981689453 C-2.0510001182556152,-21.898000717163086 -1.6579999923706055,-21.77400016784668 -1.2300000190734863,-21.66699981689453 C-0.8019999861717224,-21.559999465942383 -0.37400001287460327,-21.506999969482422 0.05400000140070915,-21.506999969482422 C0.4099999964237213,-21.506999969482422 0.7310000061988831,-21.54199981689453 1.0169999599456787,-21.61400032043457 C1.3009999990463257,-21.68400001525879 1.5870000123977661,-21.827999114990234 1.8730000257492065,-22.04199981689453 C2.371000051498413,-22.398000717163086 2.7109999656677246,-22.826000213623047 2.890000104904175,-23.326000213623047 C3.066999912261963,-23.823999404907227 3.1570000648498535,-24.323999404907227 3.1570000648498535,-24.823999404907227 C3.1570000648498535,-25.107999801635742 3.1389999389648438,-25.393999099731445 3.1040000915527344,-25.68000030517578 C3.066999912261963,-25.964000701904297 3.049999952316284,-26.25 3.049999952316284,-26.535999298095703 C2.9779999256134033,-26.81999969482422 2.924999952316284,-27.124000549316406 2.890000104904175,-27.44499969482422 C2.8529999256134033,-27.766000747680664 2.8359999656677246,-28.069000244140625 2.8359999656677246,-28.354999542236328 C2.8359999656677246,-28.569000244140625 2.8359999656677246,-28.783000946044922 2.8359999656677246,-28.996999740600586 C2.8359999656677246,-29.211000442504883 2.871000051498413,-29.424999237060547 2.943000078201294,-29.638999938964844 C3.5850000381469727,-32.8489990234375 4.65500020980835,-35.70100021362305 6.1529998779296875,-38.19900131225586 C7.651000022888184,-40.69499969482422 9.218999862670898,-43.08399963378906 10.861000061035156,-45.36800003051758 C11.145000457763672,-45.7239990234375 11.430999755859375,-46.0989990234375 11.717000007629395,-46.492000579833984 C12.00100040435791,-46.882999420166016 12.286999702453613,-47.25699996948242 12.572999954223633,-47.6150016784668 C14.354999542236328,-50.03900146484375 15.925000190734863,-52.55400085449219 17.2810001373291,-55.159000396728516 C18.635000228881836,-57.762001037597656 19.31399917602539,-60.7760009765625 19.31399917602539,-64.19999694824219 C19.31399917602539,-64.55599975585938 19.31399917602539,-64.89600372314453 19.31399917602539,-65.21700286865234 C19.31399917602539,-65.53800201416016 19.277000427246094,-65.83999633789062 19.207000732421875,-66.1259994506836 C18.92099952697754,-69.12200164794922 18.26099967956543,-71.5459976196289 17.22800064086914,-73.4020004272461 C16.19300079345703,-75.25599670410156 15.069000244140625,-76.68199920654297 13.857000350952148,-77.68199920654297 C12.572999954223633,-78.8219985961914 11.359000205993652,-79.55500030517578 10.218999862670898,-79.8759994506836 C9.07699966430664,-80.1969985961914 8.470000267028809,-80.39199829101562 8.399999618530273,-80.46399688720703 C8.255999565124512,-80.53399658203125 7.900000095367432,-80.71299743652344 7.329999923706055,-80.9990005493164 C6.757999897003174,-81.28299713134766 6.080999851226807,-81.56900024414062 5.296999931335449,-81.8550033569336 C4.296999931335449,-82.21099853515625 3.1389999389648438,-82.5510025024414 1.8200000524520874,-82.87200164794922 C0.49900001287460327,-83.19300079345703 -0.9089999794960022,-83.35299682617188 -2.4070000648498535,-83.35299682617188 C-2.4790000915527344,-83.35299682617188 -2.5320000648498535,-83.35299682617188 -2.566999912261963,-83.35299682617188 C-2.6040000915527344,-83.35299682617188 -2.6579999923706055,-83.35299682617188 -2.7279999256134033,-83.35299682617188 C-2.7279999256134033,-83.35299682617188 -2.5139999389648438,-83.13899993896484 -2.5139999389648438,-83.13899993896484z"></path></g><g opacity="1" transform="matrix(0.8937299847602844,0,0,1,-5.322000026702881,-9.366000175476074)"><path fill="rgb(236,17,70)" fill-opacity="1" d=" M0,-7.828999996185303 C4.739717483520508,-7.828999996185303 8.588000297546387,-4.320825099945068 8.588000297546387,0 C8.588000297546387,4.320825099945068 4.739717483520508,7.828999996185303 0,7.828999996185303 C-4.739717483520508,7.828999996185303 -8.588000297546387,4.320825099945068 -8.588000297546387,0 C-8.588000297546387,-4.320825099945068 -4.739717483520508,-7.828999996185303 0,-7.828999996185303z"></path></g></g><g transform="matrix(0.9429188370704651,-0.11577587574720383,0.11577587574720383,0.9429188370704651,83,120)" opacity="1" style="display: block;"><g opacity="1" transform="matrix(1,0,0,1,0,0)"><path fill="rgb(236,17,70)" fill-opacity="1" d=" M-2.5139999389648438,-83.13899993896484 C-4.01200008392334,-83.13899993896484 -5.368000030517578,-82.94200134277344 -6.579999923706055,-82.5510025024414 C-7.794000148773193,-82.15799713134766 -8.86400032043457,-81.71099853515625 -9.789999961853027,-81.21299743652344 C-10.645999908447266,-80.78500366210938 -11.340999603271484,-80.39199829101562 -11.87600040435791,-80.03600311279297 C-12.41100025177002,-79.6780014038086 -12.715999603271484,-79.46399688720703 -12.78600025177002,-79.39399719238281 C-13.21399974822998,-79.53600311279297 -13.802000045776367,-79.6780014038086 -14.550999641418457,-79.8219985961914 C-15.300000190734863,-79.96399688720703 -16.06800079345703,-80.03600311279297 -16.851999282836914,-80.03600311279297 C-16.923999786376953,-80.03600311279297 -16.996000289916992,-80.03600311279297 -17.06599998474121,-80.03600311279297 C-17.13800048828125,-80.03600311279297 -17.19099998474121,-80.03600311279297 -17.22599983215332,-80.03600311279297 C-17.26300048828125,-80.03600311279297 -17.316999435424805,-80.03600311279297 -17.386999130249023,-80.03600311279297 C-17.815000534057617,-80.03600311279297 -18.26099967956543,-79.6969985961914 -18.724000930786133,-79.0199966430664 C-19.18899917602539,-78.34100341796875 -19.67099952697754,-77.46800231933594 -20.16900062561035,-76.39800262451172 C-20.66900062561035,-75.18399810791016 -21.184999465942383,-73.75800323486328 -21.719999313354492,-72.11799621582031 C-22.2549991607666,-70.47599792480469 -22.73699951171875,-68.83599853515625 -23.165000915527344,-67.19599914550781 C-23.80699920654297,-64.91200256347656 -24.30699920654297,-62.73699951171875 -24.663000106811523,-60.66899871826172 C-25.020999908447266,-58.5989990234375 -25.197999954223633,-56.99399948120117 -25.197999954223633,-55.854000091552734 C-25.128000259399414,-55.709999084472656 -25.090999603271484,-55.56800079345703 -25.090999603271484,-55.42599868774414 C-25.090999603271484,-55.28200149536133 -25.090999603271484,-55.13999938964844 -25.090999603271484,-54.99800109863281 C-25.020999908447266,-54.63999938964844 -24.860000610351562,-54.26599884033203 -24.608999252319336,-53.875 C-24.360000610351562,-53.481998443603516 -24.020999908447266,-53.071998596191406 -23.593000411987305,-52.64400100708008 C-22.951000213623047,-52.00199890136719 -22.148000717163086,-51.375999450683594 -21.184999465942383,-50.770999908447266 C-20.222000122070312,-50.16400146484375 -19.20599937438965,-49.68299865722656 -18.13599967956543,-49.32699966430664 C-17.70800018310547,-49.112998962402344 -17.26300048828125,-48.96900177001953 -16.79800033569336,-48.89899826049805 C-16.334999084472656,-48.82699966430664 -15.888999938964844,-48.79199981689453 -15.461000442504883,-48.79199981689453 C-15.319000244140625,-48.79199981689453 -15.192999839782715,-48.79199981689453 -15.086000442504883,-48.79199981689453 C-14.979000091552734,-48.79199981689453 -14.890999794006348,-48.79199981689453 -14.819000244140625,-48.79199981689453 C-14.604999542236328,-48.86199951171875 -14.37399959564209,-48.933998107910156 -14.123000144958496,-49.00600051879883 C-13.87399959564209,-49.07600021362305 -13.678999900817871,-49.14799880981445 -13.53499984741211,-49.220001220703125 C-12.75100040435791,-49.57600021362305 -12.234000205993652,-50.02299880981445 -11.982999801635742,-50.55799865722656 C-11.734000205993652,-51.09299850463867 -11.609000205993652,-51.715999603271484 -11.609000205993652,-52.43000030517578 C-11.609000205993652,-52.858001708984375 -11.645999908447266,-53.2859992980957 -11.715999603271484,-53.7140007019043 C-11.788000106811523,-54.141998291015625 -11.859999656677246,-54.56999969482422 -11.930000305175781,-54.99800109863281 C-12.001999855041504,-55.21200180053711 -12.055000305175781,-55.44200134277344 -12.09000015258789,-55.69300079345703 C-12.126999855041504,-55.94200134277344 -12.144000053405762,-56.17499923706055 -12.144000053405762,-56.388999938964844 C-12.144000053405762,-56.60300064086914 -12.161999702453613,-56.83399963378906 -12.196999549865723,-57.084999084472656 C-12.234000205993652,-57.33399963378906 -12.25100040435791,-57.566001892089844 -12.25100040435791,-57.779998779296875 C-12.25100040435791,-57.849998474121094 -12.25100040435791,-57.941001892089844 -12.25100040435791,-58.04800033569336 C-12.25100040435791,-58.154998779296875 -12.25100040435791,-58.24300003051758 -12.25100040435791,-58.314998626708984 C-12.25100040435791,-58.3849983215332 -12.234000205993652,-58.47600173950195 -12.196999549865723,-58.58300018310547 C-12.161999702453613,-58.689998626708984 -12.144000053405762,-58.77799987792969 -12.144000053405762,-58.849998474121094 C-12.001999855041504,-59.7760009765625 -11.822999954223633,-60.7760009765625 -11.609000205993652,-61.84600067138672 C-11.395000457763672,-62.91600036621094 -11.111000061035156,-64.02100372314453 -10.753000259399414,-65.16300201416016 C-10.041000366210938,-67.73100280761719 -8.970999717712402,-70.08499908447266 -7.543000221252441,-72.2249984741211 C-6.117000102996826,-74.36499786376953 -4.156000137329102,-75.39800262451172 -1.6579999923706055,-75.3280029296875 C0.19599999487400055,-75.25599670410156 1.5870000123977661,-74.66799926757812 2.515000104904175,-73.56300354003906 C3.440999984741211,-72.45600128173828 4.083000183105469,-71.2249984741211 4.440999984741211,-69.87100219726562 C4.583000183105469,-69.29900360107422 4.671999931335449,-68.74800109863281 4.709000110626221,-68.21299743652344 C4.74399995803833,-67.6780014038086 4.76200008392334,-67.19599914550781 4.76200008392334,-66.76799774169922 C4.76200008392334,-66.69599914550781 4.76200008392334,-66.6240005493164 4.76200008392334,-66.55400085449219 C4.76200008392334,-66.48200225830078 4.76200008392334,-66.41000366210938 4.76200008392334,-66.33999633789062 C4.76200008392334,-65.05599975585938 4.709000110626221,-63.895999908447266 4.6020002365112305,-62.862998962402344 C4.494999885559082,-61.827999114990234 4.26200008392334,-60.81100082397461 3.9059998989105225,-59.8129997253418 C3.691999912261963,-59.3129997253418 3.4779999256134033,-58.8129997253418 3.2639999389648438,-58.314998626708984 C3.049999952316284,-57.814998626708984 2.7639999389648438,-57.279998779296875 2.4079999923706055,-56.709999084472656 C2.4079999923706055,-56.709999084472656 -4.333000183105469,-45.474998474121094 -4.333000183105469,-45.474998474121094 C-5.11899995803833,-44.26100158691406 -5.814000129699707,-42.92399978637695 -6.419000148773193,-41.4630012512207 C-7.026000022888184,-40 -7.543000221252441,-38.55500030517578 -7.9710001945495605,-37.12900161743164 C-8.470999717712402,-35.27299880981445 -8.86400032043457,-33.49100112915039 -9.14799976348877,-31.77899932861328 C-9.434000015258789,-30.066999435424805 -9.576000213623047,-28.496999740600586 -9.576000213623047,-27.070999145507812 C-9.576000213623047,-26.28499984741211 -9.522000312805176,-25.572999954223633 -9.414999961853027,-24.930999755859375 C-9.307999610900879,-24.288999557495117 -9.14799976348877,-23.753999710083008 -8.934000015258789,-23.326000213623047 C-8.720000267028809,-22.968000411987305 -8.39900016784668,-22.700000762939453 -7.9710001945495605,-22.523000717163086 C-7.543000221252441,-22.3439998626709 -7.114999771118164,-22.2189998626709 -6.686999797821045,-22.14900016784668 C-6.617000102996826,-22.14900016784668 -6.545000076293945,-22.14900016784668 -6.4730000495910645,-22.14900016784668 C-6.4029998779296875,-22.14900016784668 -6.330999851226807,-22.14900016784668 -6.258999824523926,-22.14900016784668 C-5.9029998779296875,-22.14900016784668 -5.5279998779296875,-22.165000915527344 -5.135000228881836,-22.20199966430664 C-4.74399995803833,-22.23699951171875 -4.40500020980835,-22.291000366210938 -4.11899995803833,-22.363000869750977 C-3.9769999980926514,-22.433000564575195 -3.8350000381469727,-22.486000061035156 -3.690999984741211,-22.523000717163086 C-3.5490000247955322,-22.558000564575195 -3.441999912261963,-22.57699966430664 -3.369999885559082,-22.57699966430664 C-3.299999952316284,-22.57699966430664 -3.1740000247955322,-22.52400016784668 -2.994999885559082,-22.41699981689453 C-2.818000078201294,-22.309999465942383 -2.621000051498413,-22.18400001525879 -2.4070000648498535,-22.04199981689453 C-2.0510001182556152,-21.898000717163086 -1.6579999923706055,-21.77400016784668 -1.2300000190734863,-21.66699981689453 C-0.8019999861717224,-21.559999465942383 -0.37400001287460327,-21.506999969482422 0.05400000140070915,-21.506999969482422 C0.4099999964237213,-21.506999969482422 0.7310000061988831,-21.54199981689453 1.0169999599456787,-21.61400032043457 C1.3009999990463257,-21.68400001525879 1.5870000123977661,-21.827999114990234 1.8730000257492065,-22.04199981689453 C2.371000051498413,-22.398000717163086 2.7109999656677246,-22.826000213623047 2.890000104904175,-23.326000213623047 C3.066999912261963,-23.823999404907227 3.1570000648498535,-24.323999404907227 3.1570000648498535,-24.823999404907227 C3.1570000648498535,-25.107999801635742 3.1389999389648438,-25.393999099731445 3.1040000915527344,-25.68000030517578 C3.066999912261963,-25.964000701904297 3.049999952316284,-26.25 3.049999952316284,-26.535999298095703 C2.9779999256134033,-26.81999969482422 2.924999952316284,-27.124000549316406 2.890000104904175,-27.44499969482422 C2.8529999256134033,-27.766000747680664 2.8359999656677246,-28.069000244140625 2.8359999656677246,-28.354999542236328 C2.8359999656677246,-28.569000244140625 2.8359999656677246,-28.783000946044922 2.8359999656677246,-28.996999740600586 C2.8359999656677246,-29.211000442504883 2.871000051498413,-29.424999237060547 2.943000078201294,-29.638999938964844 C3.5850000381469727,-32.8489990234375 4.65500020980835,-35.70100021362305 6.1529998779296875,-38.19900131225586 C7.651000022888184,-40.69499969482422 9.218999862670898,-43.08399963378906 10.861000061035156,-45.36800003051758 C11.145000457763672,-45.7239990234375 11.430999755859375,-46.0989990234375 11.717000007629395,-46.492000579833984 C12.00100040435791,-46.882999420166016 12.286999702453613,-47.25699996948242 12.572999954223633,-47.6150016784668 C14.354999542236328,-50.03900146484375 15.925000190734863,-52.55400085449219 17.2810001373291,-55.159000396728516 C18.635000228881836,-57.762001037597656 19.31399917602539,-60.7760009765625 19.31399917602539,-64.19999694824219 C19.31399917602539,-64.55599975585938 19.31399917602539,-64.89600372314453 19.31399917602539,-65.21700286865234 C19.31399917602539,-65.53800201416016 19.277000427246094,-65.83999633789062 19.207000732421875,-66.1259994506836 C18.92099952697754,-69.12200164794922 18.26099967956543,-71.5459976196289 17.22800064086914,-73.4020004272461 C16.19300079345703,-75.25599670410156 15.069000244140625,-76.68199920654297 13.857000350952148,-77.68199920654297 C12.572999954223633,-78.8219985961914 11.359000205993652,-79.55500030517578 10.218999862670898,-79.8759994506836 C9.07699966430664,-80.1969985961914 8.470000267028809,-80.39199829101562 8.399999618530273,-80.46399688720703 C8.255999565124512,-80.53399658203125 7.900000095367432,-80.71299743652344 7.329999923706055,-80.9990005493164 C6.757999897003174,-81.28299713134766 6.080999851226807,-81.56900024414062 5.296999931335449,-81.8550033569336 C4.296999931335449,-82.21099853515625 3.1389999389648438,-82.5510025024414 1.8200000524520874,-82.87200164794922 C0.49900001287460327,-83.19300079345703 -0.9089999794960022,-83.35299682617188 -2.4070000648498535,-83.35299682617188 C-2.4790000915527344,-83.35299682617188 -2.5320000648498535,-83.35299682617188 -2.566999912261963,-83.35299682617188 C-2.6040000915527344,-83.35299682617188 -2.6579999923706055,-83.35299682617188 -2.7279999256134033,-83.35299682617188 C-2.7279999256134033,-83.35299682617188 -2.5139999389648438,-83.13899993896484 -2.5139999389648438,-83.13899993896484z"></path></g><g opacity="1" transform="matrix(0.8937299847602844,0,0,1,-5.322000026702881,-9.366000175476074)"><path fill="rgb(236,17,70)" fill-opacity="1" d=" M0,-7.828999996185303 C4.739717483520508,-7.828999996185303 8.588000297546387,-4.320825099945068 8.588000297546387,0 C8.588000297546387,4.320825099945068 4.739717483520508,7.828999996185303 0,7.828999996185303 C-4.739717483520508,7.828999996185303 -8.588000297546387,4.320825099945068 -8.588000297546387,0 C-8.588000297546387,-4.320825099945068 -4.739717483520508,-7.828999996185303 0,-7.828999996185303z"></path></g></g><g transform="matrix(1.0524557828903198,0.38306257128715515,-0.38306257128715515,1.0524557828903198,297,245)" opacity="1" style="display: block;"><g opacity="1" transform="matrix(1,0,0,1,0,0)"><path fill="rgb(236,17,70)" fill-opacity="1" d=" M-2.5139999389648438,-83.13899993896484 C-4.01200008392334,-83.13899993896484 -5.368000030517578,-82.94200134277344 -6.579999923706055,-82.5510025024414 C-7.794000148773193,-82.15799713134766 -8.86400032043457,-81.71099853515625 -9.789999961853027,-81.21299743652344 C-10.645999908447266,-80.78500366210938 -11.340999603271484,-80.39199829101562 -11.87600040435791,-80.03600311279297 C-12.41100025177002,-79.6780014038086 -12.715999603271484,-79.46399688720703 -12.78600025177002,-79.39399719238281 C-13.21399974822998,-79.53600311279297 -13.802000045776367,-79.6780014038086 -14.550999641418457,-79.8219985961914 C-15.300000190734863,-79.96399688720703 -16.06800079345703,-80.03600311279297 -16.851999282836914,-80.03600311279297 C-16.923999786376953,-80.03600311279297 -16.996000289916992,-80.03600311279297 -17.06599998474121,-80.03600311279297 C-17.13800048828125,-80.03600311279297 -17.19099998474121,-80.03600311279297 -17.22599983215332,-80.03600311279297 C-17.26300048828125,-80.03600311279297 -17.316999435424805,-80.03600311279297 -17.386999130249023,-80.03600311279297 C-17.815000534057617,-80.03600311279297 -18.26099967956543,-79.6969985961914 -18.724000930786133,-79.0199966430664 C-19.18899917602539,-78.34100341796875 -19.67099952697754,-77.46800231933594 -20.16900062561035,-76.39800262451172 C-20.66900062561035,-75.18399810791016 -21.184999465942383,-73.75800323486328 -21.719999313354492,-72.11799621582031 C-22.2549991607666,-70.47599792480469 -22.73699951171875,-68.83599853515625 -23.165000915527344,-67.19599914550781 C-23.80699920654297,-64.91200256347656 -24.30699920654297,-62.73699951171875 -24.663000106811523,-60.66899871826172 C-25.020999908447266,-58.5989990234375 -25.197999954223633,-56.99399948120117 -25.197999954223633,-55.854000091552734 C-25.128000259399414,-55.709999084472656 -25.090999603271484,-55.56800079345703 -25.090999603271484,-55.42599868774414 C-25.090999603271484,-55.28200149536133 -25.090999603271484,-55.13999938964844 -25.090999603271484,-54.99800109863281 C-25.020999908447266,-54.63999938964844 -24.860000610351562,-54.26599884033203 -24.608999252319336,-53.875 C-24.360000610351562,-53.481998443603516 -24.020999908447266,-53.071998596191406 -23.593000411987305,-52.64400100708008 C-22.951000213623047,-52.00199890136719 -22.148000717163086,-51.375999450683594 -21.184999465942383,-50.770999908447266 C-20.222000122070312,-50.16400146484375 -19.20599937438965,-49.68299865722656 -18.13599967956543,-49.32699966430664 C-17.70800018310547,-49.112998962402344 -17.26300048828125,-48.96900177001953 -16.79800033569336,-48.89899826049805 C-16.334999084472656,-48.82699966430664 -15.888999938964844,-48.79199981689453 -15.461000442504883,-48.79199981689453 C-15.319000244140625,-48.79199981689453 -15.192999839782715,-48.79199981689453 -15.086000442504883,-48.79199981689453 C-14.979000091552734,-48.79199981689453 -14.890999794006348,-48.79199981689453 -14.819000244140625,-48.79199981689453 C-14.604999542236328,-48.86199951171875 -14.37399959564209,-48.933998107910156 -14.123000144958496,-49.00600051879883 C-13.87399959564209,-49.07600021362305 -13.678999900817871,-49.14799880981445 -13.53499984741211,-49.220001220703125 C-12.75100040435791,-49.57600021362305 -12.234000205993652,-50.02299880981445 -11.982999801635742,-50.55799865722656 C-11.734000205993652,-51.09299850463867 -11.609000205993652,-51.715999603271484 -11.609000205993652,-52.43000030517578 C-11.609000205993652,-52.858001708984375 -11.645999908447266,-53.2859992980957 -11.715999603271484,-53.7140007019043 C-11.788000106811523,-54.141998291015625 -11.859999656677246,-54.56999969482422 -11.930000305175781,-54.99800109863281 C-12.001999855041504,-55.21200180053711 -12.055000305175781,-55.44200134277344 -12.09000015258789,-55.69300079345703 C-12.126999855041504,-55.94200134277344 -12.144000053405762,-56.17499923706055 -12.144000053405762,-56.388999938964844 C-12.144000053405762,-56.60300064086914 -12.161999702453613,-56.83399963378906 -12.196999549865723,-57.084999084472656 C-12.234000205993652,-57.33399963378906 -12.25100040435791,-57.566001892089844 -12.25100040435791,-57.779998779296875 C-12.25100040435791,-57.849998474121094 -12.25100040435791,-57.941001892089844 -12.25100040435791,-58.04800033569336 C-12.25100040435791,-58.154998779296875 -12.25100040435791,-58.24300003051758 -12.25100040435791,-58.314998626708984 C-12.25100040435791,-58.3849983215332 -12.234000205993652,-58.47600173950195 -12.196999549865723,-58.58300018310547 C-12.161999702453613,-58.689998626708984 -12.144000053405762,-58.77799987792969 -12.144000053405762,-58.849998474121094 C-12.001999855041504,-59.7760009765625 -11.822999954223633,-60.7760009765625 -11.609000205993652,-61.84600067138672 C-11.395000457763672,-62.91600036621094 -11.111000061035156,-64.02100372314453 -10.753000259399414,-65.16300201416016 C-10.041000366210938,-67.73100280761719 -8.970999717712402,-70.08499908447266 -7.543000221252441,-72.2249984741211 C-6.117000102996826,-74.36499786376953 -4.156000137329102,-75.39800262451172 -1.6579999923706055,-75.3280029296875 C0.19599999487400055,-75.25599670410156 1.5870000123977661,-74.66799926757812 2.515000104904175,-73.56300354003906 C3.440999984741211,-72.45600128173828 4.083000183105469,-71.2249984741211 4.440999984741211,-69.87100219726562 C4.583000183105469,-69.29900360107422 4.671999931335449,-68.74800109863281 4.709000110626221,-68.21299743652344 C4.74399995803833,-67.6780014038086 4.76200008392334,-67.19599914550781 4.76200008392334,-66.76799774169922 C4.76200008392334,-66.69599914550781 4.76200008392334,-66.6240005493164 4.76200008392334,-66.55400085449219 C4.76200008392334,-66.48200225830078 4.76200008392334,-66.41000366210938 4.76200008392334,-66.33999633789062 C4.76200008392334,-65.05599975585938 4.709000110626221,-63.895999908447266 4.6020002365112305,-62.862998962402344 C4.494999885559082,-61.827999114990234 4.26200008392334,-60.81100082397461 3.9059998989105225,-59.8129997253418 C3.691999912261963,-59.3129997253418 3.4779999256134033,-58.8129997253418 3.2639999389648438,-58.314998626708984 C3.049999952316284,-57.814998626708984 2.7639999389648438,-57.279998779296875 2.4079999923706055,-56.709999084472656 C2.4079999923706055,-56.709999084472656 -4.333000183105469,-45.474998474121094 -4.333000183105469,-45.474998474121094 C-5.11899995803833,-44.26100158691406 -5.814000129699707,-42.92399978637695 -6.419000148773193,-41.4630012512207 C-7.026000022888184,-40 -7.543000221252441,-38.55500030517578 -7.9710001945495605,-37.12900161743164 C-8.470999717712402,-35.27299880981445 -8.86400032043457,-33.49100112915039 -9.14799976348877,-31.77899932861328 C-9.434000015258789,-30.066999435424805 -9.576000213623047,-28.496999740600586 -9.576000213623047,-27.070999145507812 C-9.576000213623047,-26.28499984741211 -9.522000312805176,-25.572999954223633 -9.414999961853027,-24.930999755859375 C-9.307999610900879,-24.288999557495117 -9.14799976348877,-23.753999710083008 -8.934000015258789,-23.326000213623047 C-8.720000267028809,-22.968000411987305 -8.39900016784668,-22.700000762939453 -7.9710001945495605,-22.523000717163086 C-7.543000221252441,-22.3439998626709 -7.114999771118164,-22.2189998626709 -6.686999797821045,-22.14900016784668 C-6.617000102996826,-22.14900016784668 -6.545000076293945,-22.14900016784668 -6.4730000495910645,-22.14900016784668 C-6.4029998779296875,-22.14900016784668 -6.330999851226807,-22.14900016784668 -6.258999824523926,-22.14900016784668 C-5.9029998779296875,-22.14900016784668 -5.5279998779296875,-22.165000915527344 -5.135000228881836,-22.20199966430664 C-4.74399995803833,-22.23699951171875 -4.40500020980835,-22.291000366210938 -4.11899995803833,-22.363000869750977 C-3.9769999980926514,-22.433000564575195 -3.8350000381469727,-22.486000061035156 -3.690999984741211,-22.523000717163086 C-3.5490000247955322,-22.558000564575195 -3.441999912261963,-22.57699966430664 -3.369999885559082,-22.57699966430664 C-3.299999952316284,-22.57699966430664 -3.1740000247955322,-22.52400016784668 -2.994999885559082,-22.41699981689453 C-2.818000078201294,-22.309999465942383 -2.621000051498413,-22.18400001525879 -2.4070000648498535,-22.04199981689453 C-2.0510001182556152,-21.898000717163086 -1.6579999923706055,-21.77400016784668 -1.2300000190734863,-21.66699981689453 C-0.8019999861717224,-21.559999465942383 -0.37400001287460327,-21.506999969482422 0.05400000140070915,-21.506999969482422 C0.4099999964237213,-21.506999969482422 0.7310000061988831,-21.54199981689453 1.0169999599456787,-21.61400032043457 C1.3009999990463257,-21.68400001525879 1.5870000123977661,-21.827999114990234 1.8730000257492065,-22.04199981689453 C2.371000051498413,-22.398000717163086 2.7109999656677246,-22.826000213623047 2.890000104904175,-23.326000213623047 C3.066999912261963,-23.823999404907227 3.1570000648498535,-24.323999404907227 3.1570000648498535,-24.823999404907227 C3.1570000648498535,-25.107999801635742 3.1389999389648438,-25.393999099731445 3.1040000915527344,-25.68000030517578 C3.066999912261963,-25.964000701904297 3.049999952316284,-26.25 3.049999952316284,-26.535999298095703 C2.9779999256134033,-26.81999969482422 2.924999952316284,-27.124000549316406 2.890000104904175,-27.44499969482422 C2.8529999256134033,-27.766000747680664 2.8359999656677246,-28.069000244140625 2.8359999656677246,-28.354999542236328 C2.8359999656677246,-28.569000244140625 2.8359999656677246,-28.783000946044922 2.8359999656677246,-28.996999740600586 C2.8359999656677246,-29.211000442504883 2.871000051498413,-29.424999237060547 2.943000078201294,-29.638999938964844 C3.5850000381469727,-32.8489990234375 4.65500020980835,-35.70100021362305 6.1529998779296875,-38.19900131225586 C7.651000022888184,-40.69499969482422 9.218999862670898,-43.08399963378906 10.861000061035156,-45.36800003051758 C11.145000457763672,-45.7239990234375 11.430999755859375,-46.0989990234375 11.717000007629395,-46.492000579833984 C12.00100040435791,-46.882999420166016 12.286999702453613,-47.25699996948242 12.572999954223633,-47.6150016784668 C14.354999542236328,-50.03900146484375 15.925000190734863,-52.55400085449219 17.2810001373291,-55.159000396728516 C18.635000228881836,-57.762001037597656 19.31399917602539,-60.7760009765625 19.31399917602539,-64.19999694824219 C19.31399917602539,-64.55599975585938 19.31399917602539,-64.89600372314453 19.31399917602539,-65.21700286865234 C19.31399917602539,-65.53800201416016 19.277000427246094,-65.83999633789062 19.207000732421875,-66.1259994506836 C18.92099952697754,-69.12200164794922 18.26099967956543,-71.5459976196289 17.22800064086914,-73.4020004272461 C16.19300079345703,-75.25599670410156 15.069000244140625,-76.68199920654297 13.857000350952148,-77.68199920654297 C12.572999954223633,-78.8219985961914 11.359000205993652,-79.55500030517578 10.218999862670898,-79.8759994506836 C9.07699966430664,-80.1969985961914 8.470000267028809,-80.39199829101562 8.399999618530273,-80.46399688720703 C8.255999565124512,-80.53399658203125 7.900000095367432,-80.71299743652344 7.329999923706055,-80.9990005493164 C6.757999897003174,-81.28299713134766 6.080999851226807,-81.56900024414062 5.296999931335449,-81.8550033569336 C4.296999931335449,-82.21099853515625 3.1389999389648438,-82.5510025024414 1.8200000524520874,-82.87200164794922 C0.49900001287460327,-83.19300079345703 -0.9089999794960022,-83.35299682617188 -2.4070000648498535,-83.35299682617188 C-2.4790000915527344,-83.35299682617188 -2.5320000648498535,-83.35299682617188 -2.566999912261963,-83.35299682617188 C-2.6040000915527344,-83.35299682617188 -2.6579999923706055,-83.35299682617188 -2.7279999256134033,-83.35299682617188 C-2.7279999256134033,-83.35299682617188 -2.5139999389648438,-83.13899993896484 -2.5139999389648438,-83.13899993896484z"></path></g><g opacity="1" transform="matrix(0.8937299847602844,0,0,1,-5.322000026702881,-9.366000175476074)"><path fill="rgb(236,17,70)" fill-opacity="1" d=" M0,-7.828999996185303 C4.739717483520508,-7.828999996185303 8.588000297546387,-4.320825099945068 8.588000297546387,0 C8.588000297546387,4.320825099945068 4.739717483520508,7.828999996185303 0,7.828999996185303 C-4.739717483520508,7.828999996185303 -8.588000297546387,4.320825099945068 -8.588000297546387,0 C-8.588000297546387,-4.320825099945068 -4.739717483520508,-7.828999996185303 0,-7.828999996185303z"></path></g></g><g transform="matrix(1,0,0,1,250,250)" opacity="1" style="display: block;"><g opacity="1" transform="matrix(1,0,0,1,35.5,-152.5)"><path fill="rgb(236,17,70)" fill-opacity="1" d=" M0,-6.5 C3.5873498916625977,-6.5 6.5,-3.5873498916625977 6.5,0 C6.5,3.5873498916625977 3.5873498916625977,6.5 0,6.5 C-3.5873498916625977,6.5 -6.5,3.5873498916625977 -6.5,0 C-6.5,-3.5873498916625977 -3.5873498916625977,-6.5 0,-6.5z"></path></g></g><g transform="matrix(0.8987940549850464,0.4383711516857147,-0.44424089789390564,0.9108288288116455,189.1822052001953,220.41189575195312)" opacity="1" style="display: block;"><g opacity="1" transform="matrix(1,0,0,1,0,0)"><path stroke-linecap="round" stroke-linejoin="miter" fill-opacity="0" stroke-miterlimit="4" stroke="rgb(236,17,70)" stroke-opacity="1" stroke-width="11" d=" M34.81999969482422,-167.12399291992188 C34.81999969482422,-167.12399291992188 34.69499969482422,-209.96299743652344 34.69499969482422,-209.96299743652344"></path></g></g></g></svg>